<svg xmlns="http://www.w3.org/2000/svg" height="1365" preserveAspectRatio="none" style="display: block;" version="1.1" viewBox="0 0 1536 2048" width="1024">
<path d="M 0 0 L 1536 0 L 1536 2048 L 0 2048 L 0 0 z" fill="rgb(13,37,45)" transform="translate(0,0)"></path>
<path d="M 86.7909 47.226 C 102.136 46.1118 123.489 46.736 139.402 46.7504 L 233.872 46.8331 L 549.894 46.7364 L 1061.78 46.8098 L 1297.69 46.9527 C 1345.64 46.9422 1393.35 46.8962 1441.53 47.0275 C 1470.38 46.5564 1490.78 62.2172 1490.15 92.4636 C 1489.63 116.757 1489.91 142.802 1489.89 167.419 L 1490.01 418.762 L 1490.35 1655.15 L 1490.13 1863.73 L 1490.35 1927.51 C 1490.53 1961.77 1495.36 1990.05 1453.94 2000.78 C 1438.5 2002.68 1413.11 2001.92 1397.08 2001.88 L 1306.3 2001.74 L 1001.39 2001.63 L 434.986 2001.33 L 228.304 2001.26 C 183.468 2001.32 138.485 2001.57 93.6557 2000.98 C 82.449 2000.83 76.4072 2000.16 66.8003 1994.17 C 58.7054 1989.1 50.0901 1979.1 48.8311 1969.18 C 47.3797 1957.74 48.0073 1943.65 48.0324 1931.92 L 48.0795 1861.58 L 48.1562 1579.74 L 48.2548 478.951 C 47.9274 390.285 48.0929 301.617 48.7514 212.952 L 48.7713 130.787 C 48.7713 94.0938 41.0384 56.6238 86.7909 47.226 z" fill="rgb(140,238,210)" transform="translate(0,0)"></path>
<path d="M 1396.62 56.4755 C 1413.4 56.3576 1430.34 55.7198 1447.09 56.9092 C 1467.14 58.3323 1480.82 73.8273 1481.31 93.6622 C 1481.79 113.491 1481.4 133.408 1481.31 153.231 L 1481.31 258.175 L 1480.99 643.349 L 1481.75 1887.51 C 1481.79 1898.35 1482.52 1955.78 1480.62 1963.3 C 1478.96 1969.9 1475.5 1975.9 1470.63 1980.65 C 1464.25 1986.94 1455.25 1990.93 1446.38 1991.38 C 1427.69 1992.32 1408.28 1991.56 1389.58 1991.27 C 1364.87 1991.03 1340.16 1990.99 1315.44 1991.15 L 1034.31 1991.38 L 142.507 1990.48 C 91.4051 1990.46 50.4137 2002.47 56.2961 1935.52 C 56.6479 1931.52 56.5238 1925.99 56.5789 1921.85 C 56.7486 1901.33 56.8071 1880.82 56.7542 1860.31 L 55.9894 1650.61 L 56.2453 978.83 L 56.5641 401.98 L 56.8586 202.317 C 56.8706 166.016 56.5554 129.272 57.1099 92.9641 C 57.2577 83.2907 60.4296 74.5009 67.2549 67.4245 C 72.8695 61.5525 80.4296 57.925 88.5232 57.2195 C 100.27 56.2308 115.831 56.7427 127.962 56.8135 C 148.073 56.9895 168.185 57.0003 188.296 56.846 L 446.151 57.1009 L 1071.36 56.9895 L 1279.73 56.866 C 1318.7 57.2119 1357.66 57.0818 1396.62 56.4755 z" fill="rgb(13,37,45)" transform="translate(0,0)"></path>
<path d="M 207.622 67.4198 C 227.042 64.5913 253.557 69.546 273.447 69.8253 C 299.517 70.1914 325.526 70.1025 351.594 70.0986 L 754.475 70.1701 L 1183.63 70.3072 C 1215.2 70.3428 1247.49 70.647 1278.99 70.1638 C 1299.76 69.8453 1316.02 65.3477 1338.24 67.6886 C 1367.29 70.7493 1395.22 80.9976 1417.71 99.7143 C 1444.85 122.292 1465.32 156.236 1467.78 191.782 C 1469.34 214.525 1467 236.691 1467.01 259.507 L 1467.79 409.958 L 1467.31 927.086 L 1467.69 1556.98 L 1467.54 1762.02 C 1467.38 1787.77 1469.34 1815.1 1467.52 1840.58 C 1461.91 1919.38 1408.2 1972.88 1329.93 1979.82 C 1307.2 1980.25 1289.31 1979.01 1266.8 1976.23 C 1257.14 1975.04 1242.06 1975.9 1232 1975.97 L 551.696 1976.39 L 367.067 1976.16 C 335.844 1976.1 303.91 1975.77 272.683 1976.28 C 259.822 1977.31 247.389 1980.21 234.495 1981.27 C 155.732 1987.73 74.8378 1933.24 71.6308 1849.84 C 70.3173 1815.68 71.0399 1779.84 71.0605 1744.94 L 71.0403 1549.02 L 70.9786 903.044 L 70.9914 397.085 C 71.0237 352.05 71.0799 306.925 70.9924 261.903 C 70.9507 240.448 66.9829 218.545 69.1317 196.835 C 72.2895 164.93 82.2148 140.804 103.275 116.969 C 133.869 82.3431 163.097 70.4288 207.622 67.4198 z" fill="rgb(140,238,210)" transform="translate(0,0)"></path>
<path d="M 394.599 547.76 C 408.443 529.21 421.288 509.813 435.158 491.277 C 454.17 465.982 474.983 442.093 497.434 419.794 C 629.472 290.356 768.037 221.179 950.37 188.835 C 994.772 180.546 1039.66 175.09 1084.75 172.501 C 1113.56 171.046 1145.19 171.871 1174.27 172.174 C 1169.39 192.075 1168.45 209.171 1172.19 229.482 C 1188.64 318.67 1270.19 366.213 1355.92 350.488 L 1356.65 1698.11 C 1334.68 1691.72 1305.13 1692.47 1283.08 1697.71 C 1244.29 1706.58 1210.67 1730.62 1189.74 1764.46 C 1168.81 1798.65 1160.25 1836 1169.71 1875.67 C 1103.65 1876.07 1037.47 1874.99 971.434 1875.69 C 976.521 1868.33 979.239 1864.26 983.416 1856.2 L 984.995 1856.43 C 1014.07 1860.59 1035.2 1849.48 1057.81 1832.48 C 1034.27 1836.24 1016.45 1837.47 991.706 1842.6 C 1026.39 1778.27 1095.44 1740.48 1156.14 1705.42 C 1175.63 1694.17 1197.61 1682.55 1215.22 1668.71 C 1288.4 1611.22 1345.61 1513.29 1311.74 1418.97 C 1295.22 1373 1274.53 1349.63 1230.51 1328.64 L 1230.03 1330.2 L 1231.97 1331.36 L 1230.74 1333.28 C 1232.09 1338.73 1233.52 1339.94 1239.34 1341.44 L 1241.55 1344.11 C 1243.27 1346.61 1246.51 1350.09 1248.55 1352.37 C 1302.03 1413.46 1309.77 1480.86 1268.48 1551.07 C 1212.78 1645.81 1114.25 1660.72 1032.39 1724.79 C 1041.84 1678.41 1039.02 1623.09 1027.15 1577.49 C 1014.1 1525.98 989.111 1478.26 954.191 1438.2 C 940.378 1422.12 928.889 1409.77 910.353 1398.89 C 904.058 1402.21 897.578 1406.78 894.283 1413.19 C 889.598 1422.32 893.708 1426.81 900.12 1432.41 C 909.308 1440.43 918.465 1448.34 926.849 1457.01 C 962.378 1493.86 987.772 1539.26 1000.56 1588.82 C 1022.77 1674.39 1004.95 1757.51 961.737 1833.44 C 952.651 1849.4 939.307 1861.82 931.826 1874.84 L 931.234 1875.89 C 923.48 1875.51 915.27 1875.51 907.473 1875.37 C 918.288 1868.35 931.932 1851.7 939.414 1840.89 C 986.331 1773.42 1004.47 1690.06 989.821 1609.2 C 951.415 1400.65 720.496 1353.44 556.903 1278.76 C 383.484 1199.59 261.08 1064.38 227.526 873.286 C 195.449 690.599 217.809 490.465 366.324 362.345 C 389.288 342.534 413.648 327.116 438.254 309.668 C 497.315 267.762 530.914 230.971 571.734 171.933 L 583.766 171.93 C 559.555 215.544 516.131 263.38 477.499 295.099 C 453.299 314.582 427.114 331.298 401.826 349.297 C 206.806 488.1 192.064 766.46 272.135 977.167 C 293.567 1032.2 325.281 1082.65 365.583 1125.81 C 468.434 1237 580.293 1274.66 716.852 1328.35 C 737.741 1336.57 763.325 1348.58 784.236 1357.98 C 788.724 1338.95 808.929 1339.36 824.491 1338.3 C 820.358 1336.12 816.033 1334.47 811.575 1332.51 C 726.134 1294.8 633.198 1275.17 550.251 1231.59 C 540.842 1226.64 528.935 1199.89 524.858 1188.47 C 511.725 1151.67 514.731 1104.75 532.701 1069.87 C 545.83 1046.28 566.312 1020.81 580.737 996.793 C 597.314 974.742 601.808 947.83 611.929 924.241 C 627.92 886.972 622.876 865.936 616.809 825.582 C 605.124 855.213 596.466 885.895 612.014 916.091 C 603.543 941.09 595.281 966.899 579.662 988.37 C 555.136 1022.09 525.925 1044 510.917 1084.92 C 494.085 1130.82 498.3 1168.39 517.184 1212.01 C 508.495 1207.46 495.051 1197.29 487.231 1191.29 C 444.582 1159.09 408.375 1119.14 380.503 1073.54 C 352.173 1027.98 323.573 950.943 322.538 896.075 C 322.289 882.893 325.432 867.667 328.224 854.709 C 340.111 799.527 372.655 757.836 420.433 728.25 L 422.028 728.741 C 452.123 737.867 467.051 725.913 492.791 712.088 C 463.927 708.557 438.113 712.255 411.848 725.53 C 377.116 743.083 347.317 773.551 329.535 808.122 C 323.874 819.127 319.031 834.028 315.122 845.616 C 313.056 764.592 332.527 688.932 364.665 614.971 C 370.355 601.876 378.674 581.623 386.074 570.056 C 443.643 554.72 487.849 495.109 540.904 473.227 C 589.413 454.487 643.132 454.707 694.258 448.82 C 734.221 444.219 754.631 436.773 787.121 413.933 C 759.965 413.659 732.951 417.796 711.203 434.351 C 686.793 452.932 668.09 449.27 638.475 449.9 C 600.792 450.701 566.749 454.655 530.818 467.491 C 477.961 486.375 447.057 528.483 394.599 547.76 z" fill="rgb(13,37,45)" transform="translate(0,0)"></path>
<path d="M 1230.03 1330.2 C 1227.37 1329.47 1223.79 1328.31 1222.28 1326.08 C 1225.24 1325.55 1227.71 1327.27 1230.51 1328.64 L 1230.03 1330.2 z" fill="rgb(59,101,101)" transform="translate(0,0)"></path>
<path d="M 1061.83 310.362 C 1160.35 302.262 1246.79 375.524 1254.96 474.037 C 1263.12 572.549 1189.92 659.044 1091.41 667.276 C 992.812 675.515 906.217 602.226 898.044 503.621 C 889.871 405.015 963.217 318.469 1061.83 310.362 z" fill="rgb(140,238,210)" transform="translate(0,0)"></path>
<path d="M 1065.22 323.099 C 1156.35 316.779 1235.44 385.343 1242.1 476.451 C 1248.77 567.56 1180.5 646.904 1089.42 653.915 C 997.85 660.963 917.986 592.252 911.285 500.655 C 904.583 409.057 973.596 329.454 1065.22 323.099 z" fill="rgb(13,37,45)" transform="translate(0,0)"></path>
<path d="M 1072.91 354.506 C 1146.86 352.681 1208.36 411.011 1210.44 484.953 C 1212.53 558.896 1154.41 620.596 1080.48 622.939 C 1006.18 625.293 944.104 566.828 942.01 492.519 C 939.915 418.209 998.598 356.34 1072.91 354.506 z" fill="rgb(140,238,210)" transform="translate(0,0)"></path>
<path d="M 799.042 848.845 C 834.96 837.637 871.722 814.946 910.618 822.217 C 927.514 825.376 941.675 836.257 956.928 837.051 L 958.367 837.119 L 957.333 839.969 C 945.311 843.32 938.457 846.602 929.552 855.517 C 933.358 853.528 937.384 851.393 941.265 849.598 C 976.969 833.086 1024.7 848.787 1058.05 864.992 C 1010.99 860.56 953.731 854.972 906.964 862.092 C 940.949 865.788 975.466 863.746 1009.42 866.002 L 1008.68 869.183 L 941.599 879.641 C 927.418 881.89 907.601 884.717 894.161 888.663 L 915.925 891.028 C 909.343 900.165 904.335 910.436 898.367 920.026 C 893.493 927.859 886.839 935.451 882.367 943.391 C 865.599 973.168 875.746 1012.21 888.319 1041.58 L 889.445 1039.33 C 879.634 1015.44 877.58 976.697 887.286 953.096 C 889.779 947.034 893.59 940.407 899.815 937.613 C 904.504 935.509 909.811 935.97 914.446 937.984 C 954.697 955.474 1028.82 1145.95 1046.71 1194.61 C 1040.03 1187.43 1033.58 1180.03 1027.36 1172.44 C 1048.25 1215.34 1062.26 1267.06 1075.81 1313.29 C 1092.14 1368.95 1111.87 1433.69 1122.22 1490.16 C 1103.81 1460.19 1093.63 1421 1081.03 1387.96 C 1077.92 1379.8 1068.61 1351.27 1063.75 1345.35 L 1064.26 1346.5 C 1068.31 1355.81 1069.11 1364.83 1072.36 1373.66 C 1079.83 1393.97 1086.26 1414.69 1092.88 1435.3 C 1095.64 1443.92 1100.86 1458.88 1102.39 1467.39 C 1091.52 1452.35 1080.64 1429.55 1072.22 1412.65 L 1038.61 1344.65 C 1048.85 1378.97 1065.8 1412.43 1081.18 1444.88 C 1051.22 1412.15 1017.78 1373.12 999.041 1332.8 C 990.897 1315.27 984.103 1293.78 975.985 1275.4 C 981.173 1294.93 987.216 1314.21 994.096 1333.21 C 950.992 1299.74 952.992 1273.11 934.43 1230.85 C 939.583 1254.84 943.889 1273.07 952.589 1296.37 C 935.296 1271.78 925.642 1249.29 914.582 1221.11 C 910.763 1211.38 907.433 1199.34 903.616 1190.04 L 901.228 1190.57 C 905.312 1209.1 909.211 1227.67 912.925 1246.27 C 882.623 1205.85 876.091 1167.76 868.767 1118.52 C 867.267 1127.69 868.013 1143.35 867.838 1153.49 L 869.022 1178.11 C 848.09 1136.38 845.771 1100.66 849.268 1054.9 C 844.893 1066.19 843.071 1077.3 840.731 1089.14 C 840.33 1095.22 839.454 1099.71 838.341 1105.73 C 837.999 1095.19 837.073 1076.09 838.931 1065.96 C 839.835 1022.21 860.822 976.557 867.603 933.405 C 874.901 886.961 824.968 887.654 798.118 909.516 C 805.58 892.918 812.459 879.716 828.469 870.546 C 816.407 867.497 812.463 866.656 800.206 867.952 C 812.141 860.974 814.456 860.095 828.379 857.359 C 816.821 852.954 810.812 851.268 799.042 848.845 z" fill="rgb(140,238,210)" transform="translate(0,0)"></path>
<path d="M 838.931 1065.96 C 839.362 1072.41 838.105 1085.45 840.731 1089.14 C 840.33 1095.22 839.454 1099.71 838.341 1105.73 C 837.999 1095.19 837.073 1076.09 838.931 1065.96 z" fill="rgb(152,238,222)" transform="translate(0,0)"></path>
<path d="M 867.838 1153.49 C 866.818 1147.45 866.143 1116.74 867.821 1111.64 C 869.239 1114.53 869.09 1115.32 868.767 1118.52 C 867.267 1127.69 868.013 1143.35 867.838 1153.49 z" fill="rgb(105,188,176)" transform="translate(0,0)"></path>
<path d="M 889.445 1039.33 C 891.104 1043.44 893.042 1047.09 892.995 1051.42 C 890.959 1049.91 889.304 1044.35 888.319 1041.58 L 889.445 1039.33 z" fill="rgb(105,188,176)" transform="translate(0,0)"></path>
<path d="M 901.228 1190.57 C 899.807 1185.3 898.907 1178.99 897.989 1173.53 C 899.953 1178.93 901.778 1184.59 903.616 1190.04 L 901.228 1190.57 z" fill="rgb(6,18,27)" transform="translate(0,0)"></path>
<path d="M 892.083 845.053 C 895.526 842.784 897.77 841.578 902.068 842.377 C 905.332 843 908.192 844.948 909.966 847.758 C 919.662 863.217 885.515 869.297 886.878 850.381 C 888.738 847.45 887.826 848.015 890.601 846.629 L 892.083 845.053 z" fill="rgb(6,18,27)" transform="translate(0,0)"></path>
<path d="M 892.083 845.053 C 895.763 844.893 898.345 844.29 901.313 846.216 L 901.752 847.804 C 897.739 850.536 894.574 849.368 890.601 846.629 L 892.083 845.053 z" fill="rgb(152,238,222)" transform="translate(0,0)"></path>
<path d="M 851.732 1239.93 C 834.097 1215.86 820.639 1189.03 807.113 1162.64 C 778.957 1108.01 760.412 1048.31 772.468 986.595 C 775.79 969.588 780.092 951.903 786.86 935.889 C 791.279 926.015 796.695 918.792 805.556 912.406 C 822.001 900.554 859.18 895.372 862.808 923.116 C 864.19 933.687 860.057 944.31 857.712 954.907 C 857.986 959.16 846.333 997.063 843.754 1003.59 C 840.171 1012.66 836.547 1038.67 833.673 1046.14 L 832.596 1044.35 C 827.401 1060.8 828.339 1083.35 829.432 1100.39 C 830.242 1113.02 837.917 1118.96 839.751 1127.76 C 849.461 1174.35 857.709 1221.09 879.871 1264 C 882.477 1268.93 885.17 1273.82 887.947 1278.65 C 878.229 1269.35 872.624 1264.81 865.67 1253.18 C 863.476 1252.88 863.327 1252.62 861.324 1251.59 C 857.927 1249.79 854.047 1243.3 851.732 1239.93 z" fill="rgb(140,238,210)" transform="translate(0,0)"></path>
<path d="M 857.712 954.907 C 857.986 959.16 846.333 997.063 843.754 1003.59 C 840.171 1012.66 836.547 1038.67 833.673 1046.14 L 832.596 1044.35 C 834.418 1025.58 847.698 983.457 853.979 964.947 C 818.636 1005.41 797.703 1033.18 795.533 1089.92 C 779.731 1048.24 781.459 991.285 810.825 956.118 C 796.137 986.391 789.251 1014.26 793.245 1048.15 C 803.294 1014.18 813.828 999.31 839.246 974.432 C 846.354 967.475 852.911 963.788 857.712 954.907 z" fill="rgb(6,18,27)" transform="translate(0,0)"></path>
<path d="M 822.931 1144.49 C 835.649 1182.26 847.498 1217.53 865.67 1253.18 C 863.476 1252.88 863.327 1252.62 861.324 1251.59 C 857.927 1249.79 854.047 1243.3 851.732 1239.93 L 855.204 1238.76 C 841.752 1209.75 831.427 1177.04 821.625 1146.59 L 822.931 1144.49 z" fill="rgb(6,18,27)" transform="translate(0,0)"></path>
<path d="M 855.204 1238.76 L 861.324 1251.59 C 857.927 1249.79 854.047 1243.3 851.732 1239.93 L 855.204 1238.76 z" fill="rgb(128,208,198)" transform="translate(0,0)"></path>
<path d="M 821.625 1146.59 C 819.188 1138.45 818.078 1134.32 816.729 1125.73 C 818.9 1131.95 820.967 1138.2 822.931 1144.49 L 821.625 1146.59 z" fill="rgb(59,101,101)" transform="translate(0,0)"></path>
<path d="M 982.307 1342.2 C 987.185 1343.4 992.078 1344.53 996.986 1345.6 C 1003.05 1354.13 1009.02 1364.34 1014.98 1373.19 C 1026.26 1389.98 1038.47 1406.14 1051.53 1421.58 C 1064.9 1437.55 1084.01 1454.43 1095.26 1466.5 C 1112.36 1484.85 1127.48 1550.93 1132.35 1575.67 C 1126.49 1562.57 1114.53 1529.24 1108.31 1518.76 C 1111.53 1532.67 1118.27 1549.53 1122.59 1563.56 C 1127.72 1580.23 1130.08 1592.48 1133.05 1609.72 C 1110.67 1568.97 1094.23 1520.11 1077.66 1476.1 C 1077.76 1481.94 1087.58 1510.78 1089.93 1518.19 C 1094.25 1532.35 1099.53 1548.49 1103.1 1562.72 C 1106.05 1574.52 1108.39 1588.24 1111.11 1600.46 C 1081.93 1563.88 1083.3 1544.79 1065.74 1503.62 C 1065.84 1508.14 1072.64 1531.57 1074.08 1536.93 C 1077.85 1551.06 1080.21 1561.88 1082.36 1576.41 C 1063.93 1553.55 1054.81 1534.1 1046.4 1506 C 1043.55 1496.48 1040.38 1483.68 1036.98 1474.73 L 1036.52 1473.54 C 1039 1494.16 1044.78 1513.14 1048.09 1533.69 C 1022.12 1481.64 997.016 1400.2 982.307 1342.2 z" fill="rgb(140,238,210)" transform="translate(0,0)"></path>
<path d="M 852.928 1168.78 C 857.736 1173.09 881.124 1216.54 886.281 1224.66 C 905.666 1255.2 926.725 1281.76 952.404 1307.54 C 961.871 1317.05 973.44 1328.55 985.161 1335.2 C 966.955 1332.83 908.037 1297.63 898.031 1283.65 C 878.662 1256.59 858.893 1201.44 852.928 1168.78 z" fill="rgb(140,238,210)" transform="translate(0,0)"></path>
<path d="M 833.075 1356.24 C 855.466 1354.29 883.405 1370.72 903.572 1380.87 C 887.529 1383.47 884.766 1383.18 869.768 1390 C 868.727 1390.64 867.734 1391.36 866.794 1392.14 C 862.694 1395.57 863.187 1399.3 862.819 1404.74 C 847.069 1392.03 832.298 1384.61 814.703 1374.75 C 819.692 1365.57 823.976 1360.99 833.075 1356.24 z" fill="rgb(140,238,210)" transform="translate(0,0)"></path>
<path d="M 626.051 1028.15 L 628.165 1028.5 C 627.405 1032.79 622.051 1038.69 619.201 1041.95 C 600.672 1063.08 581.547 1073.8 553.577 1066.64 C 550.324 1065.04 550.091 1064.95 547.499 1062.48 L 547.55 1060.52 C 555.318 1050.65 612.232 1031.55 626.051 1028.15 z" fill="rgb(140,238,210)" transform="translate(0,0)"></path>
<path d="M 647.74 931.764 C 649.665 955.228 630.098 989.633 606.058 994.322 C 602.636 994.989 598.68 995.155 595.194 995.235 C 592.51 985.138 639.851 939.319 647.74 931.764 z" fill="rgb(140,238,210)" transform="translate(0,0)"></path>
<path d="M 712.874 386.95 C 713.158 389.43 711.661 392.647 710.597 395.015 C 696.604 426.174 674.179 430.044 647.522 440.946 L 647.326 438.595 C 660.038 411.751 687.619 399.535 712.874 386.95 z" fill="rgb(140,238,210)" transform="translate(0,0)"></path>
<path d="M 886.75 1285.93 C 889.757 1287.53 890.72 1287.73 892.542 1290.45 C 892.298 1294.63 863.757 1331.9 859.261 1340.29 L 858.668 1341.42 C 868.345 1345.82 870.47 1347.53 877.773 1355.37 C 860.561 1347.58 842.444 1342.43 824.752 1352.11 C 812.942 1358.57 813.357 1361.46 805.458 1370.34 L 803.847 1370.37 L 802.138 1368.53 C 802.741 1364.95 804.261 1363.63 806.538 1360.8 C 810.872 1357.09 815.475 1353.83 819.845 1349.94 C 816.649 1348.53 806.878 1350.8 803.939 1352.96 C 800.262 1355.66 796.196 1361.44 791.653 1362.41 L 790.669 1361.13 C 791.398 1342.47 836.317 1340.13 850.304 1339.77 C 862.984 1324.4 876.731 1303.02 886.75 1285.93 z" fill="rgb(140,238,210)" transform="translate(0,0)"></path>
<path d="M 1222.98 1481.43 C 1248.84 1510.6 1237.91 1538.95 1221.97 1568.94 C 1208.14 1594.99 1194.51 1615.6 1172.23 1635.31 L 1172.07 1632.71 C 1188.92 1616.9 1225.62 1570.78 1224.02 1548.55 C 1222.61 1529.09 1223.76 1501 1222.98 1481.43 z" fill="rgb(140,238,210)" transform="translate(0,0)"></path>
<path d="M 618.6 465.053 C 648.577 475.019 667.513 489.465 688.354 512.176 C 681.208 512.103 669.028 509.768 662.269 507.388 C 637.079 498.518 629.669 487.187 618.6 465.053 z" fill="rgb(140,238,210)" transform="translate(0,0)"></path>
<path d="M 533.219 951.464 C 549.729 964.577 540.862 1012.21 530.307 1027.34 L 528.741 1024.35 C 513.113 994.139 523.411 982.223 533.219 951.464 z" fill="rgb(140,238,210)" transform="translate(0,0)"></path>
<path d="M 941.527 1327.23 L 950.198 1332.02 C 939.927 1349.23 930.66 1365.06 921.952 1383.24 C 926.338 1385.87 935.626 1390.59 934.837 1396.66 C 925.322 1393.3 927.681 1384.78 907.028 1392.85 C 895.877 1397.21 888.612 1409.99 886.206 1410.77 L 884.473 1408.75 C 883.727 1412.23 883.605 1414.01 883.39 1417.57 L 883.588 1419.41 L 882.224 1419.64 C 879.057 1416.98 880.077 1418.33 878.539 1414.22 C 878.766 1410.47 879.121 1410.04 881.338 1406.97 C 886.166 1402.91 893.73 1396.95 898.065 1392.72 C 881.305 1396.81 878.459 1394.7 871.466 1410.79 C 862.117 1404.74 873.264 1392.84 882.225 1390.91 C 892.573 1388.68 903.294 1386.75 913.473 1384.04 C 923.448 1366.26 935.319 1346.46 941.527 1327.23 z" fill="rgb(140,238,210)" transform="translate(0,0)"></path>
<path d="M 593.862 1094.13 C 594.373 1094.2 595.264 1094.72 595.793 1094.97 C 594.839 1098.7 584.947 1108.8 581.75 1111.54 C 564.245 1126.58 554.905 1132.42 532.39 1131.65 L 530.248 1130.59 L 530.089 1128.67 C 542.259 1107.67 570.994 1100.69 593.862 1094.13 z" fill="rgb(140,238,210)" transform="translate(0,0)"></path>
<path d="M 547.326 479.431 C 552.338 480.891 558.09 483.91 562.818 486.285 C 588.471 499.171 599.144 511.501 613.427 535.312 C 574.535 520.305 569.515 512.695 547.326 479.431 z" fill="rgb(140,238,210)" transform="translate(0,0)"></path>
<path d="M 630.084 390.061 L 630.751 390.745 C 630.752 391.655 630.796 392.754 630.457 393.602 C 619.136 421.971 603.352 431.686 579.247 445.042 L 578.228 443.509 C 584.752 411.303 605.325 404.679 630.084 390.061 z" fill="rgb(140,238,210)" transform="translate(0,0)"></path>
<path d="M 422.39 658.702 C 424.298 662.874 419.979 680.53 418.232 685.209 C 410.254 706.571 404.241 714.918 384.479 724.576 C 382.234 702.119 407.924 673.855 422.39 658.702 z" fill="rgb(140,238,210)" transform="translate(0,0)"></path>
<path d="M 485.411 1024.6 C 489.573 1035.55 499.696 1091.62 490.591 1098.67 L 488.892 1097.47 C 472.107 1071.22 469.539 1052.66 485.411 1024.6 z" fill="rgb(140,238,210)" transform="translate(0,0)"></path>
<path d="M 445.692 763.412 C 448.265 762.995 448.913 763.169 451.42 763.467 C 448.958 769.844 418.629 787.071 411.705 789.155 C 406.484 790.727 394.768 790.873 388.839 790.794 C 385.717 790.665 382.604 791.016 380.319 789.093 L 380.869 787.01 C 394.988 773.566 426.617 764.962 445.692 763.412 z" fill="rgb(140,238,210)" transform="translate(0,0)"></path>
<path d="M 549.2 868.293 C 568.949 888.894 583.72 908.524 576.743 937.979 L 574.695 938.511 C 555.877 914.527 553.142 898.254 549.2 868.293 z" fill="rgb(140,238,210)" transform="translate(0,0)"></path>
<path d="M 1129.63 1757.42 L 1140.95 1757.08 C 1114.54 1773.27 1103.55 1778.71 1072.25 1780.92 L 1058.02 1781.03 C 1079.04 1763.06 1102.66 1759.26 1129.63 1757.42 z" fill="rgb(140,238,210)" transform="translate(0,0)"></path>
<path d="M 367.971 819.194 C 378.384 818.517 387.428 818.885 397.809 819.433 C 385.978 828.484 381.607 832.425 367.79 838.417 C 361.45 840.424 347.126 843.144 342.264 837.489 C 341.371 826.806 359.513 820.951 367.971 819.194 z" fill="rgb(140,238,210)" transform="translate(0,0)"></path>
<path d="M 1232.73 1413.71 C 1242.2 1429.48 1253.2 1444.88 1254.92 1463.17 C 1255.61 1470.61 1255.8 1480.77 1257.27 1487.49 L 1257.51 1488.55 L 1256.03 1489.07 C 1235.24 1458.31 1237.56 1447.89 1232.73 1413.71 z" fill="rgb(140,238,210)" transform="translate(0,0)"></path>
<path d="M 495.567 435.709 C 498.144 441.824 499.575 461.179 497.502 468.109 C 494.088 479.52 490.21 483.272 480.821 489.112 C 472.393 468.526 484.547 452.386 495.567 435.709 z" fill="rgb(140,238,210)" transform="translate(0,0)"></path>
<path d="M 553.736 404.758 C 555.893 421.81 541.711 452.171 526.678 462.113 C 526.545 461.627 526.295 460.794 526.256 460.39 C 523.492 431.485 539.59 423.868 553.736 404.758 z" fill="rgb(140,238,210)" transform="translate(0,0)"></path>
<path d="M 345.23 724.627 C 345.438 725.204 345.695 725.842 345.86 726.678 C 351.954 757.601 346.583 762.837 332.53 787.289 C 332.14 786.682 331.765 786.179 331.617 785.461 C 327.054 763.313 334.171 742.592 345.23 724.627 z" fill="rgb(140,238,210)" transform="translate(0,0)"></path>
<path d="M 493.442 508.52 C 505.04 507.79 511.962 507.042 523.174 511.841 C 530.499 514.976 542.19 526.681 544.625 533.541 L 543.55 533.826 C 539.682 532.176 535.638 531.222 531.502 530.521 C 515.894 527.875 502.301 521.421 491.422 509.577 L 493.442 508.52 z" fill="rgb(140,238,210)" transform="translate(0,0)"></path>
<path d="M 1220.36 1598.9 C 1227.36 1582.25 1246.49 1565.2 1251.87 1546.12 C 1252.68 1543.24 1260.72 1520.58 1261.1 1520.12 C 1257.61 1542.87 1237.21 1584.15 1220.36 1598.9 z" fill="rgb(81,147,143)" transform="translate(0,0)"></path>
<path d="M 913.23 320.682 C 915.157 320.337 917.118 321.069 918.348 322.592 C 919.578 324.115 919.88 326.187 919.138 327.998 C 918.395 329.808 916.724 331.071 914.779 331.291 C 911.902 331.617 909.286 329.601 908.868 326.737 C 908.449 323.872 910.38 321.192 913.23 320.682 z" fill="rgb(140,238,210)" transform="translate(0,0)"></path>
<path d="M 1205.96 683.602 C 1207.69 682.819 1209.71 683.03 1211.24 684.154 C 1212.77 685.278 1213.58 687.14 1213.35 689.024 C 1213.12 690.908 1211.89 692.522 1210.13 693.245 C 1207.48 694.336 1204.45 693.102 1203.31 690.471 C 1202.17 687.841 1203.35 684.784 1205.96 683.602 z" fill="rgb(140,238,210)" transform="translate(0,0)"></path>
<path d="M 1130.85 715.416 C 1132.67 714.773 1134.68 715.179 1136.11 716.473 C 1137.53 717.766 1138.13 719.738 1137.66 721.603 C 1137.19 723.468 1135.73 724.924 1133.87 725.391 C 1131.17 726.068 1128.41 724.505 1127.6 721.84 C 1126.8 719.175 1128.23 716.347 1130.85 715.416 z" fill="rgb(140,238,210)" transform="translate(0,0)"></path>
<path d="M 866.034 389.47 C 868.597 388.392 871.555 389.521 872.747 392.033 C 873.94 394.544 872.945 397.55 870.49 398.854 C 868.8 399.752 866.754 399.649 865.163 398.586 C 863.571 397.524 862.693 395.673 862.875 393.768 C 863.057 391.863 864.271 390.212 866.034 389.47 z" fill="rgb(140,238,210)" transform="translate(0,0)"></path>
<path d="M 862.276 560.103 C 865.036 559.876 867.485 561.865 867.829 564.614 C 868.174 567.362 866.292 569.893 863.561 570.355 C 861.687 570.672 859.79 569.936 858.621 568.438 C 857.452 566.939 857.199 564.921 857.962 563.18 C 858.725 561.44 860.382 560.258 862.276 560.103 z" fill="rgb(140,238,210)" transform="translate(0,0)"></path>
<path d="M 849.914 473.623 C 852.637 472.999 855.362 474.66 856.053 477.367 C 856.745 480.075 855.151 482.839 852.462 483.597 C 850.662 484.104 848.729 483.596 847.411 482.27 C 846.094 480.943 845.599 479.006 846.119 477.21 C 846.639 475.414 848.092 474.041 849.914 473.623 z" fill="rgb(140,238,210)" transform="translate(0,0)"></path>
<path d="M 1143.49 258.611 C 1145.68 256.809 1148.92 257.121 1150.72 259.308 C 1152.53 261.495 1152.22 264.731 1150.03 266.54 C 1147.85 268.352 1144.6 268.045 1142.79 265.853 C 1140.98 263.661 1141.3 260.416 1143.49 258.611 z" fill="rgb(140,238,210)" transform="translate(0,0)"></path>
<path d="M 965.334 691.586 C 967.791 690.274 970.847 691.161 972.22 693.585 C 973.593 696.009 972.783 699.086 970.394 700.519 C 968.795 701.478 966.801 701.495 965.185 700.563 C 963.57 699.63 962.587 697.895 962.618 696.031 C 962.649 694.166 963.688 692.464 965.334 691.586 z" fill="rgb(140,238,210)" transform="translate(0,0)"></path>
<path d="M 903.13 634.454 C 905.637 633.486 908.465 634.621 909.607 637.053 C 910.749 639.485 909.816 642.387 907.47 643.697 C 905.799 644.631 903.745 644.554 902.149 643.497 C 900.552 642.44 899.679 640.58 899.885 638.676 C 900.092 636.773 901.344 635.143 903.13 634.454 z" fill="rgb(140,238,210)" transform="translate(0,0)"></path>
<path d="M 1261.71 623.579 C 1263.33 622.581 1265.36 622.566 1266.99 623.542 C 1268.62 624.518 1269.58 626.32 1269.46 628.217 C 1269.35 630.113 1268.18 631.787 1266.45 632.558 C 1264 633.644 1261.13 632.649 1259.88 630.282 C 1258.63 627.915 1259.43 624.985 1261.71 623.579 z" fill="rgb(140,238,210)" transform="translate(0,0)"></path>
<path d="M 1293.42 392.422 C 1296.11 391.966 1298.68 393.707 1299.25 396.371 C 1299.82 399.035 1298.19 401.677 1295.55 402.365 C 1293.74 402.836 1291.82 402.277 1290.55 400.907 C 1289.27 399.538 1288.85 397.579 1289.45 395.807 C 1290.05 394.035 1291.58 392.735 1293.42 392.422 z" fill="rgb(140,238,210)" transform="translate(0,0)"></path>
<path d="M 1045.58 714.646 C 1047.98 713.542 1050.82 714.485 1052.09 716.805 C 1053.36 719.124 1052.61 722.028 1050.38 723.451 C 1048.8 724.463 1046.79 724.508 1045.16 723.567 C 1043.53 722.625 1042.57 720.856 1042.65 718.979 C 1042.74 717.102 1043.87 715.43 1045.58 714.646 z" fill="rgb(140,238,210)" transform="translate(0,0)"></path>
<path d="M 1060.97 251.455 C 1063.52 250.99 1066.01 252.567 1066.67 255.077 C 1067.33 257.587 1065.95 260.185 1063.5 261.042 C 1061.74 261.659 1059.78 261.235 1058.43 259.943 C 1057.07 258.651 1056.56 256.711 1057.1 254.92 C 1057.64 253.129 1059.13 251.79 1060.97 251.455 z" fill="rgb(140,238,210)" transform="translate(0,0)"></path>
<path d="M 1307.94 472.37 C 1310.48 471.449 1313.28 472.718 1314.27 475.229 C 1315.25 477.741 1314.06 480.58 1311.57 481.627 C 1309.9 482.328 1307.99 482.072 1306.57 480.957 C 1305.15 479.842 1304.44 478.043 1304.73 476.26 C 1305.01 474.476 1306.24 472.987 1307.94 472.37 z" fill="rgb(140,238,210)" transform="translate(0,0)"></path>
<path d="M 979.165 271.512 C 980.656 270.519 982.567 270.41 984.161 271.228 C 985.755 272.045 986.782 273.661 986.846 275.451 C 986.909 277.241 986 278.925 984.468 279.854 C 982.169 281.249 979.176 280.549 977.733 278.279 C 976.29 276.009 976.926 273.002 979.165 271.512 z" fill="rgb(152,238,222)" transform="translate(0,0)"></path>
<path d="M 574.695 938.511 L 576.743 937.979 C 581.358 952.421 580.988 961.152 578.113 975.997 C 578.039 963.702 578.583 950.228 574.695 938.511 z" fill="rgb(152,238,222)" transform="translate(0,0)"></path>
<path d="M 1300.36 551.618 C 1302.88 550.862 1305.54 552.243 1306.38 554.738 C 1307.22 557.233 1305.92 559.94 1303.45 560.854 C 1301.78 561.471 1299.91 561.131 1298.57 559.968 C 1297.23 558.805 1296.62 557.002 1297 555.264 C 1297.37 553.526 1298.66 552.129 1300.36 551.618 z" fill="rgb(140,238,210)" transform="translate(0,0)"></path>
<path d="M 1172.07 1632.71 L 1172.23 1635.31 C 1167.99 1639.37 1162.53 1644.97 1157.17 1647.22 C 1160.18 1642.93 1167.89 1636.47 1172.07 1632.71 z" fill="rgb(105,188,176)" transform="translate(0,0)"></path>
<path d="M 1213.2 1607.89 C 1214.14 1604.65 1217.11 1600.23 1220.36 1598.9 L 1220.26 1600.53 C 1217.81 1604.65 1216.97 1605.14 1213.2 1607.89 z" fill="rgb(26,61,61)" transform="translate(0,0)"></path>
<path d="M 1257.51 1488.55 C 1258.97 1491.72 1260.58 1494.15 1260.23 1497.5 C 1258.05 1495.88 1256.82 1491.81 1256.03 1489.07 L 1257.51 1488.55 z" fill="rgb(59,101,101)" transform="translate(0,0)"></path>
<path d="M 1009.42 866.002 L 1018.51 865.844 L 1017.01 868.055 C 1014.32 868.357 1011.29 868.615 1008.68 869.183 L 1009.42 866.002 z" fill="rgb(152,238,222)" transform="translate(0,0)"></path>
<path d="M 958.367 837.119 C 960.702 837.165 963.338 836.778 964.89 837.945 C 961.513 839.326 960.98 839.4 957.333 839.969 L 958.367 837.119 z" fill="rgb(128,208,198)" transform="translate(0,0)"></path>
<path d="M 1018.51 865.844 L 1024.45 866.219 L 1024.86 866.691 C 1022.41 867.21 1019.45 867.949 1017.01 868.055 L 1018.51 865.844 z" fill="rgb(81,147,143)" transform="translate(0,0)"></path>
<path d="M 364.94 171.994 L 559.81 171.711 C 524.96 223.31 494.207 255.62 443.756 293.496 C 418.119 312.743 390.748 329.547 366.064 349.7 C 207.43 479.214 183.149 699.912 221.978 888.987 C 234.059 947.817 257.804 1022.88 293.139 1072.53 C 292.702 1134.21 293.213 1198.33 291.889 1259.77 C 252.254 1196.66 246.919 1153.25 236.866 1082.75 C 236.257 1088.11 235.911 1099.03 235.099 1103.03 L 234.42 1092 L 233.151 1091.09 C 219.47 1109.68 220.549 1154.33 224.044 1177.13 C 235.869 1254.92 278.156 1324.82 341.578 1371.4 C 400.606 1414.47 473.887 1441.53 542.43 1465.47 C 634.402 1497.59 713.618 1543.48 773.824 1622.07 C 825.579 1689.64 865.806 1793.95 822.184 1875.2 C 806.85 1875.21 791.222 1875.08 775.913 1875.25 C 804.649 1833.33 804.246 1788.64 771.28 1748.86 C 762.244 1737.96 751.509 1729.32 741.099 1719.85 C 729.357 1709.03 705.155 1689.46 716.938 1671.56 C 719.904 1667.03 726.616 1663.21 731.943 1662.62 C 747.494 1659.98 770.224 1676.67 756.628 1692.68 C 751.82 1698.34 741.877 1696.45 740.288 1698.89 C 760.482 1712.03 778.08 1676.27 749.197 1662.26 C 741.87 1658.63 733.37 1658.21 725.717 1661.08 C 719.317 1663.57 714.258 1668.63 711.776 1675.03 C 701.243 1702.1 750.313 1733.3 764.938 1751.27 C 775.785 1764.6 783.036 1775.32 786.916 1792.43 C 790.154 1807.34 789.29 1822.85 784.414 1837.3 C 779.093 1853.28 771.027 1862.62 760.548 1875.15 C 736.229 1875.16 710.857 1874.8 686.625 1875.28 C 712.126 1816.92 698.706 1765.72 664.542 1715.19 C 661.982 1711.4 650.123 1697.25 649.068 1694.24 C 634.251 1652.11 633.236 1602.25 640.106 1558.46 C 642.322 1544.34 645.962 1533.14 648.465 1520.7 C 627.351 1574.14 625.936 1623.86 634.678 1680.18 C 585.317 1623.03 532.638 1600.06 458.081 1587.11 C 422.834 1581 407.635 1584.26 373.542 1562.8 C 337.277 1539.98 308.929 1507.78 282.98 1474.02 C 274.668 1463.2 272.831 1452.85 261.887 1441.5 C 246.764 1425.81 232.776 1416.81 214.502 1405.46 C 233.205 1438.12 243.335 1451.67 275.781 1469.37 C 280.577 1471.98 296.434 1496.4 302.202 1501.52 C 324.036 1528.13 347.44 1551.4 377.19 1569.23 C 385.871 1574.43 392.295 1576.88 400.661 1581.26 C 343.08 1576.51 226.032 1576.97 186.604 1530.75 C 184.968 1528.85 183.45 1526.85 182.057 1524.76 L 181.9 748.469 L 181.478 476.281 C 181.526 434.864 180.671 393.836 181.935 352.398 C 196.304 354.525 208.373 356.282 222.906 355.549 C 317.315 350.788 384.522 263.724 364.94 171.994 z" fill="rgb(13,37,45)" transform="translate(0,0)"></path>
<path d="M 431.847 226.72 C 435.788 230.196 438.567 247.1 438.957 252.561 C 440.092 268.44 436.671 287.103 426.005 299.445 C 410.258 272.813 417.767 251.222 431.847 226.72 z" fill="rgb(140,238,210)" transform="translate(0,0)"></path>
<path d="M 313.037 1447.67 C 322.498 1453.27 343.924 1488.03 344.703 1499.53 C 345.009 1504.04 344.429 1514.78 344.904 1520.81 L 344.549 1520.81 C 342.817 1516.84 341.655 1514.22 338.465 1511.19 C 320.017 1493.67 316.704 1471.55 313.037 1447.67 z" fill="rgb(140,238,210)" transform="translate(0,0)"></path>
<path d="M 233.33 1480.25 C 250.721 1483.95 264.06 1486.45 279.731 1495.73 C 287.485 1500.33 294.95 1506.06 302.256 1510.28 L 303.135 1510.78 C 273.542 1513.43 253.872 1500.87 233.33 1480.25 z" fill="rgb(140,238,210)" transform="translate(0,0)"></path>
<path d="M 375.133 1493.59 C 376.929 1494.81 382.544 1504.14 383.732 1506.51 C 393.103 1525.17 395.313 1534.3 390.03 1553.75 L 388.68 1554.64 C 372.323 1532.74 372.942 1520.14 375.133 1493.59 z" fill="rgb(140,238,210)" transform="translate(0,0)"></path>
<path d="M 487.473 194.617 C 501.72 208.046 488.407 238.063 480.342 251.154 C 470.34 227.094 473.456 216.244 487.473 194.617 z" fill="rgb(140,238,210)" transform="translate(0,0)"></path>
<path d="M 662.298 1649.56 C 674.237 1651.22 673.2 1662.32 666.194 1669.7 C 664.018 1669.24 661.794 1668.9 660.17 1667.33 C 658.365 1665.57 657.344 1663.16 657.337 1660.64 C 657.296 1655.76 659.173 1652.92 662.298 1649.56 z" fill="rgb(140,238,210)" transform="translate(0,0)"></path>
<path d="M 604.003 1602.45 C 615.856 1605.01 616.295 1613.91 607.82 1621.36 C 595.891 1618.29 598.315 1610.2 604.003 1602.45 z" fill="rgb(140,238,210)" transform="translate(0,0)"></path>
<path d="M 657.289 1602.31 C 667.004 1606.19 665.79 1615.66 659.566 1622.42 C 648.047 1618.74 650.173 1609.49 657.289 1602.31 z" fill="rgb(140,238,210)" transform="translate(0,0)"></path>
<path d="M 263.599 1133.38 C 270.661 1134.23 279.126 1141.42 274.723 1148.44 C 269.091 1146.75 264.875 1146.15 261.943 1141.01 C 261.402 1137.21 261.735 1136.97 263.599 1133.38 z" fill="rgb(140,238,210)" transform="translate(0,0)"></path>
<path d="M 261.529 1151.16 C 266.295 1150.65 268.602 1150.24 272.428 1152.92 C 274.442 1156.13 274.344 1156.48 274.812 1160.36 C 269.237 1160.11 263.056 1156.84 261.529 1151.16 z" fill="rgb(140,238,210)" transform="translate(0,0)"></path>
<path d="M 594.703 1568.45 C 595.947 1567.45 597.648 1567.23 599.109 1567.88 C 600.57 1568.52 601.545 1569.94 601.634 1571.53 C 601.723 1573.13 600.912 1574.64 599.533 1575.45 C 597.609 1576.57 595.141 1576.03 593.874 1574.19 C 592.607 1572.36 592.968 1569.86 594.703 1568.45 z" fill="rgb(152,238,222)" transform="translate(0,0)"></path>
<path d="M 201.725 74.3812 C 215.335 72.6612 242.63 73.7867 256.346 76.3097 C 289.099 82.4299 318.124 101.2 337.143 128.558 C 390.184 206.463 345.657 312.257 259.031 339.744 C 229.637 349.071 202.448 346.765 172.788 340.835 L 172.587 1148.09 L 172.64 1587.7 C 172.769 1628 171.967 1668.61 172.457 1708.82 C 187.638 1704.6 200.887 1702.22 216.916 1702.51 C 257.268 1703.15 295.743 1719.67 323.997 1748.48 C 364.121 1789.94 372.559 1847.65 348.114 1899.49 C 340.272 1916.12 330.648 1926.77 317.559 1939.1 C 309.62 1946.5 300.705 1952.77 291.062 1957.75 C 203.725 2003.05 83.8622 1948.07 77.7625 1845 C 74.2367 1785.42 106.405 1740.04 158.682 1714.19 C 158.069 1697.92 158.536 1678.35 158.528 1661.84 L 158.466 1561.38 L 158.643 1225.19 L 158.212 335.395 C 146.733 329.679 136.489 324.213 126.345 316.23 C 98.5783 294.715 80.5441 263.011 76.2422 228.15 C 67.2011 150.723 125.403 83.4211 201.725 74.3812 z" fill="rgb(13,37,45)" transform="translate(0,0)"></path>
<path d="M 105.375 154.581 C 107.442 156.453 116.849 171.752 119.128 175.269 C 136.926 202.555 153.567 230.577 169.007 259.263 C 182.16 283.382 194.228 307.442 208.243 331.286 L 193.766 329.769 C 181.469 328.119 169.504 324.562 158.304 319.224 C 129.051 305.438 106.468 280.601 95.5185 250.172 C 83.0587 214.573 89.6277 186.864 105.375 154.581 z" fill="rgb(140,238,210)" transform="translate(0,0)"></path>
<path d="M 207.205 1717.42 L 211.119 1717.3 L 211.809 1718.4 C 207.712 1728.87 199.906 1740.5 194.591 1750.65 C 169.703 1798.18 138.117 1841.21 102.545 1881.26 C 101.851 1881.35 101.158 1881.44 100.464 1881.54 C 96.2664 1871.62 93.6072 1861.12 92.5781 1850.4 C 89.2739 1818.6 98.7399 1786.79 118.894 1761.96 C 140.813 1735.41 173.229 1720.46 207.205 1717.42 z" fill="rgb(140,238,210)" transform="translate(0,0)"></path>
<path d="M 345.683 1851.04 C 346.491 1851.72 346.722 1852.36 346.888 1853.45 C 347.337 1856.4 345.991 1861.45 345.393 1864.41 C 340.789 1886.15 330.13 1906.14 314.647 1922.08 C 291.294 1946.37 259.598 1958.51 226.245 1959.18 L 225.573 1958.34 C 227.091 1948.34 258.498 1893.24 265.301 1880.96 C 289.212 1874.19 322.176 1860.6 345.683 1851.04 z" fill="rgb(140,238,210)" transform="translate(0,0)"></path>
<path d="M 224.222 87.7899 C 288.658 88.5657 331.468 121.669 344.505 185.57 C 343.624 186.731 342.264 188.404 341.525 189.583 C 320.113 182.022 280.607 168.804 259.358 163.802 C 247.736 140.453 234.468 111.623 224.222 87.7899 z" fill="rgb(140,238,210)" transform="translate(0,0)"></path>
<path d="M 238.788 1789.13 L 240.432 1789.26 C 248.922 1798.09 259.549 1823.5 265.503 1835.28 C 260.596 1845.89 256.023 1857.83 248.289 1866.73 C 237.115 1879.59 221.557 1884.16 205.107 1885.32 L 195.08 1885.54 C 191.629 1879.24 188.604 1872.39 185.99 1865.71 C 177.609 1844.28 177.785 1827.7 186.997 1806.66 C 203.753 1799.81 221.574 1794.73 238.788 1789.13 z" fill="rgb(140,238,210)" transform="translate(0,0)"></path>
<path d="M 193.199 164.674 C 205.926 168.53 218.903 168.527 232.224 175.03 C 250.004 183.709 256.034 196.725 262.305 214.528 C 254.564 226.894 249.014 233.82 239.121 244.521 C 228.927 255.499 212.415 251.643 200.358 246.125 C 161.803 228.478 182.319 189.371 193.199 164.674 z" fill="rgb(140,238,210)" transform="translate(0,0)"></path>
<path d="M 107.678 1895.94 C 133.775 1897.07 159.89 1897.73 186.011 1897.93 C 193.644 1918.26 202.254 1938.29 210.309 1958.47 C 206.851 1957.85 203.398 1957.21 199.947 1956.56 C 160.483 1949 130.268 1929.27 107.678 1895.94 z" fill="rgb(140,238,210)" transform="translate(0,0)"></path>
<path d="M 203.174 87.4322 C 204.674 87.4079 204.089 87.4757 205.756 88.5367 C 210.609 103.828 193.933 131.187 186.665 146.252 C 163.786 143.718 140.744 142.984 117.75 144.055 C 115.19 144.234 115.233 144.362 112.821 143.613 L 112.225 141.845 C 112.938 138.369 115.269 135.205 117.612 132.564 C 139.984 107.346 169.355 90.3213 203.174 87.4322 z" fill="rgb(140,238,210)" transform="translate(0,0)"></path>
<path d="M 220.634 1717.67 C 256.605 1719.95 286.856 1731.68 312.056 1758.26 L 299.081 1761.35 C 282.72 1764.97 264.825 1769.89 248.782 1774.5 C 239.571 1758.26 228.975 1734.91 220.634 1717.67 z" fill="rgb(140,238,210)" transform="translate(0,0)"></path>
<path d="M 249.045 273.445 C 261.873 278.476 295.909 292.854 307.482 294.393 C 295.001 306.218 286.743 312.379 271.73 320.028 C 252.769 328.374 243.274 329.998 223.017 332.188 C 229.725 315.044 240.692 289.252 249.045 273.445 z" fill="rgb(140,238,210)" transform="translate(0,0)"></path>
<path d="M 341.993 205.213 L 345.01 205.136 L 346.006 206.877 C 345.906 234.579 333.383 263.705 315.008 284.175 C 313.429 278.627 311.113 273.063 308.998 267.673 C 302.495 252.556 295.847 237.502 289.053 222.514 C 303.616 217.03 327.163 208.742 341.993 205.213 z" fill="rgb(140,238,210)" transform="translate(0,0)"></path>
<path d="M 176.581 1802.83 C 177.092 1806.27 173.18 1812.33 171.713 1815.62 C 161.467 1838.54 172.672 1864.14 180.917 1885.69 L 131.891 1884.87 L 116.828 1884.28 C 126.241 1870.15 137.754 1857.03 148.102 1843.55 C 158.23 1830.36 167.338 1816.63 176.581 1802.83 z" fill="rgb(140,238,210)" transform="translate(0,0)"></path>
<path d="M 320.488 1767.51 C 337.947 1782.39 346.586 1817.93 347.23 1840.11 C 342.065 1837.35 336.141 1834.56 330.846 1831.92 L 296.919 1815.93 C 304.487 1800.26 311.526 1782.26 320.488 1767.51 z" fill="rgb(140,238,210)" transform="translate(0,0)"></path>
<path d="M 133.576 156.381 C 148.709 155.189 164.774 156.917 179.721 159.148 C 172.119 176.696 166.233 198.217 164.807 217.239 C 164.94 218.313 164.829 220.171 164.804 221.322 L 163.718 221.056 C 158.113 212.71 125.698 164.446 124.422 158.49 C 126.825 156.319 130.101 156.633 133.576 156.381 z" fill="rgb(140,238,210)" transform="translate(0,0)"></path>
<path d="M 181.422 252.428 C 195.026 256.468 223.259 268.067 235.511 274.128 L 222.241 302.116 L 214.197 317.236 C 203.991 295.343 191.363 274.187 181.422 252.428 z" fill="rgb(140,238,210)" transform="translate(0,0)"></path>
<path d="M 216.195 1734.8 C 222.771 1747.36 229.846 1764.33 235.777 1777.51 C 223.11 1781.2 212.202 1784.57 199.795 1789 L 184 1794.5 C 188.57 1782.44 208.843 1748.57 216.195 1734.8 z" fill="rgb(140,238,210)" transform="translate(0,0)"></path>
<path d="M 246.852 1885.12 L 247.241 1885.8 C 246.401 1890.84 222.674 1935.1 218.235 1944.38 L 213.015 1931.2 C 208.279 1919.99 203.734 1908.78 199.627 1897.32 C 217.372 1896.65 230.764 1892.08 246.852 1885.12 z" fill="rgb(140,238,210)" transform="translate(0,0)"></path>
<path d="M 277.415 228.782 C 281.535 231.513 296.609 272.278 299.466 279.472 C 294.963 277.59 289.903 275.754 285.311 273.975 C 275.136 270.528 264.882 267.261 255.037 262.974 C 260.662 246.104 263.316 238.925 277.415 228.782 z" fill="rgb(140,238,210)" transform="translate(0,0)"></path>
<path d="M 302.307 1772.19 L 303.089 1772.31 C 304.023 1775.23 289.188 1804.48 286.576 1810.18 C 279.963 1806.42 274.834 1802.97 268.584 1798.73 C 262.102 1793.92 258.724 1790.82 254.005 1784.36 C 270.027 1780 286.131 1775.94 302.307 1772.19 z" fill="rgb(140,238,210)" transform="translate(0,0)"></path>
<path d="M 292.178 1826.76 C 304.707 1832.35 317.07 1838.31 329.251 1844.63 C 320.688 1848.62 311.541 1851.67 302.686 1854.98 C 293.423 1858.76 284.066 1862.31 274.625 1865.62 C 279.44 1852.4 286.259 1839.53 292.178 1826.76 z" fill="rgb(140,238,210)" transform="translate(0,0)"></path>
<path d="M 218.443 108.742 C 221.731 112.157 238.844 150.727 241.866 157.212 C 238.553 155.668 234.455 154.156 231.009 152.779 C 223.213 150.692 210.857 148.857 202.567 147.269 C 207.651 133.683 212.642 121.975 218.443 108.742 z" fill="rgb(140,238,210)" transform="translate(0,0)"></path>
<path d="M 269.021 179.882 C 283.364 183.525 309.322 193.66 325.435 198.697 L 315.765 202.108 C 305.136 205.203 293.767 209.216 283.191 212.734 C 278.562 201.473 274.173 190.904 269.021 179.882 z" fill="rgb(140,238,210)" transform="translate(0,0)"></path>
<path d="M 196.901 156.208 C 202.691 155.618 215.035 158.485 220.877 159.815 C 244.523 165.198 263.721 186.147 269.012 209.886 C 264.144 202.684 261.256 194.226 256.381 186.613 C 241.278 163.027 217.947 165.737 197.77 158.326 L 196.901 156.208 z" fill="rgb(152,238,222)" transform="translate(0,0)"></path>
<path d="M 267.435 1812.56 L 283.105 1821.52 L 277.018 1832.31 L 275.924 1830.6 C 273.142 1824.44 270.49 1818.6 267.435 1812.56 z" fill="rgb(140,238,210)" transform="translate(0,0)"></path>
<path d="M 277.199 218.126 C 277.392 222.502 273.246 222.866 269.154 225.706 C 258.587 233.04 252.907 247.793 247.407 259.215 C 247.324 258.587 247.194 257.922 247.36 257.319 C 253.272 235.874 259.861 228.622 277.199 218.126 z" fill="rgb(152,238,222)" transform="translate(0,0)"></path>
<path d="M 275.924 1830.6 L 277.018 1832.31 C 274.712 1837.17 259.887 1870.93 258.02 1872.55 C 256.733 1866.12 271.899 1840.64 275.572 1831.5 L 275.924 1830.6 z" fill="rgb(105,188,176)" transform="translate(0,0)"></path>
<path d="M 206.485 255.25 L 207.593 255.468 C 216.361 257.199 230.932 258.845 235.804 266.12 C 231.197 265.708 211.025 257.504 206.485 255.25 z" fill="rgb(152,238,222)" transform="translate(0,0)"></path>
<path d="M 188.496 151.776 L 189.284 152.793 C 189.341 158.196 181.993 172.464 179.302 177.986 L 178.64 176.909 C 180.625 169.232 184.426 158.599 188.496 151.776 z" fill="rgb(152,238,222)" transform="translate(0,0)"></path>
<path d="M 169.662 219.547 C 169.447 219.345 182.922 247.017 183.155 247.736 C 177.817 241.242 167.696 228.373 169.662 219.547 z" fill="rgb(105,188,176)" transform="translate(0,0)"></path>
<path d="M 341.525 189.583 C 342.264 188.404 343.624 186.731 344.505 185.57 C 344.955 192.507 345.16 192.23 339.797 198.547 C 336.711 199.813 338.088 199.719 334.552 198.486 C 336.701 194.576 342.504 193.989 341.525 189.583 z" fill="rgb(152,238,222)" transform="translate(0,0)"></path>
<path d="M 244.654 246.853 C 245.551 251.5 242.806 256.993 238.068 258.627 L 237.259 256.351 C 238.548 252.802 241.973 249.734 244.654 246.853 z" fill="rgb(140,238,210)" transform="translate(0,0)"></path>
<path d="M 201.516 129.015 C 200.942 134.708 197.566 143.413 195.119 148.684 L 194.561 146.525 C 195.8 140.691 198.356 134.08 201.516 129.015 z" fill="rgb(105,188,176)" transform="translate(0,0)"></path>
<path d="M 1295.59 74.3858 C 1318.06 72.1095 1345.29 74.2707 1366.53 81.4775 C 1402.23 93.4513 1431.64 119.245 1448.17 153.081 C 1457.36 171.909 1460.5 187.881 1461.11 208.649 C 1462.9 268.907 1431.44 310.115 1378.97 335.301 C 1378.47 377.536 1378.37 419.776 1378.67 462.013 L 1378.17 757.974 L 1378.07 1711.25 C 1413.46 1732.37 1441.16 1753.97 1453.22 1794.69 C 1491.87 1925.27 1349.86 2011.01 1241.91 1956.91 C 1221.5 1946.33 1205.8 1932.47 1193.57 1912.91 C 1174.94 1882.96 1169.2 1846.75 1177.67 1812.51 C 1186.31 1776.43 1213.9 1742.04 1245.49 1722.99 C 1282 1700.96 1324.34 1698.07 1365 1707.68 L 1364.88 833.754 C 1364.93 669.902 1363.2 503.851 1365.37 340.284 C 1359.86 341.491 1354.29 342.455 1348.69 343.173 C 1305.7 348.685 1267.03 340.71 1232.22 313.829 C 1204.03 292.057 1182.74 257.375 1178.44 221.83 C 1174.06 186.469 1183.92 150.816 1205.86 122.735 C 1228.42 94.1982 1259.85 78.5544 1295.59 74.3858 z" fill="rgb(13,37,45)" transform="translate(0,0)"></path>
<path d="M 1432.86 157.514 C 1438.1 160.223 1443.82 182.205 1445.26 188.711 C 1451.76 218.833 1446.03 250.3 1429.33 276.199 C 1410.98 304.588 1382.56 321.813 1349.93 328.797 C 1345.16 329.712 1338.89 330.328 1333.95 330.95 C 1345.49 299.229 1362.27 272.628 1377.99 243.286 C 1394.83 211.852 1412.45 186.617 1432.86 157.514 z" fill="rgb(140,238,210)" transform="translate(0,0)"></path>
<path d="M 1323.05 1715.25 C 1366.48 1716.27 1411.86 1741.59 1431.16 1781.04 C 1448.26 1815.98 1447.91 1846.5 1436.13 1882.74 C 1435.32 1885.37 1435.4 1885.43 1433.75 1887.8 L 1432.14 1887.28 C 1423.9 1875.44 1412.62 1860.91 1405.2 1849.04 C 1385.05 1816.84 1364.63 1784.49 1345.13 1751.92 C 1341.47 1745.81 1324.77 1719.9 1323.05 1715.25 z" fill="rgb(140,238,210)" transform="translate(0,0)"></path>
<path d="M 1188.03 1850.73 C 1205.1 1858.96 1223.29 1864.87 1240.99 1871.59 C 1251.97 1875.76 1265.76 1879.84 1274.82 1887.54 C 1283.83 1895.2 1310.18 1948.46 1316.32 1962.11 C 1285.1 1958.85 1254.92 1951.86 1229.78 1931.69 C 1204.31 1911.25 1191.53 1882.61 1188.03 1850.73 z" fill="rgb(140,238,210)" transform="translate(0,0)"></path>
<path d="M 1301.53 87.4141 C 1304.61 86.9744 1313.8 87.023 1317.35 86.9588 C 1304.74 112.64 1290.27 138.813 1276.4 163.844 C 1255.28 172.997 1228.59 181.909 1206.76 189.542 L 1192.65 194.706 C 1193.29 170.49 1204.29 145.704 1220.14 127.728 C 1242.77 102.063 1267.82 89.8803 1301.53 87.4141 z" fill="rgb(140,238,210)" transform="translate(0,0)"></path>
<path d="M 1304.03 1797.03 C 1307.93 1796.84 1311.75 1797.2 1315.63 1797.59 C 1337.95 1799.82 1349.96 1808.17 1364.13 1825.45 C 1359.92 1845.47 1352.19 1864.41 1336.92 1878.37 L 1327.06 1876.37 L 1289.22 1868.37 C 1278.7 1852.42 1271.08 1835.41 1263.11 1818.12 C 1276.11 1810.22 1290.32 1803.6 1304.03 1797.03 z" fill="rgb(140,238,210)" transform="translate(0,0)"></path>
<path d="M 1314.48 168.004 C 1337.28 165.55 1357.71 182.174 1359.94 205.002 C 1362.16 227.829 1345.34 248.088 1322.49 250.087 C 1299.96 252.059 1280.04 235.518 1277.85 213.01 C 1275.65 190.501 1291.99 170.424 1314.48 168.004 z" fill="rgb(140,238,210)" transform="translate(0,0)"></path>
<path d="M 1353 1895.83 C 1377.13 1898.6 1401.43 1902.38 1425.31 1906.8 C 1412.3 1920.69 1399.79 1932.31 1383.16 1941.9 C 1365.55 1951.88 1347.77 1957.98 1327.97 1961.77 C 1334.95 1939.45 1342.62 1916.82 1353 1895.83 z" fill="rgb(140,238,210)" transform="translate(0,0)"></path>
<path d="M 1328.4 87.3484 C 1358.84 89.1398 1385.64 102.895 1408.45 122.507 C 1413 126.423 1425.94 138.967 1426.33 144.544 C 1397.72 143.348 1373.44 144.115 1345.02 146.028 C 1337.01 127.08 1337.33 107.182 1328.4 87.3484 z" fill="rgb(140,238,210)" transform="translate(0,0)"></path>
<path d="M 1296.99 1717.28 C 1298.94 1716.92 1298.2 1717 1300.28 1717.53 C 1302.53 1724.33 1298.95 1764.51 1297.89 1773.58 C 1279.96 1769.85 1262.62 1765.06 1244.94 1760.35 C 1238.19 1758.3 1233.07 1756.35 1226.52 1753.78 C 1244.23 1734.07 1271.35 1722.35 1296.99 1717.28 z" fill="rgb(140,238,210)" transform="translate(0,0)"></path>
<path d="M 1291.68 275.152 C 1295.76 278.901 1313.84 321.367 1317.91 330.455 C 1298.46 329.156 1288.94 328.039 1270.26 321.107 C 1254.98 314.405 1245.33 307.832 1233.38 296.287 C 1252.89 289.96 1271.65 281.536 1291.68 275.152 z" fill="rgb(140,238,210)" transform="translate(0,0)"></path>
<path d="M 1192.48 209.14 C 1205.6 214.117 1230.74 218.594 1247.73 224.317 C 1240.72 238.64 1234.04 253.119 1227.69 267.744 C 1225.4 273.519 1223.16 279.311 1220.96 285.121 C 1204.82 264.321 1190.17 236.283 1192.48 209.14 z" fill="rgb(140,238,210)" transform="translate(0,0)"></path>
<path d="M 1212.32 1770.5 C 1220.25 1774.9 1237.25 1807.72 1241.86 1816.92 C 1233.7 1821.86 1222.05 1827.64 1213.42 1832.25 L 1207.14 1835.27 C 1200.84 1834.25 1194.43 1833.05 1188.13 1831.93 C 1190.25 1806.66 1198.61 1790.87 1212.32 1770.5 z" fill="rgb(140,238,210)" transform="translate(0,0)"></path>
<path d="M 1374.7 1832.69 C 1393.45 1851.17 1406.66 1875.58 1423.57 1895.85 L 1407.76 1893.06 C 1390.63 1889.89 1373.66 1886.93 1356.26 1885.76 C 1361.86 1867.88 1368.01 1850.18 1374.7 1832.69 z" fill="rgb(140,238,210)" transform="translate(0,0)"></path>
<path d="M 1353.44 157.448 C 1375.6 156.296 1396.35 156.723 1418.47 157.224 C 1408.27 169.958 1398.77 183.239 1390.01 197.007 C 1384.34 206.627 1378.74 216.934 1373.26 226.707 C 1373.33 225.922 1373.39 225.136 1373.45 224.35 C 1375.2 201.129 1368.69 175.29 1353.44 157.448 z" fill="rgb(140,238,210)" transform="translate(0,0)"></path>
<path d="M 1357.79 247.86 L 1358.75 249.365 C 1355.55 258.92 1331.68 302.629 1326.57 312.082 L 1321.03 300.55 C 1316.51 290.523 1311.1 279.942 1306.23 270.007 C 1324.26 263.413 1342.49 259.664 1357.79 247.86 z" fill="rgb(140,238,210)" transform="translate(0,0)"></path>
<path d="M 1258.1 227.938 C 1272.02 236.18 1278.12 249.141 1285.14 263.089 C 1276.44 268.14 1265.72 271.957 1256.26 275.391 L 1234.46 283.286 C 1242.85 265.136 1250.42 246.412 1258.1 227.938 z" fill="rgb(140,238,210)" transform="translate(0,0)"></path>
<path d="M 1311.27 1716.83 C 1313.31 1719.93 1317.97 1733.48 1321.69 1739.59 C 1332.08 1756.61 1343.84 1772.77 1352.96 1790.4 C 1349.66 1789.94 1316.1 1779.64 1310.06 1777.93 C 1309.89 1758.11 1311.4 1737.3 1311.27 1716.83 z" fill="rgb(140,238,210)" transform="translate(0,0)"></path>
<path d="M 1294.01 1888.43 C 1307.28 1889.08 1321.14 1895.42 1334.52 1897.4 C 1331.84 1910.48 1328.87 1923.5 1325.6 1936.45 C 1325.25 1938.9 1324.71 1941.05 1323.86 1943.38 C 1319.02 1940.49 1296.15 1895.43 1294.01 1888.43 z" fill="rgb(140,238,210)" transform="translate(0,0)"></path>
<path d="M 1233.4 1772.45 C 1251.31 1776.52 1270.56 1785.23 1288.64 1791.22 L 1275.69 1798.05 C 1269.28 1801.33 1262.44 1805.38 1256.12 1808.96 C 1247.32 1796.91 1239.7 1786.04 1233.4 1772.45 z" fill="rgb(140,238,210)" transform="translate(0,0)"></path>
<path d="M 1264.56 181.927 C 1265.87 181.75 1265.18 181.659 1266.58 182.522 C 1266.3 187.618 1254.73 208.369 1251.9 213.722 C 1243.58 210.13 1235.16 206.776 1226.65 203.664 C 1220.34 202.067 1215.46 201.293 1209 200.306 C 1229.28 193.384 1242.83 190.273 1264.56 181.927 z" fill="rgb(140,238,210)" transform="translate(0,0)"></path>
<path d="M 1319.24 110.64 C 1322.92 122.081 1326.13 137.489 1328.95 149.439 C 1321.82 150.655 1311.49 153.715 1304.27 155.622 L 1293.72 158.811 C 1302.13 143.628 1310.33 125.072 1319.24 110.64 z" fill="rgb(140,238,210)" transform="translate(0,0)"></path>
<path d="M 1246.6 1828.95 C 1250.47 1830.63 1260.75 1858.02 1264.43 1863.85 C 1257.44 1860.64 1250.25 1857.94 1243.08 1855.17 C 1233.77 1851.49 1224.64 1847.66 1215.61 1843.33 L 1246.6 1828.95 z" fill="rgb(140,238,210)" transform="translate(0,0)"></path>
<path d="M 1352.4 243.11 C 1368.47 225.185 1368.48 208.227 1359.62 185.818 C 1355.75 176.021 1341.3 165.191 1340.54 156.096 L 1341.62 155.601 C 1364.98 169.463 1368.98 220.891 1368.22 220.28 L 1370.06 219.776 C 1369.06 228.413 1361.06 237.064 1355.42 243.283 L 1352.4 243.11 z" fill="rgb(152,238,222)" transform="translate(0,0)"></path>
<path d="M 1187.57 1843.01 C 1199.67 1843.83 1267.76 1870.75 1276.51 1878.88 C 1266.62 1876.77 1251.65 1868.76 1241.61 1864.73 C 1224.27 1857.77 1203.46 1852.57 1187.57 1843.01 z" fill="rgb(152,238,222)" transform="translate(0,0)"></path>
<path d="M 1274.06 1781.2 C 1284.45 1780.92 1297.8 1785.3 1308.07 1787.31 C 1319.48 1789.55 1330.97 1791.21 1342.37 1793.44 C 1346.38 1796.47 1349.6 1799.65 1351.64 1804.3 C 1347.91 1802.97 1344.72 1798.68 1341.98 1795.88 C 1328.58 1792.75 1283.45 1786.7 1274.06 1781.2 z" fill="rgb(128,208,198)" transform="translate(0,0)"></path>
<path d="M 1298.48 272.336 L 1300.76 273.021 C 1307.45 279.551 1318.91 311.89 1323.9 322.447 L 1321.75 321.533 C 1317.28 312.924 1300.29 279.742 1298.48 272.336 z" fill="rgb(152,238,222)" transform="translate(0,0)"></path>
<path d="M 1353.37 1870.94 L 1353.49 1872.68 C 1348.78 1878.91 1348.31 1885.3 1344.48 1891.44 C 1329.67 1891.58 1312.82 1885.7 1298.34 1882.51 L 1297.65 1881.67 C 1311.72 1880.78 1326.8 1886.74 1340.67 1888.82 C 1344.4 1887.51 1349.03 1875.72 1352.49 1871.9 L 1353.37 1870.94 z" fill="rgb(152,238,222)" transform="translate(0,0)"></path>
<path d="M 1281.78 240.782 C 1286.67 242.493 1292.06 249.088 1296.91 252.025 C 1300.91 254.443 1303.77 255.038 1308.06 256.711 L 1306.79 257.781 C 1302.49 258.656 1298.28 259.733 1294.02 260.786 C 1289.83 252.784 1285.25 247.505 1281.78 240.782 z" fill="rgb(140,238,210)" transform="translate(0,0)"></path>
<path d="M 1250.04 1811.89 C 1258.66 1822.12 1262 1838.99 1268.37 1850.85 C 1271.19 1856.09 1275.93 1860.07 1278.89 1865.37 C 1279.05 1865.66 1279.2 1865.95 1279.36 1866.25 C 1278.08 1865.5 1277.04 1864.66 1275.97 1863.63 C 1268.01 1856.01 1250.09 1822.31 1250.04 1811.89 z" fill="rgb(128,208,198)" transform="translate(0,0)"></path>
<path d="M 1276.49 188.022 C 1285.27 172.382 1290.31 167.008 1308.54 161.241 C 1312.66 159.938 1324 157.349 1327.84 158.139 L 1328.31 159.478 C 1324.93 161.2 1319.64 160.846 1315.71 161.699 C 1296.89 165.778 1286.01 171.464 1277.97 189.11 L 1276.49 188.022 z" fill="rgb(105,188,176)" transform="translate(0,0)"></path>
<path d="M 1354.01 1794.95 C 1354.37 1795.21 1354.94 1795.58 1355.3 1795.9 C 1360.2 1800.35 1371.33 1816.27 1371.79 1822.46 L 1368.53 1822.77 C 1366.75 1813.08 1358.02 1804.07 1354.01 1794.95 z" fill="rgb(152,238,222)" transform="translate(0,0)"></path>
<path d="M 1329.04 117.633 C 1331.47 122.137 1335.47 142.414 1336.83 148.571 C 1331.98 145.278 1327.21 123.458 1329.04 117.633 z" fill="rgb(152,238,222)" transform="translate(0,0)"></path>
<path d="M 1260.64 221.064 C 1272.55 221.551 1272.27 223.131 1277.87 233.495 C 1274.89 232.341 1263.85 223.516 1260.64 221.064 z" fill="rgb(152,238,222)" transform="translate(0,0)"></path>
<path d="M 1276.49 188.022 L 1277.97 189.11 C 1271.98 200.159 1272.45 199.93 1271.48 212.654 L 1270.69 213.154 C 1266.68 212.351 1267.27 213.152 1265.6 210.668 C 1271.5 203.137 1272.08 196.503 1276.49 188.022 z" fill="rgb(59,101,101)" transform="translate(0,0)"></path>
<path d="M 1343.47 1892.78 L 1344.38 1893.86 C 1343.5 1901.98 1339.04 1911.52 1335.94 1919.04 L 1335.69 1919.03 L 1335.15 1917.98 C 1337.15 1909.34 1339.94 1900.91 1343.47 1892.78 z" fill="rgb(128,208,198)" transform="translate(0,0)"></path>
<path d="M 1214.32 1762.52 C 1219.3 1764.48 1221.78 1771.34 1222.96 1776.07 C 1219.33 1772.35 1216.47 1767.21 1214.32 1762.52 z" fill="rgb(128,208,198)" transform="translate(0,0)"></path>
<path d="M 1324.27 98.8346 C 1326.64 101.358 1328.12 110.422 1328.92 114.141 C 1324.31 109.454 1324.32 104.902 1324.27 98.8346 z" fill="rgb(152,238,222)" transform="translate(0,0)"></path>
<path d="M 1355.42 243.283 C 1352.52 245.498 1346.23 250.499 1342.88 250.118 C 1344.44 248.387 1350.18 244.654 1352.4 243.11 L 1355.42 243.283 z" fill="rgb(81,147,143)" transform="translate(0,0)"></path>
<path d="M 1207 204.248 C 1212.55 204.206 1220.62 205.58 1225.29 208.694 C 1219.83 208.032 1211.9 206.635 1207 204.248 z" fill="rgb(81,147,143)" transform="translate(0,0)"></path>
<path d="M 1332.4 155.899 C 1336.35 157.786 1338.99 160.45 1342.31 163.327 C 1336.61 161.752 1335.35 161.001 1332.4 155.899 z" fill="rgb(128,208,198)" transform="translate(0,0)"></path>
<path d="M 301.091 1082.98 C 387.969 1215.91 514.792 1278.16 657.569 1334.72 C 711.757 1356.19 777.485 1384.29 827.585 1413.87 C 896.882 1454.79 952.109 1516.99 972.059 1596.43 C 989.243 1664.86 974.598 1756.18 937.981 1816.41 C 937.098 1768.11 936.726 1719.8 936.866 1671.5 C 936.822 1629.14 938.015 1557.93 928.679 1517.56 C 927.452 1534.43 928.169 1562.1 928.081 1579.63 L 927.385 1698.51 L 926.892 1787.89 C 926.877 1798.22 926.313 1822.98 927.646 1831.49 C 917.637 1846.42 907.963 1857.27 895.162 1869.67 C 907.249 1804.48 903.067 1754.99 879.523 1692.48 C 876.505 1681.43 861.936 1660.59 861.524 1649.93 C 858.967 1583.86 864.712 1515.94 856.676 1450.23 C 854.345 1451.11 855.125 1450.32 853.942 1452.23 C 854.154 1471.22 853.375 1491.61 853.25 1510.8 L 852.642 1637.21 C 824.414 1593.68 814.212 1581.37 779.011 1544.68 C 779.7 1517.93 781.616 1419.08 774.601 1398.44 L 773.761 1398.51 C 771.43 1407.49 771.455 1434.03 771.24 1444.21 C 770.345 1475.22 770.035 1506.25 770.309 1537.28 C 747.282 1516.77 718.338 1495.46 691.151 1480.98 C 691.163 1456.25 690.937 1431.53 690.472 1406.81 C 690.17 1389.89 690.331 1368.56 686.961 1352.27 C 681.442 1385.76 682.986 1440.91 683.024 1476.51 C 666.843 1466.56 628.559 1448.67 610.598 1443.05 C 611.354 1425.96 610.786 1405.02 610.563 1387.87 C 610.295 1367.27 610.449 1339.25 605.328 1319.41 C 603.048 1333.43 602.9 1355.72 602.608 1370.32 L 601.254 1438.86 C 577.965 1430.27 554.577 1421.95 531.092 1413.91 C 531.065 1367.73 530.569 1328.43 528.805 1282.42 C 521.446 1313.04 523.056 1377.21 523.124 1411.03 C 499.139 1403.27 476.291 1394.04 452.918 1384.67 C 453.297 1354.29 453.817 1259.84 446.816 1233.79 C 445.167 1247.02 444.974 1268.44 444.668 1281.96 C 444.014 1315.07 443.876 1348.19 444.253 1381.3 C 420.162 1370.66 388.604 1354.54 368.05 1337.89 C 367.408 1289.83 371.523 1216.04 361.385 1170.9 C 359.153 1224.41 359.994 1279.19 360.008 1332.86 C 335.852 1311.87 319.178 1297.07 301.025 1269.93 L 301.091 1082.98 z" fill="rgb(13,37,45)" transform="translate(0,0)"></path>
<path d="M 853.942 1452.23 C 853.929 1448.27 854.092 1447.37 854.989 1443.5 L 855.861 1444.04 L 856.676 1450.23 C 854.345 1451.11 855.125 1450.32 853.942 1452.23 z" fill="rgb(128,208,198)" transform="translate(0,0)"></path>
<path d="M 893.316 1540.51 C 895.49 1539.3 898.231 1540.02 899.532 1542.14 C 900.833 1544.26 900.233 1547.03 898.17 1548.42 C 896.755 1549.37 894.931 1549.47 893.42 1548.68 C 891.908 1547.89 890.952 1546.33 890.931 1544.63 C 890.909 1542.92 891.825 1541.34 893.316 1540.51 z" fill="rgb(140,238,210)" transform="translate(0,0)"></path>
<path d="M 181.556 1556.45 C 273.476 1644.68 422.786 1596.59 528.97 1655.85 C 563.456 1675.1 590.444 1696.62 614.417 1728.08 C 646.503 1770.19 656.723 1808.55 631.177 1856.28 C 600.85 1798.09 546.405 1767.09 486.895 1745.61 C 468.013 1738.79 450.225 1730.65 430.338 1726.43 L 429.355 1727.08 L 432.324 1729.13 C 463.73 1739.55 476.872 1744.96 505.993 1760.25 C 560.437 1788.85 594.905 1810.87 622.978 1866.2 L 614.062 1875.58 C 533.825 1873.83 447.697 1875.56 366.988 1875.86 C 372.562 1856.07 373.444 1835.25 369.566 1815.05 C 353 1728.32 266.145 1681.58 182.624 1697.52 C 181.291 1683.83 182.005 1664.77 181.888 1650.77 C 181.624 1619.41 182.469 1587.78 181.556 1556.45 z" fill="rgb(13,37,45)" transform="translate(0,0)"></path>
<path d="M 354.627 1687.25 C 385.857 1690.71 405.405 1703.36 427.459 1724.23 C 398.413 1718.52 374.83 1711.32 354.627 1687.25 z" fill="rgb(140,238,210)" transform="translate(0,0)"></path>
<path d="M 407.012 1754.48 C 441.435 1752.4 452.112 1752.83 483.042 1767.29 L 483.356 1768.69 C 446.634 1774.21 438.34 1772.59 407.012 1754.48 z" fill="rgb(140,238,210)" transform="translate(0,0)"></path>
<path d="M 417.613 1665.85 C 443.675 1684.74 456.397 1693.31 467.341 1724.38 C 463.541 1719.52 461.071 1716.95 455.341 1714.47 C 433.591 1705.05 425.658 1687.14 417.613 1665.85 z" fill="rgb(140,238,210)" transform="translate(0,0)"></path>
<path d="M 504.286 1790.36 C 520.628 1788.49 532.831 1792.81 547.589 1799.1 C 538.266 1801.7 528.941 1804.67 519.309 1805.84 C 503.563 1805.14 488.997 1799.75 474.231 1794.7 C 484.268 1793.38 494.287 1791.93 504.286 1790.36 z" fill="rgb(140,238,210)" transform="translate(0,0)"></path>
<path d="M 489.459 1696.54 C 492.423 1698.25 497.638 1702.77 500.387 1705.26 C 518.402 1721.55 522.115 1730.26 528.277 1752.24 C 519.081 1742.13 506.357 1737.48 498.59 1725.36 C 492.304 1715.56 491.421 1707.7 489.459 1696.54 z" fill="rgb(140,238,210)" transform="translate(0,0)"></path>
<path d="M 544.951 1717.57 C 560.571 1732.43 569.22 1740.96 565.898 1763.4 L 563.224 1763.71 C 547.95 1743.14 548.77 1742.7 544.951 1717.57 z" fill="rgb(140,238,210)" transform="translate(0,0)"></path>
<path d="M 563.224 1763.71 L 565.898 1763.4 C 566.414 1766.64 567.628 1778.83 568.262 1780.84 L 567.698 1778.93 L 567.964 1780.89 C 568.171 1782.55 563.084 1763.25 563.224 1763.71 z" fill="rgb(128,208,198)" transform="translate(0,0)"></path>
<path d="M 874.485 171.83 C 888.975 170.547 916.758 170.496 931.604 171.55 L 931.394 172.632 C 928.442 173.248 925.286 173.48 922.304 172.859 C 841.855 182.657 778.716 195.657 703.544 227.128 C 584.092 277.473 479.303 357.192 398.909 458.879 C 313.981 567.585 257.703 716.722 275.319 855.488 C 283.777 922.116 311.634 1000.85 344.432 1059.7 L 342.798 1060.68 C 307.629 1004.68 284.058 950.883 268.839 886.477 C 248.924 801.509 246.275 713.406 261.047 627.395 C 273.525 554.435 307.85 463.418 362.541 411.975 C 417.941 359.865 489.989 320.867 545.985 268.557 C 577.065 239.523 599.567 207.954 621.795 171.948 C 705.698 171.606 790.846 172.917 874.485 171.83 z" fill="rgb(13,37,45)" transform="translate(0,0)"></path>
<path d="M 874.485 171.83 C 888.975 170.547 916.758 170.496 931.604 171.55 L 931.394 172.632 C 928.442 173.248 925.286 173.48 922.304 172.859 C 913.362 171.109 885.567 171.976 874.485 171.83 z" fill="rgb(105,188,176)" transform="translate(0,0)"></path>
<path d="M 384.311 415.703 L 385.427 416.642 C 391.294 435.877 379.385 458.061 370.991 474.566 L 369.557 474.499 C 361.64 448.945 363.228 434.386 384.311 415.703 z" fill="rgb(140,238,210)" transform="translate(0,0)"></path>
<path d="M 336.814 480.483 L 338.094 481.123 C 347.872 495.02 344.967 512.466 337.303 526.489 C 325.397 509.416 328.388 497.82 336.814 480.483 z" fill="rgb(140,238,210)" transform="translate(0,0)"></path>
<path d="M 233.151 1091.09 L 234.42 1092 L 235.099 1103.03 C 235.506 1151.48 237.266 1171.2 254.3 1216.01 C 316.489 1379.6 459.708 1404.2 604.765 1463.14 C 704.879 1503.81 803.218 1582.24 846.118 1685.2 C 871.235 1745.47 880.9 1812.93 854.5 1875.52 L 836.357 1875.66 C 847.024 1854.39 854.323 1831.04 854.696 1807.16 C 857.163 1649.49 731.039 1527.29 593.039 1473.1 C 480.489 1428.9 350.923 1397.15 279.487 1291.78 C 248.023 1245.38 227.342 1187.72 228.057 1131.34 C 228.227 1118.18 230.765 1104.05 233.151 1091.09 z" fill="rgb(13,37,45)" transform="translate(0,0)"></path>
<path d="M 548.745 1885.5 L 1172.25 1885.01 C 1173.93 1890.34 1176.17 1895.57 1178.17 1900.8 C 1116.27 1899.28 1054.17 1900.32 992.25 1900.61 L 355.802 1901.12 C 357.991 1896.11 359.911 1890.99 361.867 1885.89 L 548.745 1885.5 z" fill="rgb(13,37,45)" transform="translate(0,0)"></path>
<path d="M 368.596 148.51 C 491.621 147.831 614.649 147.905 737.674 148.734 L 1181.66 148.705 C 1180.47 152.5 1178.31 160.993 1175.91 163.47 L 362.144 163.069 C 360.823 159.024 358.479 153.966 359.554 150.222 C 362.906 147.935 364.039 148.657 368.596 148.51 z" fill="rgb(13,37,45)" transform="translate(0,0)"></path>
<path d="M 302.683 944.8 C 295.38 927.106 291.569 908.846 288.298 890.061 C 237.212 596.67 469.651 328.586 726.938 227.887 C 771.258 210.838 817.102 198.056 863.849 189.715 L 862.059 191.991 C 861.448 192.103 860.839 192.229 860.233 192.368 C 812.646 203.142 765.396 220.867 721.016 240.95 C 702.543 249.31 683.908 257.635 666.014 267.188 C 554.076 326.947 450.807 414.114 383.697 522.713 C 303.622 652.295 267.145 794.047 302.683 944.8 z" fill="rgb(13,37,45)" transform="translate(0,0)"></path>
<path d="M 179.886 1538.8 C 181.588 1539.34 198.969 1554.83 203.956 1558.14 C 219.718 1568.59 239.87 1575.23 258.053 1579.92 C 287.914 1587.62 319.693 1590.15 350.273 1592.56 C 442.554 1599.82 522.107 1605.35 594.909 1668.75 C 633.531 1702.39 666.369 1743.55 671.937 1797.09 C 674.301 1819.81 670.205 1839.14 660.896 1859.59 C 658.778 1864.24 655.813 1870.04 652.564 1874.09 C 651.015 1876.01 649.839 1875.56 647.25 1875.74 L 630.226 1875.89 C 651.365 1855.48 660.881 1827.52 657.542 1798.35 C 650.892 1740.25 609.304 1696.85 564.311 1663.88 C 494.033 1612.37 406.561 1613.6 323.867 1602.53 C 283.033 1597.05 241.167 1588.59 206.181 1565.78 C 197.838 1560.33 183.513 1548.16 179.886 1538.8 z" fill="rgb(13,37,45)" transform="translate(0,0)"></path>
<path d="M 1231.97 1331.36 C 1268.66 1352.16 1295.43 1386.85 1306.26 1427.61 C 1319.38 1476.06 1311.43 1523.07 1286.43 1566.36 C 1240.57 1645.73 1151.68 1680.72 1078.4 1729.16 C 1062.84 1739.45 1039.99 1754.02 1026.49 1766.59 L 1030.49 1748.88 C 1104.82 1680.22 1230.63 1652.1 1281.71 1551.88 C 1294.05 1527.67 1301.41 1505.33 1302.47 1477.85 C 1304.51 1434.11 1288.79 1391.41 1258.89 1359.43 C 1253.72 1353.89 1248 1348.12 1241.55 1344.11 L 1239.34 1341.44 C 1233.52 1339.94 1232.09 1338.73 1230.74 1333.28 L 1231.97 1331.36 z" fill="rgb(13,37,45)" transform="translate(0,0)"></path>
<path d="M 768.258 1914.92 C 775.461 1924.65 781.242 1931.9 792.025 1937.68 C 780.4 1944.28 775.767 1951.12 768.823 1962.33 C 759.424 1950.88 759.403 1946.18 745.526 1937.59 C 756.885 1931.38 762.072 1926.31 768.258 1914.92 z" fill="rgb(13,37,45)" transform="translate(0,0)"></path>
<path d="M 767.36 85.52 C 775.924 93.176 774.205 100.06 790.162 108.743 C 780.197 116.753 775.677 120.219 768.122 130.849 C 767.556 130.444 762.068 123.551 760.884 122.244 C 755.649 116.467 751.772 113.448 745.578 108.913 C 757.586 102.938 760.577 96.63 767.36 85.52 z" fill="rgb(13,37,45)" transform="translate(0,0)"></path>
<path d="M 1422.17 1005.67 C 1429.09 1021.33 1430.22 1022.44 1446.29 1029.75 C 1440.04 1032.69 1435.06 1034.59 1429.9 1039.33 C 1425.08 1043.76 1425.87 1049.31 1421.94 1051.18 C 1414.76 1036.2 1412.02 1034.36 1396.03 1030.3 C 1414.96 1022.27 1413.71 1024.17 1422.17 1005.67 z" fill="rgb(13,37,45)" transform="translate(0,0)"></path>
<path d="M 114.439 1007.59 C 116.105 1008.88 121.596 1020.08 123.172 1022.92 C 127.558 1025.79 135.71 1028.97 140.767 1031.12 C 139.93 1031.38 139.094 1031.64 138.259 1031.91 C 123.945 1036.47 122.3 1038.21 115.548 1051.42 L 114.547 1051.57 C 111.798 1049.05 108.573 1041.63 106.732 1037.9 C 100.736 1034.43 96.6065 1033.07 90.1236 1030.72 C 105.914 1023.61 107.972 1023.82 114.439 1007.59 z" fill="rgb(13,37,45)" transform="translate(0,0)"></path>
<path d="M 863.849 189.715 C 870.584 188.405 877.334 187.174 884.097 186.022 L 885.163 187.758 L 885.905 187.306 L 884.665 187.659 C 877.374 189.694 869.552 190.784 862.059 191.991 L 863.849 189.715 z" fill="rgb(59,101,101)" transform="translate(0,0)"></path>
<path d="M 344.432 1059.7 C 346.738 1063.39 348.629 1065.93 349.855 1070.13 C 347.166 1068.5 344.604 1063.58 342.798 1060.68 L 344.432 1059.7 z" fill="rgb(26,61,61)" transform="translate(0,0)"></path>
<path d="M 1439.15 64.2542 C 1445.2 63.6259 1449.08 62.9874 1455.12 65.516 C 1468.74 71.2167 1478.8 89.0288 1472.25 103.214 C 1469.61 108.932 1465.84 110.968 1460.16 113.051 C 1455.67 113.283 1450.2 113.814 1445.94 112.452 C 1423.64 105.317 1412.67 75.5626 1439.15 64.2542 z" fill="rgb(140,238,210)" transform="translate(0,0)"></path>
<path d="M 1445.12 72.2095 C 1465.56 74.2739 1474.8 97.8075 1454.18 105.485 C 1431.19 102.477 1422.97 77.9053 1445.12 72.2095 z" fill="rgb(13,37,45)" transform="translate(0,0)"></path>
<path d="M 1442.73 82.538 C 1450.39 83.6508 1452.15 87.116 1453.4 94.3151 C 1447.6 89.0624 1444.2 88.7148 1442.73 82.538 z" fill="rgb(140,238,210)" transform="translate(0,0)"></path>
<path d="M 92.9813 63.1436 C 121.061 64.0709 121.934 110.224 86.616 113.801 C 49.3689 110.109 61.623 69.8113 92.9813 63.1436 z" fill="rgb(140,238,210)" transform="translate(0,0)"></path>
<path d="M 89.4052 72.0571 C 111.786 72.9601 110.605 95.7046 89.8692 104.893 C 66.323 107.092 67.2335 80.4469 89.4052 72.0571 z" fill="rgb(13,37,45)" transform="translate(0,0)"></path>
<path d="M 92.1977 83.5484 C 94.0996 83.9407 94.0225 84.168 95.4237 85.5956 C 94.3349 88.315 90.495 89.4607 87.3105 91.0376 L 86.918 92.42 L 86.2181 90.933 C 87.4442 86.7556 88.7354 86.1373 92.1977 83.5484 z" fill="rgb(152,238,222)" transform="translate(0,0)"></path>
<path d="M 1445.73 1925.08 C 1451.52 1924.88 1455.68 1924.82 1460.93 1927.74 C 1467.08 1931.16 1470.99 1936.68 1472.74 1943.46 C 1475.09 1952.45 1473.67 1962.01 1468.81 1969.94 C 1464.57 1977 1457.89 1982.7 1449.74 1984.55 C 1443.75 1985.88 1437.48 1984.7 1432.39 1981.28 C 1427.3 1977.91 1423.73 1973.09 1422.55 1967.05 C 1421.34 1960.85 1422.81 1954.65 1426.57 1949.6 C 1430.96 1943.69 1436.02 1942.6 1442.85 1941.73 C 1446.44 1942.49 1451.77 1943.7 1454.16 1946.77 C 1456.22 1949.42 1456.9 1953.58 1456.77 1956.86 L 1455.55 1957.88 C 1455.03 1956.48 1454.52 1955 1453.81 1953.69 C 1452.51 1951.29 1451.14 1949.97 1448.46 1949.23 C 1444.81 1948.22 1440.64 1949.01 1437.49 1951.07 C 1434.35 1953.13 1432.03 1956.57 1431.44 1960.3 C 1430.87 1963.95 1431.48 1968.2 1433.85 1971.14 C 1436.15 1974 1439.66 1975.22 1443.24 1975.36 C 1449.07 1975.6 1455.11 1973.06 1459.1 1968.83 C 1463.52 1964.13 1464.95 1957.47 1464.51 1951.16 C 1463.39 1935.13 1450.03 1939.34 1441.77 1931.81 C 1442.26 1928.68 1443.78 1927.44 1445.73 1925.08 z" fill="rgb(140,238,210)" transform="translate(0,0)"></path>
<path d="M 81.084 1925.09 C 84.4072 1924.99 87.9897 1924.86 91.1045 1926.24 C 93.2732 1927.19 94.4964 1928.55 95.442 1930.7 C 89.9147 1937.74 78.4652 1935.13 73.7572 1945.95 C 71.5726 1950.96 72.0719 1957.93 74.2877 1962.9 C 76.6902 1968.29 81.701 1972.7 87.2623 1974.6 C 91.4826 1976.04 96.1228 1976.01 100.081 1973.82 C 103.1 1972.14 106.094 1968.93 106.845 1965.47 C 107.548 1962.23 106.968 1958.43 105.139 1955.65 C 102.759 1952.03 98.2256 1949.55 94.0052 1948.88 C 81.7193 1946.95 85.5112 1955.87 81.287 1958.9 C 80.5357 1953.92 80.0769 1950.7 83.107 1946.41 C 83.273 1946.18 83.4478 1945.95 83.6182 1945.72 C 88.3253 1943.03 93.4804 1941.26 98.9598 1942.19 C 104.196 1943.08 108.638 1946.26 111.445 1950.73 C 115.067 1956.49 115.886 1963.9 113.989 1970.41 C 112.527 1975.42 109.302 1979.67 104.595 1982.03 C 98.3211 1985.12 91.0634 1985.55 84.4719 1983.21 C 76.5184 1980.38 70.0282 1973.87 66.3892 1966.34 C 62.447 1958.29 62.0469 1948.97 65.2857 1940.61 C 68.2991 1932.92 73.6709 1928.35 81.084 1925.09 z" fill="rgb(140,238,210)" transform="translate(0,0)"></path>
<path d="M 1408.47 64.4306 C 1413.33 63.1759 1418.29 66.0302 1419.65 70.8553 C 1421.01 75.6804 1418.26 80.7067 1413.47 82.169 C 1410.27 83.1432 1406.8 82.3129 1404.39 79.9986 C 1401.98 77.6843 1401.02 74.2483 1401.86 71.0175 C 1402.71 67.7866 1405.24 65.2666 1408.47 64.4306 z" fill="rgb(152,238,222)" transform="translate(0,0)"></path>
<path d="M 1407.07 1965.08 C 1411.76 1963.69 1416.72 1966.19 1418.38 1970.79 C 1420.04 1975.39 1417.82 1980.48 1413.32 1982.4 C 1410.17 1983.74 1406.54 1983.23 1403.89 1981.08 C 1401.24 1978.92 1399.99 1975.47 1400.66 1972.12 C 1401.33 1968.76 1403.8 1966.06 1407.07 1965.08 z" fill="rgb(140,238,210)" transform="translate(0,0)"></path>
<path d="M 123.055 65.7319 C 127.473 63.3827 132.959 65.078 135.281 69.51 C 137.603 73.9421 135.874 79.4173 131.428 81.7123 C 127.02 83.9874 121.602 82.2767 119.3 77.8828 C 116.998 73.489 118.675 68.0608 123.055 65.7319 z" fill="rgb(140,238,210)" transform="translate(0,0)"></path>
<path d="M 124.684 1965.47 C 129.22 1963.95 134.136 1966.34 135.745 1970.84 C 137.354 1975.35 135.065 1980.31 130.594 1982.01 C 127.62 1983.14 124.267 1982.58 121.828 1980.53 C 119.389 1978.49 118.245 1975.29 118.837 1972.16 C 119.43 1969.04 121.666 1966.47 124.684 1965.47 z" fill="rgb(140,238,210)" transform="translate(0,0)"></path>
<path d="M 1456.72 120.51 C 1459.45 119.721 1462.39 120.486 1464.38 122.504 C 1466.38 124.523 1467.12 127.472 1466.3 130.191 C 1465.48 132.911 1463.24 134.965 1460.46 135.546 C 1456.38 136.399 1452.36 133.874 1451.35 129.83 C 1450.34 125.785 1452.72 121.669 1456.72 120.51 z" fill="rgb(140,238,210)" transform="translate(0,0)"></path>
<path d="M 75.0715 121.684 C 77.5225 120.219 80.5857 120.243 83.0135 121.746 C 85.4413 123.249 86.8285 125.98 86.6102 128.828 C 86.3919 131.675 84.6044 134.162 81.9759 135.277 C 78.2784 136.846 73.9976 135.285 72.1787 131.704 C 70.3598 128.123 71.6238 123.745 75.0715 121.684 z" fill="rgb(152,238,222)" transform="translate(0,0)"></path>
<metadata><recraft-signature>{"signed_by": "recraft", "signature_b64": "XMHsFVtfYzlq7SYTAIzF46+zwNJGRhqNtQ80zeNe9Ltz8vjyQeqT10NUk5EFkzhLlplW05hg3ta6H8rkO5ExAA==", "signing_algo": "Ed25519", "generation_timestamp": 1783732135, "identifier": "326958ac-8c59-48e2-85e4-629f6bf9930c"}</recraft-signature></metadata></svg>