<svg xmlns="http://www.w3.org/2000/svg" height="1365" preserveAspectRatio="none" style="display: block;" version="1.1" viewBox="0 0 1536 2048" width="1024">
<path d="M 0 0 L 1536 0 L 1536 2048 L 0 2048 L 0 0 z" fill="rgb(254,254,254)" transform="translate(0,0)"></path>
<path d="M 56.7241 28.1477 C 85.5583 27.1449 118.036 27.8047 147.28 27.7934 L 321.514 27.9601 L 817.83 27.8474 L 1256.35 27.7369 L 1399.42 27.7912 C 1425.24 27.8084 1451.12 27.7193 1476.88 28.1094 C 1492.71 27.5843 1510.69 44.6042 1511.6 60.5255 C 1512.9 83.2875 1512.24 108.295 1512.17 131.338 L 1511.97 266.775 L 1511.93 733.697 L 1512.22 1555.89 L 1512.53 1852.43 C 1512.46 1894 1512.28 1935.58 1512.43 1977.16 C 1512.51 1999.87 1500.91 2018.51 1477.12 2020.66 L 517.816 2020.33 L 212.419 2020.27 L 112.157 2020.43 C 49.7239 2020.61 20.2786 2029.6 24.8455 1948.58 C 25.5211 1936.59 24.7738 1917.78 24.7119 1905.32 L 24.3853 1648.27 L 24.7966 497.631 L 24.7176 197.749 L 24.7632 112.932 C 24.7462 107.774 24.7208 102.528 24.7045 97.3659 C 24.6062 66.264 20.3279 38.7259 56.7241 28.1477 z" fill="rgb(33,58,61)" transform="translate(0,0)"></path>
<path d="M 61.2567 42.1676 C 73.9196 41.5005 94.8529 42.2232 107.911 42.2699 L 206.61 42.6156 L 550.97 42.8219 L 1088.61 42.656 L 1341.51 42.6836 C 1382.77 42.6864 1424.08 42.5703 1465.34 42.4624 C 1472.8 42.5592 1480.02 42.6319 1486.36 47.2401 C 1498.25 55.879 1497.97 68.3645 1497.88 81.4596 C 1497.82 89.4998 1497.94 97.4 1497.95 105.31 L 1498 187.647 L 1497.99 492.505 L 1497.92 1599.67 L 1498.01 1849.01 L 1498.18 1933.51 C 1498.2 1948.46 1498.36 1963.38 1497.92 1978.31 C 1497.41 1995.8 1487.82 2003.51 1471.77 2006.16 C 1430 2003.94 1379.36 2005.17 1337.04 2005.15 L 1099.63 2005.13 L 367.059 2005.2 L 133.838 2005.27 C 110.106 2005.34 84.5858 2006.1 60.8672 2005.84 C 55.9627 2005.79 44.2377 1996.62 42.394 1992.09 C 40.6317 1987.77 39.7346 1976.55 39.6743 1971.54 C 38.9374 1896.77 39.694 1821.99 39.734 1747.22 L 39.682 1353.89 L 39.6513 410.743 L 39.7951 164.245 C 39.822 145.66 36.5562 71.5222 41.358 59.0798 C 44.8724 49.9733 52.735 45.6314 61.2567 42.1676 z" fill="rgb(254,254,254)" transform="translate(0,0)"></path>
<path d="M 295.133 158.5 L 985.196 158.441 L 1189.41 158.461 L 1248.47 158.29 C 1286.21 158.169 1310.23 156.421 1339.36 185.002 C 1369.84 214.902 1365.74 247.521 1365.8 286.148 L 1365.9 365.787 L 1366.02 634.406 L 1366.67 1543.17 L 1366.9 1712.46 L 1367.03 1768.78 C 1367.04 1807.93 1367.25 1834.91 1336.84 1865.73 C 1308.99 1893.95 1278.84 1891.86 1242.5 1891.67 L 547.669 1891.46 L 349.815 1891.83 L 289.696 1891.89 C 276.852 1891.88 259.961 1892.84 247.58 1890.64 C 200.2 1882.21 170.258 1842.59 169.905 1796.54 L 170.003 747.49 L 170.007 399.754 L 170.001 293.327 C 170.008 253.624 164.106 216.358 195.205 185.453 C 225.74 155.109 255.788 158.44 295.133 158.5 z" fill="rgb(33,58,61)" transform="translate(0,0)"></path>
<path d="M 252.5 171.336 C 267.814 170.33 290.226 171.008 306.207 171.029 L 404.487 171.146 L 714.064 170.77 L 1083.05 170.764 L 1210.56 170.706 C 1234.04 170.703 1257.88 170.39 1281.32 171.146 C 1291.39 171.471 1302.43 175.559 1311.26 180.313 C 1329.94 190.407 1343.88 207.478 1350.03 227.804 C 1354.83 244.245 1352.94 278.975 1352.83 297.989 L 1352.81 365.166 L 1352.93 666.231 L 1352.64 1438.51 L 1352.75 1648 C 1352.96 1695.93 1353.26 1743.82 1352.69 1791.75 C 1352.16 1835.92 1327.02 1865.63 1285.12 1877.3 C 1269.55 1879.62 1248.38 1878.75 1232.11 1878.68 L 1153.05 1878.38 L 878.79 1878.06 L 436.831 1878.46 L 317.772 1878.32 C 297.964 1878.22 277.885 1878.38 258.106 1877.41 C 241.87 1876.88 229.841 1870.97 216.802 1861.79 C 176.019 1833.08 182.77 1785.93 182.818 1742.61 L 182.952 1624.06 L 182.816 1204.7 L 183.021 555.587 L 183.005 348.798 C 182.976 314.681 182.418 280.055 182.967 245.951 C 183.23 229.588 188.987 214.664 199.096 201.693 C 212.076 184.787 231.334 173.841 252.5 171.336 z" fill="rgb(254,254,254)" transform="translate(0,0)"></path>
<path d="M 589.247 277.633 C 594.6 274.471 600.933 278.617 606.252 278.719 C 608.577 277.412 607.311 277.816 610.28 277.879 C 612.447 279.131 622.736 279.54 625.076 279.193 C 628.228 277.637 630.419 278.011 633.993 277.982 L 1035.14 278.095 C 1057.66 278.099 1191.87 275.91 1203.34 279.788 C 1212.78 282.982 1221.7 291.643 1225.86 300.637 C 1228.84 307.063 1229.25 313.924 1229.34 320.899 C 1230.1 381.235 1229.39 441.66 1229.55 502.006 L 1230.01 1088.42 L 1231.93 1573.08 L 1232.11 1677.77 C 1232.14 1697.25 1234.08 1722.98 1229.32 1741.5 C 1226.65 1751.89 1215.87 1760.94 1206.12 1765.3 C 1201.92 1767.2 1197.43 1768.39 1192.84 1768.81 C 1181.95 1769.89 1163.65 1769.25 1152.21 1769.21 C 1130.01 1769.11 1107.82 1769.27 1085.62 1769.7 C 1076.09 1769.83 1061.38 1769.55 1052.18 1770.22 C 1042.66 1771.72 1000.15 1770.96 991.187 1769.64 C 985.736 1768.89 977.45 1769.29 971.741 1769.39 L 971.223 1769.81 C 966.544 1770.81 951.538 1770.14 946.007 1770.15 L 886.984 1770.25 L 750.025 1770.28 C 739.211 1770.28 681.004 1771.53 673.837 1769.27 L 460.347 1769.15 C 417.891 1769.15 367.927 1767.88 326.225 1769.86 C 320.694 1756.9 315.853 1753 305.921 1743.44 C 307.255 1638.77 306.088 1532.48 305.998 1427.71 L 305.006 786.86 C 303.789 778.742 304.353 756.418 304.991 747.98 L 305.145 434.465 L 305.306 355.75 C 305.279 344.325 303.946 323.665 305.789 313.776 C 308.929 296.925 325.257 278.088 343.836 278.263 C 356.873 278.386 368.783 277.938 381.158 277.942 L 450.811 278.008 C 462.955 278.022 508.108 277.097 516.378 278.404 L 517.528 280.009 C 520.888 278.833 523.736 279.32 526.07 278.148 C 547.116 277.746 568.31 278.118 589.247 277.633 z" fill="rgb(33,58,61)" transform="translate(0,0)"></path>
<path d="M 304.991 747.98 L 305.145 434.465 L 305.306 355.75 C 305.279 344.325 303.946 323.665 305.789 313.776 C 308.929 296.925 325.257 278.088 343.836 278.263 C 356.873 278.386 368.783 277.938 381.158 277.942 L 450.811 278.008 C 462.955 278.022 508.108 277.097 516.378 278.404 L 517.528 280.009 C 527.394 335.74 530.239 387.753 516.76 443.501 C 497.073 524.924 446.612 594.464 387.301 652.062 C 362.323 676.319 337.619 700.198 316.41 727.931 C 312.11 733.62 308.9 741.65 304.991 747.98 z" fill="rgb(33,58,61)" transform="translate(0,0)"></path>
<path d="M 407.118 372.732 C 395.772 432.807 409.668 451.772 435.397 501.897 C 453.827 537.8 438.345 595.277 406.665 621.698 L 405.593 623.084 L 403.281 621.265 C 398.958 629.268 397.408 631.824 391.834 639.336 C 402.593 595.187 408.04 564.366 396.236 518.718 C 392.052 502.535 385.743 485.451 382.876 469.189 C 379.076 447.639 382.452 408.547 395.402 390.354 L 397.379 389.604 L 398.644 390.867 C 401.415 384.175 403.427 379.033 407.118 372.732 z" fill="rgb(186,233,225)" transform="translate(0,0)"></path>
<path d="M 391.834 639.336 C 402.593 595.187 408.04 564.366 396.236 518.718 C 392.052 502.535 385.743 485.451 382.876 469.189 C 379.076 447.639 382.452 408.547 395.402 390.354 C 381.038 446.547 397.266 467.397 410.596 519.152 C 419.628 554.222 414.887 587.403 403.281 621.265 C 398.958 629.268 397.408 631.824 391.834 639.336 z" fill="rgb(186,233,225)" transform="translate(0,0)"></path>
<path d="M 395.402 390.354 L 397.379 389.604 L 398.644 390.867 C 376.416 479.29 446.227 513.03 406.665 621.698 L 405.593 623.084 L 403.281 621.265 C 414.887 587.403 419.628 554.222 410.596 519.152 C 397.266 467.397 381.038 446.547 395.402 390.354 z" fill="rgb(33,58,61)" transform="translate(0,0)"></path>
<path d="M 435.469 287.708 C 437.574 294.892 433.017 316.11 437.7 329.913 C 455.99 383.834 512.092 449.443 485.644 509.3 C 481.294 489.82 482.886 471.298 474.875 450.919 C 458.262 408.653 428.94 371.017 426.893 324.158 C 426.381 312.438 427.093 296.865 435.469 287.708 z" fill="rgb(186,233,225)" transform="translate(0,0)"></path>
<path d="M 445.383 281.587 C 447.439 283.707 448.149 313.791 451.929 322.022 C 479.339 381.703 524.632 404.497 498.142 478.312 L 497.802 478.575 C 496.523 476.802 497.016 470.659 496.73 467.846 C 493.89 439.895 482.808 412.485 470.299 387.641 C 457.43 362.082 440.927 338.065 438.961 308.69 C 438.314 299.024 438.815 289.173 445.383 281.587 z" fill="rgb(186,233,225)" transform="translate(0,0)"></path>
<path d="M 309.12 508.494 C 313.843 511.171 320.155 523.124 324.375 527.414 C 365.501 569.223 382.271 615.035 354.018 671.8 L 347.047 682.827 C 355.569 645.035 359.161 612.926 340.978 576.638 C 329.244 553.22 310.436 535.536 309.12 508.494 z" fill="rgb(186,233,225)" transform="translate(0,0)"></path>
<path d="M 309.254 532.624 C 312.683 535.264 317.873 546.965 320.622 551.118 C 348.134 592.685 359.738 641.898 338.681 689.588 L 330.36 700.582 C 335.493 663.132 338.613 629.532 325.771 592.988 C 315.71 564.361 308.822 564.104 309.254 532.624 z" fill="rgb(186,233,225)" transform="translate(0,0)"></path>
<path d="M 1211.91 1106.77 C 1212.13 1110.3 1212.36 1113.31 1212.78 1116.84 C 1214.99 1104.63 1213.07 1085.35 1214.78 1072.49 C 1215.84 1064.46 1213.12 1040.85 1216.83 1035.79 C 1222.04 1076.68 1220.78 1110.61 1217.96 1151.4 C 1212.16 1235.05 1197.04 1313.64 1145.52 1382 C 1117.31 1419.43 1081.11 1442.78 1045.35 1471.78 C 989.034 1517.46 952.783 1571.09 945.325 1644.32 C 943.306 1664.14 941.914 1688.31 942.064 1708.34 C 942.198 1726.23 937.837 1753.05 938.566 1768.28 L 939.261 1769.38 C 940.29 1769.25 942.183 1769 942.402 1767.64 C 953.218 1700.29 939.755 1639.17 968.47 1573.69 C 998.775 1504.58 1055.04 1469.37 1111.79 1424.28 C 1184.39 1363.45 1214.45 1258.18 1220.1 1167 C 1220.97 1153 1223.04 1134.44 1223.01 1120.71 L 1225.05 1119.98 C 1225.03 1146.75 1225.48 1174.87 1225.8 1201.68 C 1226.21 1236.25 1224.78 1252.11 1215.25 1285.3 C 1199.74 1339.29 1172.69 1385.96 1133.5 1426.42 C 1117.78 1442.68 1090.32 1459.93 1071.27 1473.96 C 1011.29 1518.17 974.093 1565.91 967.789 1641.72 C 965.239 1672.39 966.538 1702.81 962.078 1732.78 C 960.618 1742.59 954.644 1759.86 951.291 1769.56 C 957.832 1769.5 965.284 1769.25 971.741 1769.39 L 971.223 1769.81 C 966.544 1770.81 951.538 1770.14 946.007 1770.15 L 886.984 1770.25 L 750.025 1770.28 C 739.211 1770.28 681.004 1771.53 673.837 1769.27 C 699.616 1767.96 737.45 1769.19 764.014 1769.21 L 928.24 1769.3 C 934.216 1714.12 924.47 1653.46 941.876 1596.64 C 956.233 1548.84 992.395 1498.74 1031.84 1467.75 C 1104.06 1411.03 1155.82 1361.02 1185.27 1271.1 C 1196.91 1235.81 1204.51 1199.32 1207.91 1162.31 C 1209.46 1144.97 1209.69 1123.3 1211.91 1106.77 z" fill="rgb(186,233,225)" transform="translate(0,0)"></path>
<path d="M 517.528 280.009 C 520.888 278.833 523.736 279.32 526.07 278.148 C 551.593 372.847 537.971 473.831 488.269 558.383 C 473.057 584.828 454.428 609.153 432.861 630.731 C 376.427 688.139 339.053 710.556 305.006 786.86 C 303.789 778.742 304.353 756.418 304.991 747.98 C 308.9 741.65 312.11 733.62 316.41 727.931 C 337.619 700.198 362.323 676.319 387.301 652.062 C 446.612 594.464 497.073 524.924 516.76 443.501 C 530.239 387.753 527.394 335.74 517.528 280.009 z" fill="rgb(186,233,225)" transform="translate(0,0)"></path>
<path d="M 610.28 277.879 C 612.447 279.131 622.736 279.54 625.076 279.193 C 618.199 315.387 593.008 345.486 563.449 365.801 C 557.347 369.995 552.097 376.193 545.582 379.85 L 544.563 378.268 C 543.539 365.2 552.925 359.691 560.742 349.681 C 575.731 330.487 603.474 301.735 610.28 277.879 z" fill="rgb(186,233,225)" transform="translate(0,0)"></path>
<path d="M 991.187 1769.64 C 1026.06 1753.8 1059.63 1743 1097.79 1754.35 C 1084.36 1755.47 1057.14 1760.92 1046.09 1768.09 L 1045.46 1769.45 C 1048.32 1770.46 1049.07 1770.27 1052.18 1770.22 C 1042.66 1771.72 1000.15 1770.96 991.187 1769.64 z" fill="rgb(186,233,225)" transform="translate(0,0)"></path>
<path d="M 589.247 277.633 C 594.6 274.471 600.933 278.617 606.252 278.719 C 597.193 299.55 561.551 345.649 545.354 359.999 L 544.181 359.625 C 543.96 358.71 543.787 357.96 543.866 357.01 C 544.398 350.587 577.171 299.704 583.255 292.229 C 587.211 287.368 592.447 283.05 597.06 278.798 C 594.994 277.32 592.227 277.749 589.247 277.633 z" fill="rgb(186,233,225)" transform="translate(0,0)"></path>
<path d="M 1211.91 1106.77 C 1212.83 1074.91 1214.39 1042.83 1213.66 1011 L 1214.46 1011.17 C 1215.21 1018.71 1216.82 1028.51 1216.83 1035.79 C 1213.12 1040.85 1215.84 1064.46 1214.78 1072.49 C 1213.07 1085.35 1214.99 1104.63 1212.78 1116.84 C 1212.36 1113.31 1212.13 1110.3 1211.91 1106.77 z" fill="rgb(254,254,254)" transform="translate(0,0)"></path>
<path d="M 1223.01 1120.71 C 1223.11 1116.58 1222.97 1113.97 1224.24 1109.97 C 1225.42 1112.52 1225.03 1116.88 1225.05 1119.98 L 1223.01 1120.71 z" fill="rgb(116,152,151)" transform="translate(0,0)"></path>
<path d="M 986.75 496.39 C 994.07 495.179 1007.2 497.656 1010.46 504.752 C 1022.21 530.358 1003.48 569.504 992.994 593.495 C 986.595 607.83 971.633 627.627 969.213 643.022 C 961.596 691.475 960.657 736.103 948.656 784.271 C 964.583 830.053 972.508 878.236 972.085 926.707 C 971.441 961.631 966.532 994.9 940.243 1020.26 C 938.994 971.858 922.462 927.082 890.39 890.53 C 833.858 959.519 770.291 1005.88 724.15 1087.19 C 682.244 1160.04 659.754 1242.44 658.837 1326.48 C 658.692 1360.14 663.927 1413.21 684.537 1442.91 C 692.337 1454.16 730.738 1459.02 746.668 1464.02 C 759.995 1468.13 772.85 1473.64 785.018 1480.46 C 809.278 1494.21 825.821 1510.11 833.248 1537.19 C 803.849 1520.8 776.478 1523.46 745.534 1531.66 C 729.676 1535.86 719.149 1534.68 703.795 1529.52 C 698.848 1555.16 685.749 1560.62 666.15 1576.56 C 638.786 1602.61 633.272 1617.14 625.044 1652.4 C 599.828 1599.01 612.507 1543.3 638.499 1493.19 C 640.08 1490.15 644.008 1478.03 643.367 1474.55 C 638.993 1450.79 625.733 1428.94 617.542 1406.32 C 564.394 1268.02 558.262 1117.48 598.616 975.05 C 607.457 943.848 617.186 910.85 630.163 880.941 C 621.075 874.904 611.053 870.409 600.501 867.637 C 555.49 855.524 524.155 870.225 487.095 891.801 C 489.886 868.131 500.469 847.951 514.765 829.269 C 558.663 771.902 635.876 733.783 706.28 723.725 C 720.01 692.544 756.335 646.615 776.986 618.86 C 822.765 557.337 909.693 504.471 986.75 496.39 z" fill="rgb(186,233,225)" transform="translate(0,0)"></path>
<path d="M 980.412 506.343 C 1000.09 503.987 1008.34 506.625 1005.86 528.92 C 1003.68 548.606 993.711 580.248 983.122 597.099 C 965.373 625.345 959.279 645.344 956.651 678.343 C 950.586 729.775 948.402 778.823 923.462 825.627 C 877.861 911.2 796.996 967.008 741.636 1045.3 C 701.345 1102.27 671.448 1171.66 659.301 1240.47 C 648.795 1299.99 645.212 1365.2 666.562 1422.68 C 679.038 1456.79 684.129 1457.64 719.513 1465.49 C 757.418 1473.91 796.847 1489.03 819.837 1522.15 C 787.65 1512.01 768.527 1517.84 737.291 1524.49 C 721.298 1527.89 710.813 1523.93 697.933 1515.03 C 693.67 1544.6 690.117 1547.6 667.208 1565.19 C 647.156 1580.58 632.559 1602.65 622.98 1625.95 C 620.036 1608.84 618.894 1599.22 619.133 1582.09 C 621.803 1549.91 629.244 1531.13 643.212 1502.51 C 646.206 1496.38 651.787 1480.73 650.925 1474.39 C 648.417 1455.93 634.506 1427.08 627.353 1408.95 C 554.38 1224.02 569.836 1036.92 649.089 857.061 C 643.96 862.988 639.073 868.141 634.193 874.399 C 592.564 846.32 538.996 852.323 497.4 876.851 C 529.409 803.787 591.343 764.301 665.717 740.506 C 680.008 735.933 696.035 733.785 710.866 731.374 C 728.552 698.244 748.55 671.382 770.103 641.484 C 809.899 586.281 860.362 545.615 924.391 521.89 C 944.405 514.475 958.895 509.308 980.412 506.343 z" fill="rgb(33,58,61)" transform="translate(0,0)"></path>
<path d="M 901.757 640.903 C 914.192 590.07 930.402 570.448 972.643 540.116 C 979.439 535.236 995.21 516.658 1001.85 516.87 C 1009.4 528.687 988.212 585.339 980.136 597.894 C 974.263 609.219 964.579 621.893 961.319 634.314 C 943.157 703.231 943.948 772.857 905.49 835.363 C 873.954 886.617 833.398 925.946 792.348 969.318 C 712.36 1053.83 649.298 1172.32 644.71 1290.54 C 639.381 1284.23 641.838 1198.84 643.076 1186.05 C 654.286 1070.26 697.494 955.602 770.512 864.543 C 810.304 814.919 847.449 768.739 875.774 711.341 C 889.8 706.841 919.374 696.63 931.723 689.295 C 918.525 690.085 896.914 694.954 882.095 696.749 L 886.727 685.837 L 886.973 683.344 C 894.279 680.811 931.185 665.662 934.992 660.64 C 931.316 658.734 900.321 666.638 892.709 668.021 L 896.621 657.982 L 897.092 655.121 C 907.912 651.717 931.222 639.398 940.306 632.586 C 927.248 634.758 914.603 637.724 901.757 640.903 z" fill="rgb(186,233,225)" transform="translate(0,0)"></path>
<path d="M 863.677 843.367 C 867.336 842.252 871.224 844.211 872.507 847.814 C 873.79 851.417 872.015 855.392 868.475 856.841 C 866.034 857.84 863.242 857.417 861.207 855.739 C 859.173 854.061 858.225 851.4 858.742 848.814 C 859.258 846.228 861.154 844.135 863.677 843.367 z" fill="rgb(33,58,61)" transform="translate(0,0)"></path>
<path d="M 913.969 747.304 C 916.461 746.734 919.064 747.576 920.75 749.496 C 922.436 751.417 922.934 754.107 922.046 756.504 C 921.159 758.9 919.029 760.618 916.499 760.977 C 912.806 761.502 909.357 759.021 908.678 755.353 C 907.999 751.686 910.333 748.135 913.969 747.304 z" fill="rgb(33,58,61)" transform="translate(0,0)"></path>
<path d="M 720.349 1001.24 C 723.637 1000.07 727.25 1001.78 728.434 1005.06 C 729.619 1008.34 727.929 1011.96 724.653 1013.16 C 721.355 1014.37 717.702 1012.67 716.509 1009.36 C 715.316 1006.06 717.039 1002.41 720.349 1001.24 z" fill="rgb(33,58,61)" transform="translate(0,0)"></path>
<path d="M 784.717 894.568 C 786.63 893.247 789.129 893.131 791.157 894.269 C 793.185 895.407 794.388 897.601 794.256 899.923 C 794.125 902.245 792.682 904.289 790.539 905.191 C 787.663 906.402 784.337 905.242 782.837 902.506 C 781.337 899.769 782.149 896.341 784.717 894.568 z" fill="rgb(33,58,61)" transform="translate(0,0)"></path>
<path d="M 683.494 1084.51 C 686.608 1083.5 689.962 1085.15 691.056 1088.24 C 692.149 1091.32 690.583 1094.72 687.525 1095.89 C 685.476 1096.68 683.162 1096.29 681.481 1094.88 C 679.8 1093.47 679.017 1091.26 679.435 1089.1 C 679.853 1086.95 681.407 1085.19 683.494 1084.51 z" fill="rgb(33,58,61)" transform="translate(0,0)"></path>
<path d="M 896.621 657.982 C 890.238 656.018 848.971 670.935 843.219 668.764 L 843.55 667.752 C 860.629 663.206 879.714 659.225 897.092 655.121 L 896.621 657.982 z" fill="rgb(77,115,116)" transform="translate(0,0)"></path>
<path d="M 886.419 565.573 C 889.094 564.445 892.185 565.576 893.5 568.165 C 894.814 570.753 893.903 573.917 891.414 575.41 C 889.639 576.475 887.42 576.46 885.66 575.371 C 883.9 574.283 882.895 572.304 883.055 570.241 C 883.215 568.178 884.513 566.377 886.419 565.573 z" fill="rgb(186,233,225)" transform="translate(0,0)"></path>
<path d="M 886.727 685.837 C 881.877 686.442 859.428 694.859 848.065 696.822 C 857.667 693.164 877.446 685.941 886.973 683.344 L 886.727 685.837 z" fill="rgb(77,115,116)" transform="translate(0,0)"></path>
<path d="M 944.521 797.739 C 946.155 799.355 947.706 804.619 948.438 807.193 C 962.3 855.903 968.906 915.035 961.083 965.196 C 959.287 976.713 950.891 992.769 945.653 1002.78 C 945.335 990.922 944.511 985.171 942.205 973.828 C 933.942 940.532 917.759 909.724 895.034 884.025 C 916.227 853.346 931.659 834.346 944.521 797.739 z" fill="rgb(33,58,61)" transform="translate(0,0)"></path>
<path d="M 1199.23 1555.46 C 1208.35 1562.73 1213.87 1593.54 1214.58 1604.8 C 1216.27 1631.84 1207.05 1664.38 1189.17 1684.89 C 1155.33 1723.7 1103.32 1713.35 1057.96 1715.5 C 1025.72 1717.12 979.433 1739.68 958.059 1764.59 C 958.503 1763.46 958.976 1762.35 959.434 1761.23 C 964.093 1749.85 974.473 1739.19 983.485 1731.05 C 1045.78 1674.78 1134.47 1705.93 1177.7 1664.93 C 1197.36 1646.29 1203.63 1619.98 1204.16 1593.77 C 1203.89 1579.72 1201.85 1571.6 1195.66 1559 C 1197.81 1569.14 1199.66 1578.24 1200.3 1588.68 C 1202.11 1618.3 1187.59 1656.21 1160.53 1671.05 C 1137.36 1682.57 1107.49 1684.06 1081.9 1686.97 C 1027.38 1693.16 999.229 1706.99 961.866 1747.7 C 964.384 1739.31 968.048 1731.3 972.752 1723.91 C 1000.81 1679.45 1049.26 1676.08 1095.07 1667.77 C 1108.17 1665.39 1125.82 1658.47 1137.34 1652.41 C 1165.11 1637.8 1170.43 1620.2 1180.55 1592.47 C 1185.12 1579.95 1192.03 1566.86 1199.23 1555.46 z" fill="rgb(186,233,225)" transform="translate(0,0)"></path>
<path d="M 1198.42 1164.58 L 1199.16 1166.4 C 1194.04 1163.39 1179.63 1138.03 1175.81 1131.97 C 1149.54 1091.27 1137.33 1050.27 1131.76 1002.97 C 1124.31 939.779 1145.64 886.741 1181.39 835.449 C 1185.25 829.912 1192.96 818.477 1198.19 814.38 C 1198.57 816.82 1196.92 818.91 1195.61 821.527 L 1197.85 823.295 L 1198.72 823.261 C 1197.51 833.154 1191.33 849.435 1187.72 859.224 C 1174.36 895.409 1161.56 930.196 1163.12 969.425 C 1165.63 1032.26 1187.53 1090.5 1199.52 1151.55 C 1200.14 1154.67 1201.04 1158.64 1200.42 1161.76 L 1198.42 1164.58 z" fill="rgb(186,233,225)" transform="translate(0,0)"></path>
<path d="M 1197.85 823.295 L 1198.72 823.261 C 1197.51 833.154 1191.33 849.435 1187.72 859.224 C 1174.36 895.409 1161.56 930.196 1163.12 969.425 C 1165.63 1032.26 1187.53 1090.5 1199.52 1151.55 C 1200.14 1154.67 1201.04 1158.64 1200.42 1161.76 C 1195.97 1153.68 1191.47 1141.71 1187.72 1133.08 C 1172.37 1097.74 1165.26 1068.98 1157.5 1032.46 C 1143.71 967.549 1147.63 924.574 1176.04 864.511 C 1181.15 853.716 1191.34 833.038 1197.85 823.295 z" fill="rgb(186,233,225)" transform="translate(0,0)"></path>
<path d="M 1195.61 821.527 L 1197.85 823.295 C 1191.34 833.038 1181.15 853.716 1176.04 864.511 C 1147.63 924.574 1143.71 967.549 1157.5 1032.46 C 1165.26 1068.98 1172.37 1097.74 1187.72 1133.08 C 1191.47 1141.71 1195.97 1153.68 1200.42 1161.76 L 1198.42 1164.58 C 1197.12 1160.27 1187 1140.21 1184.57 1134.18 C 1175.13 1110.81 1166.76 1089.78 1160.46 1065.43 C 1133.81 962.414 1141.93 912.564 1195.61 821.527 z" fill="rgb(33,58,61)" transform="translate(0,0)"></path>
<path d="M 1042.21 1163.6 C 1066.3 1168.64 1079.13 1172.98 1093.71 1194.86 C 1110.19 1219.56 1115.57 1263.63 1109.05 1292.41 C 1100.95 1328.12 1069.59 1359.76 1061.24 1395.65 C 1057.58 1411.35 1061.29 1421.64 1060.49 1434.17 C 1059.91 1434.86 1058.82 1436.25 1058.2 1436.79 L 1056.9 1437.12 C 1053.83 1433.79 1052.22 1431.11 1049.93 1427.23 C 1013.29 1365.48 1074.13 1310.48 1079.14 1250.53 C 1081.7 1219.94 1073.41 1195.09 1053.58 1172.25 C 1053.62 1171.66 1054.12 1170.15 1054.31 1169.51 C 1050.51 1167.19 1046.28 1165.43 1042.21 1163.6 z" fill="rgb(186,233,225)" transform="translate(0,0)"></path>
<path d="M 1053.58 1172.25 C 1068.62 1178.04 1080.79 1194.8 1087.16 1208.95 C 1098.65 1234.48 1096.3 1265.46 1085.64 1290.93 C 1064.03 1342.6 1033.04 1377.5 1058.2 1436.79 L 1056.9 1437.12 C 1053.83 1433.79 1052.22 1431.11 1049.93 1427.23 C 1013.29 1365.48 1074.13 1310.48 1079.14 1250.53 C 1081.7 1219.94 1073.41 1195.09 1053.58 1172.25 z" fill="rgb(186,233,225)" transform="translate(0,0)"></path>
<path d="M 1053.58 1172.25 C 1053.62 1171.66 1054.12 1170.15 1054.31 1169.51 C 1072.18 1176.38 1083.38 1191.51 1091.26 1208.3 C 1103.69 1234.78 1100.62 1266.9 1089.9 1293.59 C 1069.58 1344.18 1038.4 1375.67 1060.49 1434.17 C 1059.91 1434.86 1058.82 1436.25 1058.2 1436.79 C 1033.04 1377.5 1064.03 1342.6 1085.64 1290.93 C 1096.3 1265.46 1098.65 1234.48 1087.16 1208.95 C 1080.79 1194.8 1068.62 1178.04 1053.58 1172.25 z" fill="rgb(33,58,61)" transform="translate(0,0)"></path>
<path d="M 609.55 498.88 C 610.271 499.69 610.858 500.982 610.92 502.005 C 612.596 529.673 607.517 557.161 593.359 580.17 C 570.263 617.704 527.743 636.758 486.111 644.557 C 461.605 649.147 441.755 650.297 415.942 656.139 C 419.794 652.292 434.24 637.228 437.857 635.545 C 501.254 606.048 551.136 621.228 595.271 552.754 C 599.606 544.768 614.329 510.59 609.028 502.522 C 603.71 518.829 604.828 525.592 595.607 543.278 C 562.177 607.395 505.338 605.949 446.883 625.601 C 488.781 593.818 546.409 588.416 581.346 543.648 C 593.359 528.255 599.224 512.835 609.55 498.88 z" fill="rgb(186,233,225)" transform="translate(0,0)"></path>
<path d="M 442.299 695.01 C 442.492 697.204 438.967 705.496 437.751 708.243 C 416.814 755.555 442.082 809.546 417.693 856.567 C 396.931 896.595 351.98 919.657 311.271 933.507 C 310.056 928.852 310.528 913.445 310.568 907.927 C 354.131 890.79 398.151 854.949 407.182 807.828 C 415.617 763.817 412.698 733.847 442.299 695.01 z" fill="rgb(186,233,225)" transform="translate(0,0)"></path>
<path d="M 1144.68 1473.8 L 1145.6 1474.85 C 1155.85 1541.98 1060.59 1571.2 1020.52 1607.48 C 997.566 1628.27 987.686 1642.08 973.127 1669.22 L 972.786 1669.43 C 971.246 1666.41 974.18 1657.92 975.21 1654.22 C 986.907 1612.19 1012.83 1580.48 1049.98 1558.29 C 1062.99 1550.52 1078.35 1544.12 1091.37 1536.49 C 1124.09 1517.29 1134.35 1509.75 1144.68 1473.8 z" fill="rgb(186,233,225)" transform="translate(0,0)"></path>
<path d="M 1148 1475.84 C 1151.21 1480.08 1153.05 1487.39 1153.83 1492.54 C 1165.64 1570.54 1067.27 1599.65 1017.68 1634.83 C 1001.29 1646.46 985.315 1667.36 973.792 1683.59 L 972.477 1685.4 L 971.557 1685.12 C 973.582 1676.51 980.779 1664.45 985.282 1656.62 C 1000 1631.01 1024.62 1608.04 1049.32 1592.07 C 1079.03 1572.86 1111.81 1557.37 1134 1528.25 C 1148.08 1509.77 1150.86 1498.11 1148 1475.84 z" fill="rgb(186,233,225)" transform="translate(0,0)"></path>
<path d="M 663.908 346.106 L 664.311 347.181 C 657.219 355.748 650.381 363.558 645.558 373.568 C 631.545 402.645 623.279 440.055 596.176 460.556 C 572.872 478.182 551.065 478.018 526.098 495.921 L 525.444 494.908 C 526.763 489.202 528.667 483.602 530.565 478.065 C 536.497 460.765 572.261 442.763 586.715 429.158 C 612.577 404.814 633.893 360.819 663.908 346.106 z" fill="rgb(186,233,225)" transform="translate(0,0)"></path>
<path d="M 1094.27 1015.7 C 1096.02 1017.78 1095.93 1040.89 1096.44 1046.1 C 1100.87 1090.83 1136.74 1119.47 1156.32 1158.47 C 1172.83 1191.33 1189.19 1233.41 1177.99 1270.96 C 1176.59 1270.32 1176.67 1265.31 1176.53 1263.57 C 1172.75 1213.9 1144.21 1179.18 1118.27 1139.61 C 1097.23 1107.51 1084.68 1053.73 1094.27 1015.7 z" fill="rgb(186,233,225)" transform="translate(0,0)"></path>
<path d="M 1088.96 1022.87 C 1089.57 1024.77 1087.99 1035.06 1087.74 1037.75 C 1085.68 1059.79 1088.64 1082.86 1096.06 1103.86 C 1101.11 1118.5 1107.67 1132.58 1115.65 1145.86 C 1122.46 1156.99 1131.47 1167.5 1138.71 1178.5 C 1157.23 1206.68 1170.78 1238.9 1172.03 1272.97 C 1172.11 1275 1172.33 1279.05 1171.05 1280.4 L 1169.8 1276.67 C 1162.1 1243.5 1151.05 1219.75 1130.5 1192.63 C 1111.58 1167.65 1089.03 1146.36 1080.54 1115.33 C 1073.45 1089.39 1075.77 1046.44 1088.96 1022.87 z" fill="rgb(186,233,225)" transform="translate(0,0)"></path>
<path d="M 448.059 681.888 L 448.844 682.682 C 448.684 683.637 433.366 703.263 431.244 706.024 C 405.476 739.545 410.99 783.56 397.916 820.481 C 385.086 856.713 347.686 887.247 312.32 902.386 C 310.246 900.037 310.989 893.177 311.043 889.712 C 349.964 867.878 379.12 843.839 387.757 797.003 C 390.829 780.342 393.175 760.411 399.147 744.745 C 409.7 717.058 425.907 699.979 448.059 681.888 z" fill="rgb(186,233,225)" transform="translate(0,0)"></path>
<path d="M 1010.26 1311.06 C 1010.86 1311.63 1010.53 1311.2 1010.67 1312.64 C 970.748 1350.11 953.526 1405.72 962.14 1459.12 C 965.036 1477.07 968.727 1498.45 969.868 1516.3 L 961.726 1503.5 C 958.847 1498.67 956.337 1493.64 954.215 1488.44 C 938.849 1451.5 936.113 1410.41 952.183 1373.22 C 964.617 1344.45 980.448 1323.15 1010.26 1311.06 z" fill="rgb(186,233,225)" transform="translate(0,0)"></path>
<path d="M 916.894 1523.55 C 915.71 1528.81 913.952 1535.68 913.446 1540.89 C 911.987 1559.7 913.559 1578.63 918.101 1596.95 C 924.789 1624.17 929.662 1620.16 926.56 1649.48 C 903.905 1606.6 898.784 1582.49 910.156 1535.63 C 887.737 1580.47 904.375 1620.76 926.16 1662.07 C 925.814 1669.93 925.4 1677.8 924.917 1685.66 C 886.567 1641.73 870.269 1587.54 906.19 1535.85 C 910.146 1530.73 912.324 1528.07 916.894 1523.55 z" fill="rgb(186,233,225)" transform="translate(0,0)"></path>
<path d="M 916.894 1523.55 C 915.71 1528.81 913.952 1535.68 913.446 1540.89 C 910.089 1538.48 912.104 1538.86 907.328 1536.44 L 906.19 1535.85 C 910.146 1530.73 912.324 1528.07 916.894 1523.55 z" fill="rgb(186,233,225)" transform="translate(0,0)"></path>
<path d="M 661.827 343.328 L 665.2 343.378 C 664.441 344.762 656.21 347.195 654.048 348.464 C 628.815 363.275 615.023 392.305 596.071 413.53 C 579.344 432.262 557.798 445.693 537.625 460.036 L 535.92 460.911 L 535.331 460.073 C 536.883 452.405 542.179 445.436 546.382 439.016 C 569.483 403.732 618.77 350.964 661.827 343.328 z" fill="rgb(186,233,225)" transform="translate(0,0)"></path>
<path d="M 1015.01 1310.91 L 1015.58 1311.54 C 1015.41 1313.8 1002.91 1333.72 1000.58 1338.17 C 983.886 1370.1 978.203 1399.52 977.276 1435.26 C 976.869 1450.94 980.99 1506.07 975.134 1516.06 L 974.152 1516.11 L 973.603 1512.76 C 971.176 1471.12 957.951 1430.03 970.47 1388.45 C 979.237 1359.34 993.202 1332.36 1015.01 1310.91 z" fill="rgb(186,233,225)" transform="translate(0,0)"></path>
<path d="M 425.417 919.959 L 425.437 922.036 C 421.218 930.087 414.51 934.267 407.973 939.902 C 380.71 963.403 346.974 971.373 311.194 966.974 C 310.783 963.517 311.029 952.606 311.015 948.59 C 355.748 951.734 389.644 949.467 425.417 919.959 z" fill="rgb(186,233,225)" transform="translate(0,0)"></path>
<path d="M 427.538 921.826 C 427.623 922.529 427.702 924.188 427.485 924.843 C 414.172 965.099 370.439 988.173 329.524 986.219 C 324.506 985.98 318.405 984.978 313.24 984.298 L 311.768 983.608 C 310.47 980.416 310.984 975.157 311.052 971.487 C 356.498 980.382 402.355 960.396 427.538 921.826 z" fill="rgb(186,233,225)" transform="translate(0,0)"></path>
<path d="M 1224.55 1363.74 L 1225.47 1364.65 C 1226.43 1369.28 1225.91 1374.34 1225.72 1379.14 C 1199.08 1412.91 1163.59 1428.3 1125.45 1444.15 L 1124.69 1443.23 C 1137.3 1432.1 1159.38 1419.84 1173.68 1409.52 C 1193.84 1394.97 1207.07 1381.28 1224.55 1363.74 z" fill="rgb(186,233,225)" transform="translate(0,0)"></path>
<path d="M 1225.44 1386.73 C 1226.73 1390.89 1226.18 1399.87 1226.11 1404.62 C 1190.41 1433.08 1157.47 1442.58 1113.98 1453.63 C 1114.06 1450.79 1145.68 1439.98 1150.47 1437.99 C 1182.71 1424.58 1200.66 1410.43 1225.44 1386.73 z" fill="rgb(186,233,225)" transform="translate(0,0)"></path>
<path d="M 521.358 1786.18 C 536.235 1785.23 561.185 1786.03 576.658 1786.06 L 683.661 1786.23 L 1004.27 1785.84 C 986.965 1796.1 969.365 1805.84 951.488 1815.05 C 920.023 1830.56 885.001 1851.62 851.873 1863.98 C 844.551 1866.71 796.168 1865.1 783.755 1865.08 L 718.349 1865.15 C 711.725 1865.17 682.832 1865.69 678.513 1864.21 C 656.463 1856.69 626.196 1839.75 605.837 1829.19 L 521.358 1786.18 z" fill="rgb(33,58,61)" transform="translate(0,0)"></path>
<path d="M 708.734 1809.41 C 729.202 1806.57 745.202 1815.01 754.657 1833.12 C 746.597 1837.67 743.354 1838.52 734.199 1839.95 C 705.527 1838.39 705.043 1827.25 686.802 1811.3 C 693.45 1811.22 701.982 1810.1 708.734 1809.41 z" fill="rgb(186,233,225)" transform="translate(0,0)"></path>
<path d="M 813.898 1810.21 C 827.197 1809.33 835.503 1810.6 848.69 1812.18 C 837.361 1825.55 833.788 1831.48 817.675 1838.43 C 804.144 1841.76 795.911 1839.83 783.274 1834.94 C 783.94 1833.68 784.644 1832.43 785.385 1831.2 C 793.44 1817.61 798.689 1814.11 813.898 1810.21 z" fill="rgb(186,233,225)" transform="translate(0,0)"></path>
<path d="M 677.418 185.929 C 680.539 185.255 697.571 185.523 702.042 185.568 C 719.351 185.821 736.661 185.98 753.971 186.045 L 817.357 185.88 C 851.556 185.764 851.115 183.691 881.781 199.465 C 923.625 220.989 967.351 243.993 1010.89 261.686 C 961.944 261.98 912.994 262.018 864.044 261.802 L 658.656 261.874 C 615.921 261.922 570.664 261.253 528.093 262.435 C 543.581 254.635 560.834 247.591 576.839 239.601 C 610.742 222.424 644.275 204.529 677.418 185.929 z" fill="rgb(33,58,61)" transform="translate(0,0)"></path>
<path d="M 726.866 210.267 C 741.641 209.673 747.844 212.698 759.296 221.232 C 747.125 231.814 736.943 236.193 721.231 238.782 C 708.263 239.409 701.778 239.143 688.679 236.914 C 698.936 223.344 709.831 213.24 726.866 210.267 z" fill="rgb(186,233,225)" transform="translate(0,0)"></path>
<path d="M 796.886 211.114 C 820.546 209.31 833.856 220.048 847.965 237.963 C 842.317 238.897 835.065 239.289 829.243 239.765 C 805.967 238.986 794.769 235.891 776.555 221.225 C 784.192 215.381 787.643 213.866 796.886 211.114 z" fill="rgb(186,233,225)" transform="translate(0,0)"></path>
<path d="M 196.368 299.561 C 212.645 311.12 230.522 407.745 235.014 431.004 L 257.262 545.251 C 263.898 577.568 270.805 609.829 277.982 642.03 C 281.441 658.018 287.269 679.906 288.894 695.794 C 290.999 716.369 289.784 743.448 289.737 764.409 C 285.38 761.579 271.013 748.743 265.857 744.656 C 242.066 725.796 219.488 705.215 196.139 685.897 L 196.3 443.092 C 196.254 396.002 195.363 346.41 196.368 299.561 z" fill="rgb(33,58,61)" transform="translate(0,0)"></path>
<path d="M 1337.4 300.709 C 1338.96 307.558 1338.57 330.771 1338.59 339.254 L 1338.49 420.267 L 1338.7 687.801 C 1333.67 691.682 1328.83 695.781 1324.11 700.037 C 1299.03 722.646 1272.91 744.215 1247.66 766.583 L 1246.32 766.421 C 1245.62 751.528 1246.46 736.323 1246.2 721.413 C 1245.73 694.225 1252.79 667.379 1258.49 640.884 L 1279.29 544.494 C 1287.07 506.354 1294.45 468.13 1301.41 429.83 C 1305.92 404.664 1310.35 375.516 1317.08 351.059 C 1321 336.804 1331.26 314.813 1337.4 300.709 z" fill="rgb(33,58,61)" transform="translate(0,0)"></path>
<path d="M 287.628 1291.87 L 288.611 1293.42 C 288.984 1305.64 289.441 1359.22 287.675 1369.54 C 282.503 1399.76 273.876 1437.91 267.272 1467.93 L 234.211 1618.48 C 224.753 1660.3 215.563 1702.28 204.096 1743.61 C 202.075 1750.89 200.732 1758.57 197.252 1765.33 C 195.381 1757.04 196.324 1729.98 196.468 1720.57 C 196.787 1700.58 196.929 1680.58 196.893 1660.58 L 196.417 1374.24 C 225.889 1346.58 259.181 1319.6 287.628 1291.87 z" fill="rgb(33,58,61)" transform="translate(0,0)"></path>
<path d="M 1247.61 1294.39 C 1277.49 1321.53 1309.29 1346.1 1338.88 1374 L 1338.54 1746.23 L 1337.75 1746.45 C 1333.85 1739.18 1325.68 1712.62 1323.01 1703.45 C 1301.81 1630.56 1287.69 1553.99 1271.98 1479.68 L 1255.33 1401.27 C 1254.11 1395.49 1248.31 1372.11 1248.09 1367.23 C 1247.02 1344.06 1247.57 1317.62 1247.61 1294.39 z" fill="rgb(33,58,61)" transform="translate(0,0)"></path>
<path d="M 196.002 888.455 C 200.125 890.945 217.746 906.138 222.148 909.834 L 288.805 966.578 L 288.86 1089.86 C 278.929 1100.59 260.124 1115.5 248.442 1125.27 C 231.431 1139.88 213.525 1154.07 196.28 1168.79 L 196.002 888.455 z" fill="rgb(33,58,61)" transform="translate(0,0)"></path>
<path d="M 237.236 1013.75 C 244.816 1011.7 252.64 1016.1 254.823 1023.64 C 257.006 1031.18 252.743 1039.08 245.24 1041.4 C 240.267 1042.93 234.853 1041.67 231.08 1038.08 C 227.306 1034.5 225.76 1029.16 227.036 1024.11 C 228.313 1019.07 232.212 1015.1 237.236 1013.75 z" fill="rgb(186,233,225)" transform="translate(0,0)"></path>
<path d="M 1337.88 886.005 C 1339.32 888.185 1338.7 1144.51 1338.7 1168.05 C 1324 1154.5 1303.55 1138.76 1287.69 1125.76 L 1246.31 1092.23 C 1246.44 1051.24 1247.37 1010.67 1246.3 969.597 C 1249.96 966.562 1253.48 963.395 1256.95 960.152 C 1283.69 935.179 1311.21 911.054 1337.88 886.005 z" fill="rgb(33,58,61)" transform="translate(0,0)"></path>
<path d="M 1289.94 1014.61 C 1298.19 1012.69 1306.46 1017.73 1308.53 1025.94 C 1310.6 1034.16 1305.7 1042.51 1297.52 1044.72 C 1292.1 1046.19 1286.32 1044.61 1282.39 1040.61 C 1278.46 1036.6 1276.99 1030.79 1278.56 1025.4 C 1280.13 1020.01 1284.48 1015.89 1289.94 1014.61 z" fill="rgb(186,233,225)" transform="translate(0,0)"></path>
<path d="M 195.929 696.519 C 226.571 722.787 258.262 751.15 289.237 776.581 C 287.503 833.344 288.584 897.479 288.565 954.642 C 288.287 954.549 202.564 882.739 195.936 877.266 C 196.247 817.017 196.245 756.767 195.929 696.519 z" fill="rgb(33,58,61)" transform="translate(0,0)"></path>
<path d="M 287.698 1103.87 C 289.872 1105.97 288.716 1268.09 288.671 1279.5 C 258.763 1307.34 227.858 1333.78 197.612 1361.24 L 196.871 1360.54 C 195.795 1356.48 196.374 1320.41 196.371 1312.81 L 196.352 1182.05 C 203.457 1172.8 227.929 1153.6 237.706 1145.59 L 287.698 1103.87 z" fill="rgb(33,58,61)" transform="translate(0,0)"></path>
<path d="M 1246.31 1104.54 C 1249.53 1106.18 1267.03 1120.27 1270.55 1123.16 C 1292.86 1141.43 1317.51 1159.67 1338.25 1179.51 L 1338.51 1359.4 C 1334.42 1359.15 1258.6 1291.48 1247.17 1283.14 C 1247.24 1223.61 1246.95 1164.07 1246.31 1104.54 z" fill="rgb(33,58,61)" transform="translate(0,0)"></path>
<path d="M 1337.21 698.716 L 1338.79 699.949 L 1338.77 875.731 C 1327.7 883.924 1313.31 897.815 1302.73 907.444 C 1284.73 923.824 1266.63 940.1 1248.44 956.271 L 1247.78 956.523 C 1245.54 953.011 1246.68 794.55 1246.58 779.32 C 1277.39 753.136 1307.61 726.261 1337.21 698.716 z" fill="rgb(33,58,61)" transform="translate(0,0)"></path>
<path d="M 1209.11 1779.18 L 1209.83 1780.09 C 1208.85 1787.06 1207.92 1794.03 1207.04 1801.02 C 1135.09 1813 1060.48 1831.24 995.839 1865.61 C 956.731 1864.27 913.282 1865.06 873.926 1865.27 L 872.777 1864.75 C 873.75 1863.21 901.53 1849.9 906.137 1847.57 C 944.328 1828.33 981.809 1807.72 1018.51 1785.76 L 1126.29 1785.76 C 1148.45 1785.7 1189.68 1788.03 1209.11 1779.18 z" fill="rgb(33,58,61)" transform="translate(0,0)"></path>
<path d="M 326.413 1785.86 L 448.651 1785.87 C 458.152 1785.85 499.941 1784.57 506.277 1787.1 C 521.321 1793.09 548.107 1807.64 563.605 1815.78 C 595.223 1832.54 627.057 1848.89 659.099 1864.83 C 651.015 1865.71 622.238 1864.99 612.475 1865.01 C 590.242 1865.04 558.192 1865.75 536.865 1864.38 C 532.054 1864.07 493.604 1845.19 485.926 1841.99 C 438.665 1822.26 379.724 1807.59 328.271 1807.08 C 328.297 1799.05 328.335 1793.64 326.413 1785.86 z" fill="rgb(33,58,61)" transform="translate(0,0)"></path>
<path d="M 248.776 1741.7 C 282.067 1735.73 313.945 1757.72 320.181 1790.96 C 326.418 1824.21 304.678 1856.26 271.486 1862.76 C 237.92 1869.33 205.428 1847.29 199.122 1813.67 C 192.815 1780.06 215.11 1747.74 248.776 1741.7 z" fill="rgb(33,58,61)" transform="translate(0,0)"></path>
<path d="M 252.91 1758.6 C 277.039 1754.64 299.777 1771.08 303.57 1795.24 C 307.363 1819.39 290.76 1842.02 266.579 1845.64 C 242.635 1849.23 220.283 1832.82 216.527 1808.91 C 212.771 1784.99 229.019 1762.52 252.91 1758.6 z" fill="rgb(186,233,225)" transform="translate(0,0)"></path>
<path d="M 251.454 186.812 C 284.882 182.85 315.279 206.514 319.636 239.894 C 323.993 273.273 300.691 303.947 267.365 308.699 C 245.454 311.824 223.556 302.927 210.032 285.406 C 196.508 267.886 193.449 244.447 202.022 224.042 C 210.594 203.638 229.475 189.417 251.454 186.812 z" fill="rgb(33,58,61)" transform="translate(0,0)"></path>
<path d="M 252.026 204.184 C 267.991 201.854 283.972 208.309 293.841 221.073 C 303.709 233.838 305.932 250.93 299.657 265.794 C 293.382 280.658 279.583 290.986 263.553 292.817 C 239.298 295.588 217.308 278.384 214.159 254.175 C 211.011 229.967 227.869 207.71 252.026 204.184 z" fill="rgb(186,233,225)" transform="translate(0,0)"></path>
<path d="M 1270.44 1741.23 C 1286.83 1739.78 1303.12 1744.99 1315.63 1755.7 C 1328.13 1766.4 1335.79 1781.7 1336.87 1798.12 C 1338.97 1830.03 1316.14 1858.18 1284.48 1862.69 C 1262.47 1865.83 1240.48 1856.77 1227.07 1839.04 C 1213.66 1821.31 1210.93 1797.69 1219.94 1777.36 C 1228.95 1757.03 1248.29 1743.2 1270.44 1741.23 z" fill="rgb(33,58,61)" transform="translate(0,0)"></path>
<path d="M 1267.91 1759.64 C 1291.58 1755.19 1314.36 1770.8 1318.75 1794.48 C 1323.13 1818.16 1307.45 1840.9 1283.76 1845.22 C 1260.16 1849.53 1237.53 1833.92 1233.16 1810.33 C 1228.79 1786.75 1244.33 1764.07 1267.91 1759.64 z" fill="rgb(186,233,225)" transform="translate(0,0)"></path>
<path d="M 542.198 185.035 C 580.365 186.847 624.177 185.778 662.794 185.909 C 655.445 190.612 634.649 201.433 626.084 205.794 C 590.688 223.82 545.658 250.538 508.074 261.321 C 502.196 263.007 455.19 262.09 446.5 262.032 C 426.668 261.987 340.558 260.281 327.232 264.059 L 327.745 249.091 C 394.266 243.613 483.755 218.044 542.198 185.035 z" fill="rgb(33,58,61)" transform="translate(0,0)"></path>
<path d="M 870.389 185.218 C 907.682 186.876 959.109 184.674 997.181 186.698 C 1002.43 186.978 1036.68 205.691 1045.54 209.256 C 1097.6 230.211 1153.87 245.497 1210.27 246.376 C 1210.78 251.696 1211.45 256.792 1212.16 262.088 C 1169.53 260.284 1126.23 261.805 1083.52 261.921 C 1068.05 261.963 1050.76 263.884 1035.52 261.659 C 1006.87 257.477 900.24 202.223 870.389 185.218 z" fill="rgb(33,58,61)" transform="translate(0,0)"></path>
<path d="M 1268.38 188.67 C 1301.47 183.926 1332.08 207.065 1336.55 240.195 C 1341.01 273.325 1317.61 303.742 1284.45 307.926 C 1251.67 312.061 1221.7 289.002 1217.28 256.266 C 1212.87 223.529 1235.68 193.357 1268.38 188.67 z" fill="rgb(33,58,61)" transform="translate(0,0)"></path>
<path d="M 1270.51 205.056 C 1294.5 201.631 1316.7 218.365 1320.01 242.371 C 1323.33 266.376 1306.49 288.501 1282.47 291.706 C 1258.61 294.89 1236.66 278.187 1233.36 254.336 C 1230.07 230.486 1246.67 208.459 1270.51 205.056 z" fill="rgb(186,233,225)" transform="translate(0,0)"></path>
<path d="M 1332.65 291.893 C 1332.86 296.16 1316.31 328.379 1313.79 336.708 C 1309.4 351.227 1306.43 362.285 1303.64 377.529 C 1290.53 449.064 1277.41 521.072 1262.12 592.153 C 1259.67 603.524 1250.05 649.951 1246.47 658.88 C 1245.99 651.789 1246.15 644.472 1246.15 637.348 C 1246.44 573.974 1245.22 510.548 1245.42 447.179 C 1245.55 406.245 1273.25 356.949 1299.05 326.359 C 1309.27 314.239 1321.23 302.851 1332.65 291.893 z" fill="rgb(33,58,61)" transform="translate(0,0)"></path>
<path d="M 202.261 293.558 C 209.772 295.731 227.335 316.998 233.399 323.328 C 260.933 352.102 284.757 393.065 288.389 433.502 C 290.585 457.944 289.198 488.872 289.142 513.816 C 288.878 560.616 289.062 607.418 289.694 654.216 C 281.042 645.671 238.543 403.949 231.177 375.587 C 223.787 347.132 221.054 323.82 202.261 293.558 z" fill="rgb(33,58,61)" transform="translate(0,0)"></path>
<path d="M 1247.42 1403.83 C 1250.5 1407.01 1263.98 1474.09 1266.19 1484.34 C 1284.46 1568.99 1300.3 1654.08 1325.9 1736.96 C 1329.21 1747.68 1335.22 1757.46 1338.44 1768.26 C 1333.08 1762.73 1326.95 1752.98 1321.82 1746.71 C 1287.85 1705.21 1246.1 1655.13 1247.89 1598.31 C 1248.25 1586.86 1248.08 1574.98 1248.04 1563.42 L 1247.82 1464.13 C 1247.82 1444.94 1248.37 1422.74 1247.42 1403.83 z" fill="rgb(33,58,61)" transform="translate(0,0)"></path>
<path d="M 288.314 1403.71 C 289.416 1408.83 288.882 1434.89 288.863 1441.34 L 288.865 1520.11 L 289.039 1592.43 C 289.078 1604.66 290.176 1617.98 288.734 1630.09 C 287.622 1639.43 233.366 1731.49 224.954 1741.35 C 221.391 1745.53 215.211 1749 210.815 1752.36 C 210.436 1747.84 213.023 1739.5 214.245 1734.74 C 239.638 1635.66 259.493 1535.26 281.83 1435.47 C 284.178 1424.98 285.553 1414.1 288.314 1403.71 z" fill="rgb(33,58,61)" transform="translate(0,0)"></path>
<path d="M 1015.39 186.266 C 1041.12 185.505 1069.2 185.979 1095.07 185.938 L 1251.03 185.991 C 1235.74 194.682 1231.82 197.074 1221.57 211.647 C 1214.68 223.567 1213.6 226.664 1210.67 240.151 C 1148.15 238.169 1069.72 217.286 1015.39 186.266 z" fill="rgb(33,58,61)" transform="translate(0,0)"></path>
<path d="M 285.414 185.364 C 322.913 185.886 360.776 185.2 398.347 185.333 C 439.956 185.48 483.124 186.694 524.636 185.205 C 513 191.174 498.795 196.809 486.598 201.966 C 437.389 224.094 379.911 234.515 326.713 241.444 C 322.109 212.157 311.278 199.009 285.414 185.364 z" fill="rgb(33,58,61)" transform="translate(0,0)"></path>
<path d="M 1200.65 1809.35 C 1203.29 1808.96 1205.21 1808.31 1207.55 1809.42 C 1210.6 1814.92 1211.56 1821.4 1213.72 1827.31 C 1220.46 1845.75 1233.85 1856.28 1250.62 1864.76 C 1229.24 1865.46 1204.95 1865.03 1183.39 1865.07 L 1061.94 1865.23 L 1013.54 1865.7 C 1053.6 1841.38 1151.92 1816.28 1200.65 1809.35 z" fill="rgb(33,58,61)" transform="translate(0,0)"></path>
<path d="M 327.542 1815.08 C 389.857 1813.91 462.23 1837.36 517.364 1864.97 L 479.5 1864.98 L 290.346 1865.09 C 291.622 1864.3 292.893 1863.5 294.16 1862.69 C 313.845 1850.1 322.548 1837.72 327.542 1815.08 z" fill="rgb(33,58,61)" transform="translate(0,0)"></path>
<path d="M 1247.32 1653.79 C 1249.16 1655.63 1257.71 1672.76 1259.51 1676.19 C 1272.41 1700.79 1288.77 1721.33 1306.74 1742.41 C 1303.7 1741.47 1299.34 1739.75 1296.25 1738.63 C 1276.57 1731.87 1262.73 1736.88 1243.96 1743.09 C 1249.97 1727.38 1247.37 1674.15 1247.32 1653.79 z" fill="rgb(33,58,61)" transform="translate(0,0)"></path>
<path d="M 1245.33 306.555 C 1265.65 316.036 1278.13 317.045 1300.3 312.241 C 1285.48 329.165 1276.01 342.192 1264.52 361.231 C 1257.29 373.394 1251.74 385.144 1245.86 397.976 C 1245.96 368.582 1246.56 335.687 1245.33 306.555 z" fill="rgb(33,58,61)" transform="translate(0,0)"></path>
<path d="M 288.736 1656.94 C 289.753 1658.59 289.328 1731.2 289.334 1739.48 C 273.843 1733.4 264.072 1732.79 247.942 1734.2 C 244.898 1734.78 244.899 1735.28 242.397 1734.42 C 245.441 1727.85 254.061 1714.8 258.247 1707.9 C 268.567 1691.01 278.731 1674.02 288.736 1656.94 z" fill="rgb(33,58,61)" transform="translate(0,0)"></path>
<path d="M 289.797 307.951 C 290.515 311.514 290.122 331.218 290.102 335.827 L 290.039 394.171 C 283.847 379.799 278.431 369.629 270.238 356.327 C 257.86 337.34 250.294 328.448 234.692 312.274 C 255.605 318.318 270.613 317.632 289.797 307.951 z" fill="rgb(33,58,61)" transform="translate(0,0)"></path>
<metadata><recraft-signature>{"signed_by": "recraft", "signature_b64": "RjjKsRyxPgDXYMwBKyQf7WKGRpaccs2sffza1bB5gTLWhrrrjNRgVOlQKgJOeEF0YEKx+SDqrsa1ErNE13JtDw==", "signing_algo": "Ed25519", "generation_timestamp": 1783732015, "identifier": "3836a600-67dc-4bdc-816e-e7dd5e84d553"}</recraft-signature></metadata></svg>