<svg xmlns="http://www.w3.org/2000/svg" height="1024" preserveAspectRatio="none" style="display: block;" version="1.1" viewBox="0 0 2048 2048" width="1024">
<path d="M 0 0 L 2048 0 L 2048 2048 L 0 2048 L 0 0 z" fill="rgb(36,37,42)" transform="translate(0,0)"></path>
<path d="M 811.655 433.344 C 806.563 415.19 805.371 401.789 803.855 383.692 C 800.014 341.204 806.843 298.479 828.963 261.415 C 852.232 222.424 877.524 186.555 880.78 139.433 C 882.367 116.452 878.375 97.1868 876.795 74.6733 C 876.381 68.7766 885.724 65.3227 890.334 69.5702 C 901.735 89.9166 902.402 119.224 902.055 142.188 C 900.563 172.018 889.306 204.459 874.738 229.304 C 851.264 269.342 831.979 290.34 827.292 339.296 C 823.439 379.535 830.244 399.301 834.538 436.512 C 873.049 443.381 911.104 452.595 948.491 464.101 C 946.335 390.519 958.115 331.605 1011.03 277.755 C 1048.26 239.873 1069.63 197.545 1069.76 144.179 C 1069.78 136.999 1067.58 120.385 1072.96 115.322 C 1074.65 113.718 1076.98 112.98 1079.28 113.321 C 1093.71 115.5 1088.4 171.12 1086.99 181.514 C 1085.77 190.66 1083.83 199.694 1081.18 208.531 C 1066.49 257.239 1039.4 279.134 1008.97 316.153 C 971.38 361.889 971.698 417.584 973.181 473.377 C 1008.15 486.46 1048.41 501.875 1081.62 519.12 C 1086.31 479.395 1102.49 434.974 1126.43 403.257 C 1154.2 366.456 1196.58 344.104 1218.75 303.105 C 1233.78 275.325 1238.73 250.944 1243.44 220.279 C 1244.31 214.598 1247.75 210.102 1253.66 209.26 C 1270.75 215.856 1251.68 280.556 1247.2 293.541 C 1225.2 357.288 1160.94 384.324 1130.3 441.286 C 1114.13 471.121 1109.81 499.242 1103.18 531.193 C 1139.92 551.292 1168.43 567.919 1203.21 591.634 C 1219.59 538.896 1257.92 497.57 1304.36 469.193 C 1350.23 441.16 1386.09 405.522 1401.43 352.656 C 1404.32 342.687 1406.91 320.709 1415.52 315.276 C 1419.58 315.078 1417.65 314.667 1421.4 317.005 C 1427 325.528 1422.81 339.472 1421.31 348.811 C 1413.54 397.113 1380.08 446.296 1339.65 473.844 C 1282.94 512.483 1246.52 536.557 1222.41 604.638 C 1247.35 623.479 1284.3 650.57 1306.45 671.66 C 1329.18 643.576 1348.84 620.131 1378.81 599.234 C 1419.82 570.643 1469.79 563.172 1506.76 528.782 C 1535.3 502.228 1553.17 470.25 1565.45 433.688 C 1566.33 431.059 1570.08 428.621 1572.77 428.135 C 1588.8 432.773 1574.25 459.021 1570.53 469.927 C 1550.83 527.614 1510.67 564.289 1455.28 587.131 C 1398.19 609.926 1359.26 634.349 1325.79 689.517 C 1359.88 719.772 1376.06 738.457 1406.85 770.535 C 1453.43 729.561 1495.52 704.849 1555.67 688.914 C 1582.5 681.808 1611.87 671.998 1635.21 657.255 C 1670.12 635.1 1684 600.548 1703.29 566.098 C 1705.84 561.552 1713.16 562.102 1716.57 566.705 C 1719 576.047 1702.45 610.03 1697.18 619.286 C 1648.28 705.245 1583.74 698.123 1504.25 731.557 C 1474.77 743.959 1445.73 766.894 1421.74 788.711 C 1448.01 820.148 1471.64 853.696 1492.4 889.015 C 1531.6 860.027 1570.47 837.598 1619.16 827.85 C 1668.31 818.007 1721.53 821.635 1764.97 792.226 C 1787.61 777.081 1805.21 757.77 1819.36 734.608 C 1822.94 728.744 1826.31 727.995 1832.15 731.44 C 1833.7 734.401 1834.35 737.304 1832.77 740.467 C 1816.38 773.495 1788.82 806.735 1755.04 822.022 C 1716.49 839.469 1681.91 842.558 1641.21 847.308 C 1590.13 853.911 1544.24 878.227 1504.26 909.93 C 1527.1 952.662 1536.36 974.686 1555.05 1019.65 C 1603.87 992.608 1668.39 967.159 1725.04 973.14 C 1792.2 980.231 1859.18 986.564 1909.42 930.243 C 1915.55 923.368 1923.3 905.167 1933.29 907.134 C 1944.15 917.111 1917.64 947.739 1910.26 955.159 C 1879.75 985.836 1834 1001.29 1791.25 1001.14 C 1770.11 1001.07 1749.43 996.94 1728.24 996.269 C 1671.99 994.487 1610.19 1013.37 1561.98 1042.71 C 1572.32 1075.41 1578.27 1098.39 1582.48 1132.6 C 1638.79 1122.65 1695.63 1125.3 1743.99 1158.69 C 1796.81 1195.18 1817.18 1250.35 1880.43 1271.33 C 1902.9 1278.56 1926.56 1281.31 1950.08 1279.44 C 1958.72 1278.82 1980.81 1273.45 1981.82 1283.52 C 1981.98 1285.14 1982.28 1288.36 1980.92 1289.53 C 1970.07 1297.81 1938.8 1299.86 1926.47 1300.53 C 1883.35 1302.88 1834.88 1281.34 1804.88 1250.36 C 1746.01 1189.55 1719.93 1149.26 1627.85 1151.65 C 1613.55 1152.08 1599.27 1153.02 1585.03 1154.48 C 1592.23 1212.83 1581.82 1279.3 1558.26 1333.16 C 1628.58 1361.1 1678.65 1461.39 1707.69 1527.38 C 1744.69 1611.47 1776.71 1729.7 1885.01 1742.94 C 1895.89 1744.27 1907.47 1745.46 1918.06 1747.87 C 1923.82 1749.67 1924.23 1763.15 1912.51 1764.45 C 1767.21 1780.61 1725.42 1628.16 1678.33 1524.35 C 1652.12 1466.62 1619.82 1403.7 1567.36 1365.56 C 1561.58 1361.36 1552.5 1359.12 1546.13 1355.66 C 1518.35 1405.69 1490.73 1442.61 1446.8 1479.25 C 1442.7 1482.16 1432.38 1489.16 1429.28 1492.26 C 1428.91 1492.41 1408.63 1505.44 1407.79 1506.2 C 1400.22 1513.09 1350.6 1530.08 1346.76 1533.8 C 1338.48 1535.56 1331.4 1536.16 1326.08 1543.06 L 1323.98 1539.99 C 1320.6 1540 1297.61 1546.94 1291.47 1547.91 C 1269.32 1551.41 1249.82 1552.44 1227.54 1552.89 C 1241.42 1609.1 1216.31 1673.08 1190.17 1722.55 C 1172.4 1756.17 1157.51 1777.23 1149.42 1816.45 C 1141.91 1852.88 1140.84 1888.57 1146.53 1925.51 C 1148.19 1937.34 1153.1 1949.09 1153.87 1960.96 C 1154.2 1965.99 1148.49 1967.55 1144.29 1966.4 C 1135.23 1958.99 1127.97 1932.67 1125.87 1921.55 C 1116.33 1871.08 1121.84 1810.02 1142.43 1763.26 C 1175.57 1688.01 1217.77 1639.14 1201.47 1551.19 C 1159.25 1546.97 1136.64 1542.44 1096.46 1532.3 C 1093.78 1586.93 1070.16 1640.82 1040.04 1686.27 C 1033.4 1696.28 1023.01 1707.95 1015.56 1717.95 C 998.717 1740.53 986.802 1766.4 980.59 1793.89 C 971.54 1833.28 974.938 1876.82 979.144 1916.58 C 980.293 1927.44 971.23 1932.06 967.77 1926.42 C 961.973 1916.96 958.651 1892.81 957.183 1881.29 C 949.816 1823.46 955.478 1763.86 990.151 1715.08 C 1032.52 1658.34 1069.96 1599.52 1071.94 1525.26 C 1061.71 1521.41 1049.23 1517.99 1038.43 1514.14 C 1014.21 1505.53 990.459 1495.66 967.273 1484.57 C 961.61 1535.74 920.298 1600.33 879.716 1631.38 C 823.229 1674.58 807.954 1735.67 804.118 1803.56 C 803.581 1813.07 805.451 1829.72 794.923 1832.57 C 785.83 1830.13 787.301 1818.33 786.869 1810.39 C 783.564 1749.72 797.674 1675.32 844.429 1632.77 C 896.712 1585.19 930.008 1548.17 945.19 1475.98 C 934.479 1469.29 920.53 1462.51 909.283 1456.31 C 886.357 1443.69 863.705 1431.51 841.921 1416.92 C 830.634 1455.31 794.496 1504.07 765.106 1530.05 C 733.054 1558.38 697.491 1581.11 677.09 1620.69 C 660.435 1653 651.131 1687.28 649.275 1723.6 C 649.049 1728.12 648.548 1732.89 645.012 1736.04 C 640.395 1737.98 633.709 1736.13 633.351 1730.99 C 628.698 1664.15 655.221 1595.32 705.556 1550.58 C 731.232 1528 756.166 1507.52 778.31 1481.27 C 799.819 1455.76 809.315 1433.28 822.864 1403.84 C 818.681 1400.37 812.749 1396.14 808.192 1393.1 C 778.968 1373.59 752.82 1351.48 725.417 1329.66 C 711.319 1366.29 673.726 1405.25 642.011 1428.22 C 603.749 1455.92 558.94 1476.46 532.405 1517.62 C 514.133 1545.63 502.883 1576.71 496.542 1609.35 C 495.47 1614.86 490.33 1621.19 483.981 1619.82 C 476.252 1613.21 483.829 1582.52 485.792 1573.46 C 499.09 1512.06 535.274 1468.8 587.799 1436.31 C 627.863 1411.52 667.543 1381.14 691.793 1340.11 C 696.874 1331.51 701.266 1322.25 705.64 1313.32 C 679.461 1286.59 650.785 1261.46 626.672 1233.08 C 604.522 1272.45 562.953 1305.62 521.701 1323.11 C 496.79 1333.68 473.884 1339.76 449.881 1354.12 C 406.838 1379.88 377.822 1419.94 363.508 1467.74 C 360.344 1478.3 360.865 1495.16 345.294 1488.37 C 344.251 1487.17 342.976 1486.33 343.083 1484.73 C 348.147 1408.48 403.736 1346.22 472.73 1318.15 C 488.163 1311.71 503.671 1305.55 518.963 1298.78 C 560.459 1280.44 585.483 1251.84 610.827 1215.83 C 586.217 1186.01 560.856 1154.67 538.909 1122.81 C 490.924 1176.91 445.698 1196.64 377.084 1212.2 C 319.01 1225.37 267.299 1255.77 239.158 1309.13 C 236.5 1314.17 229.875 1331.65 222.355 1328.14 C 212.968 1315.63 230.006 1290.99 236.533 1280.08 C 270.477 1223.09 327.393 1201.61 388.543 1186.21 C 445.863 1171.76 489.704 1146.74 526.627 1100.06 C 509.61 1072.65 486.537 1030.28 473.574 1000.77 C 416.77 1050.22 373.864 1064.87 298.757 1069.62 C 269.141 1071.5 239.939 1076.01 212.514 1087.87 C 199.089 1093.58 186.404 1100.9 174.736 1109.66 C 166.038 1116.14 157.967 1123.14 150.081 1130.71 C 144.209 1136.34 139.358 1145.29 130.96 1147.5 C 128.041 1148.27 126.425 1147.82 123.839 1146.38 C 118.192 1136.96 138.938 1118.28 145.425 1110.76 C 187.413 1062.06 248.528 1048.56 310.331 1045.28 C 376.539 1041.77 412.98 1021.07 462.959 979.726 C 448.697 948.476 436.888 911.988 427.947 878.955 C 362.083 915.616 320.282 927.305 244.773 909.664 C 212.574 902.141 180.67 900.454 147.916 906.107 C 132.209 908.758 116.848 913.16 102.12 919.23 C 92.0204 923.487 78.1956 933.556 67.4904 929.213 C 64.7692 926.209 65.4846 927.902 65.0543 924.053 C 68.2566 914.727 83.8947 907.983 92.9922 903.401 C 135.858 881.811 184.017 874.494 231.107 884.596 C 256.383 890.019 282.738 895.683 308.853 893.783 C 350.476 890.754 386.3 877.972 422.044 857.121 C 415.817 828.557 414.472 788.485 414.904 759.309 C 362.53 780.764 294.77 781.689 243.99 755.562 C 218.98 742.987 193.42 726.17 166.088 719.336 C 133.365 711.154 98.5752 712.284 65.1972 714.508 C 60.7678 714.803 52.2776 711.167 53.7738 705.188 C 61.0813 696.548 91.2271 695.797 102.884 694.694 C 142.971 690.904 187.967 696.433 222.735 718.561 C 283.808 757.431 346.822 762.984 414.562 733.151 C 421.501 696.979 426.778 671.466 440.211 636.775 C 429.635 638.539 414.202 638.675 403.244 638.73 C 348.772 639.009 302.059 623.681 259.027 590.049 C 237.091 572.905 216.518 552.498 191.251 540.295 C 165.087 527.414 136.637 521.779 108.072 517.14 C 100.758 515.953 83.5807 516.929 79.6143 510.638 C 78.2306 508.444 78.2665 506.01 78.7692 503.522 C 85.6234 494.814 122.583 500.908 134.084 501.802 C 189.322 506.097 230.173 534.322 270.951 569.604 C 323.698 615.242 384.488 620.521 451.353 612.676 C 468.313 578.591 481.722 558.493 503.621 527.647 C 443.947 525.324 374.132 497.383 335.866 452.223 C 295.204 404.236 261.129 370.314 198.187 354.727 C 183.526 351.096 166.699 351.744 153.081 346.129 C 150.95 345.251 150.455 342.44 150.103 340.488 C 150.762 338.724 150.853 337.447 152.245 336.524 C 158.011 332.703 181.12 335.404 188.013 335.956 C 252.723 341.139 297.229 372.679 338.68 420.328 C 355.633 439.815 375.592 459.651 398.367 472.48 C 425.473 487.749 452.202 498.332 483.337 502 C 495.341 503.415 509.648 504.041 521.228 506.074 C 529.08 498.789 537.607 491.869 545.884 485.05 C 530.847 461.796 517.356 446.177 505.883 419.081 C 489.786 381.088 482.924 336.482 466.513 299.052 C 442.726 244.797 402.725 205.799 346.006 188.647 C 342.135 187.476 336.59 185.215 334.828 181.209 C 334.866 177.287 334.334 179.028 336.397 175.769 C 347.69 168.876 382.546 184.63 394.931 190.034 C 450.569 214.313 486.521 275.521 501.873 332.206 C 517.114 388.483 526.211 426.641 568.477 470.194 C 596.083 455.437 641.467 435.829 673.014 433.996 C 679.526 434.675 694.11 432.575 700.529 431.104 C 728.411 426.809 783.553 428.036 811.655 433.344 z" fill="rgb(160,225,210)" transform="translate(0,0)"></path>
<path d="M 500.472 569.028 C 506.648 557.123 514.227 543.037 522.225 532.514 C 547.226 499.618 594.438 474.003 633.587 462.449 C 787.794 416.938 968.416 481.15 1103.58 552.355 C 1158.95 582.219 1211.35 617.282 1260.08 657.071 C 1391.36 762.49 1495.84 889.502 1544.76 1052.63 C 1569.85 1136.33 1579.33 1198.44 1553.36 1283.83 C 1549.34 1290.28 1545.08 1298.5 1541.55 1305.34 C 1511.89 1362.74 1446.62 1408.2 1384.34 1425.6 C 1232.68 1466.29 1069.27 1409.48 936.372 1336.84 C 825.207 1276.08 720.936 1190.57 641.423 1091.76 C 575.103 1009.35 527.366 923.671 498.32 821.851 L 491.354 796.098 C 485.892 769.736 481.045 748.133 479.253 721.304 C 479.075 711.117 478.476 700.508 478.049 690.295 C 477.006 647.322 484.602 608.909 500.472 569.028 z" fill="rgb(2,46,59)" transform="translate(0,0)"></path>
<path d="M 720.496 460.582 C 853.567 450.882 1025.64 517.076 1137 585.599 C 1339.32 710.085 1520.01 903.565 1553.93 1147.01 C 1576.05 1305.7 1474.52 1408.37 1322.76 1425.2 C 1318.73 1425.83 1314.35 1426.13 1310.23 1426.38 C 1121.24 1437.93 907.741 1326.66 768.913 1206.48 C 628.69 1085.09 504.926 906.157 490.841 716.76 C 486.455 657.779 496.546 577.78 537.264 532.757 C 582.897 482.299 655.046 464.123 720.496 460.582 z" fill="rgb(77,181,171)" transform="translate(0,0)"></path>
<path d="M 777.15 555.582 C 899.757 542.742 1073.63 634.912 1169.38 704.392 C 1209.38 733.289 1247.12 765.186 1282.28 799.808 C 1352.82 870.2 1430.59 973.354 1446.64 1074.49 C 1466.15 1197.43 1399.05 1310.15 1270.77 1329.01 C 1267.86 1329.46 1264.94 1329.85 1262.01 1330.17 C 1124.55 1345.05 953.326 1246.77 848.974 1161.65 C 738.913 1071.88 620.89 935.714 601.297 788.875 C 593.98 734.035 610.093 666.173 645.976 624.022 C 683.044 580.48 721.086 561.392 777.15 555.582 z" fill="rgb(2,46,59)" transform="translate(0,0)"></path>
<path d="M 785.738 567.434 C 805.037 565.538 840.218 570.066 859.936 573.91 C 981.428 597.594 1109.23 670.013 1205.21 747.257 C 1301.49 824.742 1422.65 962.048 1436.22 1090.9 C 1442.13 1146.96 1427.21 1206.75 1391.01 1250.88 C 1359.34 1288.81 1314.11 1312.86 1264.96 1317.91 C 1260.49 1318.52 1256 1319.02 1251.51 1319.42 C 1114.66 1330.83 931.146 1218.46 830.671 1131.74 C 704.274 1022.66 522.633 788.71 661.938 623.909 C 693.74 586.286 737.493 570.778 785.738 567.434 z" fill="rgb(77,181,171)" transform="translate(0,0)"></path>
<path d="M 788.104 580.407 C 912.784 576 1079.67 668.508 1178.98 745.11 C 1311.54 847.36 1522.43 1081.94 1370.19 1252.8 C 1343.1 1283.2 1298.4 1299.75 1258.23 1304.92 C 1256.13 1305.12 1254.02 1305.3 1251.92 1305.46 C 1226.18 1307.38 1200.3 1305.93 1174.94 1301.13 C 1146.64 1295.81 1118.67 1286.01 1091.93 1275.48 C 997.386 1237.48 910.041 1183.59 833.67 1116.14 C 743.589 1038.02 636.625 902.858 625.091 778.627 C 620.349 727.557 637.536 671.544 671.794 633.297 C 703.388 598.025 741.757 583.626 788.104 580.407 z" fill="rgb(2,46,59)" transform="translate(0,0)"></path>
<path d="M 1136.67 973.464 C 1176.54 983.231 1225.95 993.672 1266.16 1001.5 L 1267.63 1000.19 C 1276.85 1003.6 1287.43 1028.69 1292.48 1038.47 C 1304.8 1061.76 1316.56 1085.33 1327.76 1109.18 C 1331.74 1117.8 1332.7 1120.8 1327.9 1129.67 C 1318.61 1146.81 1305.72 1164.92 1294.89 1180.96 C 1289.48 1188.99 1257.88 1236.47 1252.61 1239.31 C 1231.01 1237.23 1199.27 1229.9 1177.14 1225.41 C 1155.72 1221.07 1128.24 1216.54 1107.61 1211.32 C 1091.24 1166.61 1072.14 1128.49 1055.15 1085.1 C 1073.74 1057.52 1095.35 1031.03 1114.21 1003.49 C 1121.08 993.459 1128.92 982.76 1136.67 973.464 z" fill="rgb(77,181,171)" transform="translate(0,0)"></path>
<path d="M 1266.16 1001.5 L 1267.63 1000.19 C 1276.85 1003.6 1287.43 1028.69 1292.48 1038.47 C 1304.8 1061.76 1316.56 1085.33 1327.76 1109.18 C 1331.74 1117.8 1332.7 1120.8 1327.9 1129.67 C 1318.61 1146.81 1305.72 1164.92 1294.89 1180.96 C 1289.48 1188.99 1257.88 1236.47 1252.61 1239.31 C 1254.06 1232.77 1322.79 1131.75 1330.07 1120.91 C 1316.41 1092.67 1302.24 1064.67 1287.56 1036.95 C 1283.69 1029.48 1272.47 1004.37 1266.16 1001.5 z" fill="rgb(36,37,42)" transform="translate(0,0)"></path>
<path d="M 1142.15 1006.02 C 1154.53 1009.14 1170.53 1011.42 1183.32 1013.95 C 1206.04 1018.45 1228.96 1022.88 1251.85 1026.38 C 1267.62 1058.46 1281.16 1085.11 1295.39 1118.1 C 1276.3 1146.11 1256.53 1173.05 1237.13 1200.8 L 1233.4 1206.03 C 1229.25 1207.47 1137.62 1188.83 1126.53 1186.42 C 1113.32 1153.07 1102.98 1123.68 1087.45 1090.46 C 1106.59 1063.3 1124.47 1034.13 1142.15 1006.02 z" fill="rgb(2,46,59)" transform="translate(0,0)"></path>
<path d="M 1147.06 1015.89 C 1152.03 1017.27 1158.61 1018.59 1163.72 1019.53 C 1190.48 1024.48 1218.13 1031.66 1245.07 1034.71 C 1258.31 1059.95 1272.22 1090.05 1284.84 1115.93 L 1232.23 1191.42 L 1228.96 1195.5 C 1225.12 1196.42 1146.48 1180.98 1134.33 1179.6 C 1124.28 1150.35 1110.46 1119.38 1098.61 1090.72 C 1102.24 1083.91 1113.41 1068.25 1118.04 1061.33 C 1128.06 1046.41 1137.74 1031.26 1147.06 1015.89 z" fill="rgb(160,225,210)" transform="translate(0,0)"></path>
<path d="M 857.496 672.168 C 872.254 670.826 957.209 698.284 960.854 712.163 C 966.39 733.238 968.163 770.925 970.816 793.224 C 974.412 823.457 916.035 861.756 891.836 871.508 C 888.291 871.782 884.726 871.5 881.268 870.672 C 873.173 868.766 861.312 863.83 853.107 860.674 C 835.671 853.966 798.186 847.149 791.725 827.524 C 785.985 808.634 785.77 787.335 782.827 767.836 C 778.731 740.699 769.316 731.056 795.672 713.931 C 815.524 701.033 834.75 680.209 857.496 672.168 z" fill="rgb(77,181,171)" transform="translate(0,0)"></path>
<path d="M 860.395 681.896 C 888.245 688.452 922.476 706.041 948.36 713.828 C 950.254 738.007 963.159 785.767 955.576 806.823 C 950.897 819.814 899.875 855.684 886.601 861.274 C 875.533 861.511 825.279 838.441 814.591 831.592 C 795.924 819.629 791.733 757.647 788.911 735.499 C 803.166 722.428 843.618 693.667 860.395 681.896 z" fill="rgb(2,46,59)" transform="translate(0,0)"></path>
<path d="M 861.208 693.894 C 869.264 695.897 881.257 700.578 889.572 703.481 L 937.976 720.11 C 941.719 740.018 948.287 780.42 947.983 799.556 C 939.448 816.137 902.554 839.578 886.459 850.482 C 886.025 850.674 884.121 850.915 883.565 851.002 C 872.694 847.481 828.293 828.517 820.12 822.704 C 808.022 814.099 802.025 755.606 799.939 739.394 C 806.095 734.052 817.403 726.314 824.274 721.193 C 836.172 712.326 848.903 701.884 861.208 693.894 z" fill="rgb(160,225,210)" transform="translate(0,0)"></path>
<path d="M 819.438 931.355 C 845.614 925.374 871.691 941.713 877.726 967.877 C 883.761 994.04 867.477 1020.15 841.326 1026.24 C 815.098 1032.35 788.893 1016.01 782.84 989.765 C 776.787 963.524 793.185 937.353 819.438 931.355 z" fill="rgb(77,181,171)" transform="translate(0,0)"></path>
<path d="M 1184.81 825.395 C 1206.43 820.132 1228.21 833.452 1233.37 855.096 C 1238.54 876.741 1225.11 898.456 1203.45 903.517 C 1181.92 908.546 1160.38 895.232 1155.25 873.729 C 1150.12 852.227 1163.34 830.623 1184.81 825.395 z" fill="rgb(77,181,171)" transform="translate(0,0)"></path>
<path d="M 700.91 775.546 C 716.767 771.519 732.88 781.137 736.861 797.006 C 740.842 812.874 731.178 828.959 715.298 832.894 C 699.482 836.813 683.478 827.197 679.513 811.393 C 675.548 795.589 685.118 779.557 700.91 775.546 z" fill="rgb(77,181,171)" transform="translate(0,0)"></path>
<path d="M 998.613 921.218 C 1009.57 920.92 1018.13 925.987 1021.52 936.714 C 1023.63 943.323 1022.98 950.503 1019.7 956.62 C 1015.89 963.595 1011.09 966.011 1003.81 968.011 C 998.623 968.22 994.891 968.014 990.221 965.414 C 984.88 962.408 980.97 957.383 979.37 951.467 C 975.045 936 983.646 924.669 998.613 921.218 z" fill="rgb(77,181,171)" transform="translate(0,0)"></path>
<path d="M 929.189 1095.39 C 939.442 1092.15 950.376 1097.88 953.537 1108.16 C 956.698 1118.44 950.875 1129.32 940.569 1132.4 C 930.384 1135.44 919.651 1129.7 916.527 1119.54 C 913.403 1109.38 919.055 1098.6 929.189 1095.39 z" fill="rgb(77,181,171)" transform="translate(0,0)"></path>
<path d="M 1363.1 1155.19 C 1373.38 1152.91 1383.59 1159.33 1385.99 1169.59 C 1388.39 1179.84 1382.09 1190.12 1371.87 1192.64 C 1365.14 1194.3 1358.05 1192.22 1353.29 1187.19 C 1348.53 1182.15 1346.84 1174.95 1348.88 1168.33 C 1350.91 1161.71 1356.34 1156.69 1363.1 1155.19 z" fill="rgb(77,181,171)" transform="translate(0,0)"></path>
<path d="M 1078.91 769.161 C 1088.08 768.747 1095.14 769.797 1099.55 778.608 C 1105.37 790.213 1101.42 798.484 1090.91 803.729 C 1065.1 806.107 1060.39 780.49 1078.91 769.161 z" fill="rgb(77,181,171)" transform="translate(0,0)"></path>
<path d="M 689.355 684.575 C 698.395 681.403 708.301 686.119 711.539 695.135 C 714.776 704.152 710.133 714.092 701.14 717.396 C 692.054 720.733 681.988 716.031 678.717 706.921 C 675.446 697.81 680.221 687.779 689.355 684.575 z" fill="rgb(77,181,171)" transform="translate(0,0)"></path>
<path d="M 498.32 821.851 C 527.366 923.671 575.103 1009.35 641.423 1091.76 C 720.936 1190.57 825.207 1276.08 936.372 1336.84 C 1069.27 1409.48 1232.68 1466.29 1384.34 1425.6 C 1446.62 1408.2 1511.89 1362.74 1541.55 1305.34 C 1545.08 1298.5 1549.34 1290.28 1553.36 1283.83 C 1553.85 1293.09 1543.26 1319.87 1539.51 1329.02 L 1534.59 1339.5 C 1507.37 1389.55 1480.12 1428.08 1436.75 1465.33 C 1417.16 1447.57 1406.97 1437.33 1380.03 1434 C 1392.48 1447.71 1402.41 1464.07 1416.18 1479.25 C 1388.1 1499.23 1369.75 1505.95 1338.52 1518.17 C 1335.32 1513.17 1329.63 1504.03 1325.54 1499.75 C 1306.59 1473.01 1281.85 1458.05 1252.85 1445 C 1272.57 1474.89 1294.02 1493.41 1314.27 1525.37 C 1284.2 1534.25 1252.01 1534.48 1220.93 1535 C 1207.26 1500.92 1170.64 1451.44 1139.55 1431.01 C 1155.56 1454.05 1182.23 1506.01 1194.53 1532.2 C 1158.69 1532.05 1125.95 1520.87 1091.69 1513.62 C 1084.11 1467.52 1055.79 1427.77 1021.45 1397.42 C 1030.6 1415.8 1041.3 1433.07 1050.3 1451.51 C 1058.93 1469.19 1063.79 1486.24 1069.34 1504.97 C 1037.89 1499.69 996.444 1479.5 966.479 1468.02 C 962.205 1427.87 937.525 1376.24 912.577 1344.09 C 926.416 1372.52 939.738 1424.42 943.623 1456.15 C 918.672 1443.43 893.562 1431.21 870.299 1415.52 C 862.636 1410.35 854.696 1405.35 846.953 1400.28 C 848.307 1338.6 833.544 1313.13 799.488 1265.01 C 817.149 1310.96 824.046 1337.61 826.136 1387.77 C 815.764 1379.45 802.394 1371.08 791.515 1362.96 C 769.674 1346.65 749.051 1330.9 729.815 1311.57 C 738.914 1269.51 728.317 1243.99 716.27 1204.64 C 715.692 1215.85 716.107 1229.08 715.754 1240.66 C 715.252 1259.08 713.408 1277.45 710.236 1295.61 C 681.911 1268.78 660.32 1248.05 635 1218.62 C 652.506 1183.31 653.83 1143.66 637.188 1107.83 C 638.538 1147.99 628.667 1164.41 618.106 1199.84 C 591.308 1169.57 572.159 1138.1 548.225 1110.29 C 569.147 1075.92 579.544 1053.34 566.609 1013.61 L 566.505 1014.81 C 564.071 1040.01 548.597 1066.27 535.726 1087.97 C 518.957 1061.6 494.796 1019.2 484.141 990.565 C 512.151 963.111 528.281 944.076 519.246 903.667 C 505.276 937.238 496.133 943.055 473.911 968.704 C 463.671 936.608 449.798 905.584 439.265 871.653 C 461.668 854.988 479.864 844.823 498.32 821.851 z" fill="rgb(77,181,171)" transform="translate(0,0)"></path>
<path d="M 1539.51 1329.02 C 1545.68 1330.34 1552.16 1331.64 1558.26 1333.16 C 1628.58 1361.1 1678.65 1461.39 1707.69 1527.38 C 1744.69 1611.47 1776.71 1729.7 1885.01 1742.94 C 1895.89 1744.27 1907.47 1745.46 1918.06 1747.87 C 1923.82 1749.67 1924.23 1763.15 1912.51 1764.45 C 1767.21 1780.61 1725.42 1628.16 1678.33 1524.35 C 1652.12 1466.62 1619.82 1403.7 1567.36 1365.56 C 1561.58 1361.36 1552.5 1359.12 1546.13 1355.66 C 1542.78 1349.82 1538.48 1348.67 1534.59 1339.5 L 1539.51 1329.02 z" fill="rgb(251,237,208)" transform="translate(0,0)"></path>
<path d="M 479.253 721.304 C 481.045 748.133 485.892 769.736 491.354 796.098 C 487.905 799.025 481.488 808.756 477.624 812.889 C 464.517 826.912 452.128 836.364 436.157 846.476 C 430.336 817.625 428.872 781.149 428.552 751.772 C 448.493 744.95 464.587 736.477 479.253 721.304 z" fill="rgb(77,181,171)" transform="translate(0,0)"></path>
<path d="M 430.973 726.401 C 441.591 670.417 454.748 630.083 486.424 581.987 C 490.606 575.638 498.6 562.919 503.214 557.687 L 503.698 558.384 C 502.149 561.656 501.089 564.074 499.794 567.454 L 500.472 569.028 C 484.602 608.909 477.006 647.322 478.049 690.295 C 460.592 707.477 451.286 713.341 430.973 726.401 z" fill="rgb(77,181,171)" transform="translate(0,0)"></path>
<path d="M 1446.8 1479.25 C 1489.85 1533.37 1505.76 1590.36 1503.86 1658.57 C 1501.81 1732.14 1514 1811.41 1581.41 1853.92 C 1591.55 1860.32 1605.15 1862.29 1605.43 1874.72 C 1604.72 1876.2 1603.4 1878.96 1601.48 1878.61 C 1525.93 1864.78 1486.5 1783.52 1482.09 1713.16 C 1480.45 1687.08 1480.47 1673.73 1480.26 1648.5 C 1480 1577.18 1467.11 1548.73 1429.28 1492.26 C 1432.38 1489.16 1442.7 1482.16 1446.8 1479.25 z" fill="rgb(251,237,208)" transform="translate(0,0)"></path>
<path d="M 1326.08 1543.06 C 1331.4 1536.16 1338.48 1535.56 1346.76 1533.8 C 1404.12 1673.56 1319.8 1726.83 1326.59 1848.88 C 1327.49 1867.62 1330.91 1886.14 1336.76 1903.96 C 1340.25 1914.5 1361.03 1949.67 1358.71 1957.04 C 1358.23 1958.58 1357.37 1958.71 1356.1 1959.53 C 1351.49 1959.58 1348.06 1957.3 1344.92 1954.04 C 1315.45 1923.48 1302.76 1876.79 1302.76 1835.88 C 1302.74 1750.78 1354.16 1682.54 1340.19 1594.73 C 1337.71 1579.16 1333.37 1557.02 1326.08 1543.06 z" fill="rgb(251,237,208)" transform="translate(0,0)"></path>
<path d="M 673.014 433.996 C 664.976 399.597 662.036 364.205 664.287 328.952 C 669.904 251.244 684.915 189.665 645.086 117.163 C 641.815 111.208 629.335 91.3563 629.691 86.2432 C 631.201 82.969 631.02 83.1533 634.14 81.3519 C 645.632 81.1818 657.918 105.261 663.272 113.933 C 692.91 161.563 700.884 219.738 693.476 274.823 C 685.75 332.286 684.651 374.34 700.529 431.104 C 694.11 432.575 679.526 434.675 673.014 433.996 z" fill="rgb(251,237,208)" transform="translate(0,0)"></path>
<metadata><recraft-signature>{"signed_by": "recraft", "signature_b64": "RwyCNO44GNtoSv3sKIuIyajPnGUqcVG/gm+K5QConBbvpsLeRuGrIpnA0ggq0a9R9TC7yBWU1m3dRnUVQFG2AA==", "signing_algo": "Ed25519", "generation_timestamp": 1783732004, "identifier": "022400b9-ee85-49f8-8bb3-aafe29b7d519"}</recraft-signature></metadata></svg>