<svg xmlns="http://www.w3.org/2000/svg" height="1024" preserveAspectRatio="none" style="display: block;" version="1.1" viewBox="0 0 2048 2048" width="1024">
<defs>
	<linearGradient gradientUnits="userSpaceOnUse" id="Gradient1" x1="1336.57" x2="1886.64" y1="1040.05" y2="730.553">
		<stop class="stop0" offset="0" stop-color="rgb(92,151,139)" stop-opacity="1"></stop>
		<stop class="stop1" offset="1" stop-color="rgb(179,229,215)" stop-opacity="1"></stop>
	</linearGradient>
	<linearGradient gradientUnits="userSpaceOnUse" id="Gradient2" x1="260.904" x2="1184.32" y1="698.484" y2="1009.65">
		<stop class="stop0" offset="0" stop-color="rgb(115,166,154)" stop-opacity="1"></stop>
		<stop class="stop1" offset="1" stop-color="rgb(146,201,190)" stop-opacity="1"></stop>
	</linearGradient>
</defs>
<path d="M 0 0 L 2048 0 L 2048 2048 L 0 2048 L 0 0 z" fill="rgb(21,21,21)" transform="translate(0,0)"></path>
<path d="M 833.24 178.653 C 824.493 163.474 814.892 148.803 804.484 134.711 C 799.241 127.736 776.943 101.467 776.458 94.8828 C 781.638 88.0848 816.901 82.8877 827.332 80.732 C 843.448 106.049 849.785 140.204 858.486 168.618 C 866.792 172.642 883.206 176.216 892.527 177.979 C 952.049 189.241 1080.98 219.95 1132.7 186.202 C 1129.8 159.376 1111.44 127.004 1108.19 101.228 C 1124.71 100.429 1144.38 103.123 1160.49 106.728 C 1160.67 119.872 1163.83 133.366 1165.36 146.502 C 1166.87 159.387 1167.5 172.102 1168.22 185.045 C 1206.26 247.183 1342.73 293.472 1411.47 310.034 C 1416.28 292.058 1416.56 268.777 1415.81 250.14 C 1415.54 243.377 1408.77 229.135 1413.72 224.758 C 1426.56 227.168 1448.39 238.732 1451.9 251.681 C 1457.15 271.072 1444.06 299.735 1436.21 317.149 L 1442.82 325.612 C 1452.03 334.131 1460.44 343.884 1469.91 352.204 C 1515.26 392.086 1557.89 429.823 1609.52 461.436 C 1628.11 427.365 1626.5 423.433 1629.7 388.329 C 1642.4 394.12 1655.98 407.874 1662.64 419.936 C 1658.59 431.302 1644.01 460.401 1637.32 470.616 C 1658.17 522.32 1683.1 561.072 1719.58 603.539 C 1730.7 616.49 1744.64 632.927 1757.99 643.265 C 1769.72 636.24 1801.1 616.755 1814.56 617.473 C 1828.78 618.232 1839.03 640.2 1843.04 653.156 C 1819.91 651.67 1794.91 650.373 1774.8 664.514 C 1774.33 682.515 1782.46 727.353 1785.62 746.919 C 1789.71 772.906 1794.15 798.836 1798.94 824.701 C 1805.1 857.342 1809.33 882.425 1831.8 908.688 L 1842.33 911.415 C 1849.56 909.52 1858.33 906.792 1864.98 904.059 C 1896.34 891.164 1924.26 871.015 1934.72 918.795 C 1935.58 922.733 1936.04 926.697 1936.37 930.907 C 1903.69 920.207 1885.91 938.669 1858.19 943.3 L 1857.91 943.617 L 1860.51 945.349 C 1859.42 951.869 1851.81 966.92 1848.96 973.83 C 1831.62 1015.9 1833.43 1057.22 1836.14 1102.01 C 1838.63 1143.12 1841.05 1187.46 1847.32 1228.76 C 1875.85 1223.02 1908.04 1217.42 1936.29 1227.96 C 1939.96 1244.47 1942.15 1255.17 1943.05 1272.37 C 1923.24 1267.43 1903.13 1263.81 1882.84 1261.53 C 1870.85 1260.27 1849.58 1260.81 1840.02 1255.05 L 1839.9 1256.97 C 1845.41 1264.22 1845.27 1264.71 1841.28 1272.89 C 1803.32 1350.55 1731.68 1430.02 1751.75 1522.3 C 1756.34 1543.44 1799.78 1569.82 1817.79 1580.23 C 1811.86 1586.09 1786.71 1604.77 1779.59 1609.29 C 1765.35 1596.48 1750.81 1584.03 1736.89 1570.88 C 1731.57 1565.85 1726.21 1560.87 1719.92 1557.06 C 1670.57 1560.94 1648.95 1573.11 1617.01 1608.77 C 1586.73 1642.58 1556.84 1676.33 1557.97 1725.38 C 1558.51 1749.18 1578.2 1763.43 1595.88 1775.72 C 1603 1780.6 1609.18 1783.35 1615.83 1789.45 C 1615.29 1792.06 1579.03 1813.54 1572.64 1818.01 C 1565.54 1811.03 1558.44 1804.98 1551.42 1797.58 C 1536.65 1782.01 1521.43 1757.25 1500 1751.14 C 1483.04 1746.31 1453.96 1749.47 1437.53 1754.81 C 1396.54 1768.12 1353.82 1789.76 1314.92 1808.48 C 1279.73 1825.41 1240.42 1842.67 1206.79 1861.94 C 1215.57 1886.48 1224.84 1910.5 1240.89 1931.14 C 1244.12 1935.29 1253.92 1942.94 1250.44 1947.86 C 1241.67 1952.32 1209.89 1954.33 1198.75 1955.02 C 1185.11 1931.33 1181.03 1893.65 1176.25 1866.27 C 1158.31 1856 1100.18 1842.95 1078.52 1839.11 C 1015.67 1827.97 946.025 1812.46 889.414 1850.62 C 890.828 1868.87 894.327 1886.53 898.052 1904.35 C 899.659 1912.04 908.388 1934.97 908.351 1937.42 C 901.416 1940.69 863.675 1931.92 853.442 1930.02 C 845.424 1904.43 850.083 1872.23 851.019 1846.88 C 851.735 1827.52 820.014 1790.58 805.661 1777.43 C 761.658 1737.54 706.446 1712.2 646.295 1712.83 C 600.84 1713.3 596.981 1755.35 590.467 1790.81 C 589.615 1795.45 589.38 1805.28 586.452 1808.49 C 577.213 1807.89 547.714 1791 538.217 1786.02 C 544.237 1761.91 555.088 1738.91 568.352 1718.04 C 564.531 1637.64 519.184 1586.61 463.351 1534.51 C 436.942 1509.87 409.808 1486.29 379.844 1466.03 C 374.761 1462.59 360.376 1450.53 355.902 1449.64 C 348.661 1476.85 288.504 1502.82 264.053 1514.19 C 249.408 1492.61 241.683 1483.6 222.355 1466.21 C 232.676 1464.03 244.969 1463.72 255.563 1461.14 C 287.795 1453.27 317.958 1440.01 344.408 1420.24 C 343.81 1416.56 343.186 1412.89 342.533 1409.22 C 337.644 1381.5 332.684 1365.89 324.22 1339.65 C 300.381 1265.74 272.317 1222.22 208.381 1177.45 C 179.898 1196.26 156.706 1201.58 122.421 1201.97 C 109.626 1188.85 99.4833 1167.97 94.9636 1150.23 C 125.6 1154.01 140.933 1159.05 172.999 1148.73 C 221.313 1133.18 234.235 1086.79 237.507 1041.07 C 239.873 1007.99 231.373 969.919 225.732 937.145 C 219.736 902.302 213.301 864.435 201.371 831.023 C 157.603 832.368 123.769 831.041 83.9078 808.825 C 84.05 797.803 82.3848 764.644 85.2067 756.912 C 87.2556 756.236 103.225 765.813 106.755 767.647 C 137.923 783.795 170.998 795.958 205.202 803.85 C 232.449 749.17 260.533 690.345 287.277 635.275 C 300.669 607.697 292.644 551.233 280.038 522.601 C 253.85 513.836 221.223 506.523 204.908 481.78 C 208.792 465.722 217.077 445.274 223.175 429.879 C 251.935 469.224 292.619 498.338 343.189 486.111 C 385.973 475.766 421.176 452.384 447.038 416.927 C 465.71 391.329 488.174 351.217 481.485 318.674 C 476.135 292.65 428.227 265.187 406.364 251.768 C 419.905 239.452 432.269 234.044 448.876 217.682 C 459.651 226.102 469.958 234.531 480.119 243.806 C 488.996 251.908 499.442 265.868 509.018 272.253 C 512.681 274.695 531.795 279.548 536.507 280.618 C 560.197 285.998 598.421 285.865 621.943 279.655 C 648.44 272.66 686.559 253.841 712.288 241.125 C 749.531 222.72 799.227 200.775 833.24 178.653 z" fill="rgb(21,21,21)" transform="translate(0,0)"></path>
<path d="M 508.326 1539.58 C 498.807 1523.99 430.899 1466.77 413.246 1450.44 C 408.023 1445.61 386.262 1428.23 384.406 1424.1 C 367.152 1385.65 354.33 1325.46 343.551 1285.68 C 306.997 1150.79 270.827 1016.14 246.022 878.695 C 244.694 865.086 234.158 823.445 238.215 812.407 C 317.961 595.455 472.226 413.715 670.312 295.373 C 729.178 260.205 792.478 229.952 856.431 205.708 C 869.26 200.845 942.588 214.803 960.013 217.161 C 1046.72 232.473 1135 249.639 1219.25 276.013 C 1275.39 292.839 1340 318.571 1395.41 332.618 C 1403 334.93 1408.68 336.142 1416.54 337.577 C 1429.12 354.036 1441.86 364.333 1455.95 378.66 C 1487.99 411.241 1525.49 441.703 1556.94 474.365 C 1595.37 513.067 1635.78 548.326 1670.95 590.011 C 1681.63 602.659 1695.05 614.313 1706.05 626.793 C 1715.23 636.687 1735.19 652.627 1741.57 661.36 C 1745.55 666.803 1751.63 701.386 1753.64 710.507 C 1768.97 777.207 1780.78 844.668 1789.02 912.609 C 1792.71 940.827 1794.94 969.474 1798.33 997.744 C 1804.02 1042.27 1808.72 1086.91 1812.43 1131.65 C 1816.16 1172.34 1819.03 1202.92 1819.67 1243.85 C 1815.14 1250.28 1810.98 1259.93 1807.35 1267.2 C 1770.56 1340.94 1732.55 1415.27 1683.34 1481.65 C 1680.37 1485.66 1676.94 1490.14 1674.51 1494.41 L 1675.03 1496.18 C 1674.57 1496.82 1669.32 1504.21 1669.33 1504.34 C 1669.93 1513.27 1668.88 1510.29 1664.04 1513.83 C 1652.68 1522.13 1641.01 1540.06 1631.46 1550.31 C 1621.64 1561.61 1574.41 1614.49 1562.84 1617.72 C 1555.26 1622.49 1546.17 1631.9 1538.9 1637.7 C 1448.86 1709.66 1349.22 1766.49 1242.39 1809.64 C 1223.86 1817.12 1202.78 1826.21 1182.8 1828.63 C 1180.49 1828.88 1166.67 1826.39 1163.05 1825.86 C 1135.8 1822.14 1108.67 1817.58 1081.71 1812.19 C 929.537 1781.79 786.974 1732.02 656.437 1648.47 C 645.66 1641.57 619.065 1625.58 607.56 1621.56 C 591.691 1613.27 562.976 1598.45 550.91 1586 C 536.427 1571.05 523.464 1554.89 508.326 1539.58 z" fill="rgb(21,21,21)" transform="translate(0,0)"></path>
<path d="M 1674.51 1494.41 L 1675.03 1496.18 C 1674.57 1496.82 1669.32 1504.21 1669.33 1504.34 C 1669.93 1513.27 1668.88 1510.29 1664.04 1513.83 C 1652.68 1522.13 1641.01 1540.06 1631.46 1550.31 C 1621.64 1561.61 1574.41 1614.49 1562.84 1617.72 C 1566.24 1613.83 1574.67 1606.43 1578.71 1602.63 C 1588.7 1593.23 1598.46 1583.59 1607.99 1573.72 C 1632.07 1548.4 1652.71 1521.51 1674.51 1494.41 z" fill="rgb(93,148,135)" transform="translate(0,0)"></path>
<path d="M 593.749 1226.2 C 663.203 1232.31 731.544 1247.58 796.997 1271.6 C 926.385 1317.77 1026.18 1379.69 1119.84 1480.75 C 1174.46 1539.69 1202.05 1582.53 1236.35 1654.9 C 1214.36 1655.47 1192.36 1655.13 1170.4 1653.87 C 1162.21 1653.26 1154.03 1652.53 1145.86 1651.69 C 941.806 1630.24 745.925 1520.52 602.239 1376.59 C 574.428 1348.73 550.145 1319.52 525.437 1289.05 C 541.534 1272.6 575.525 1240.43 593.749 1226.2 z" fill="rgb(132,189,173)" transform="translate(0,0)"></path>
<path d="M 806.731 1329.41 C 855.946 1323.2 921.98 1351.05 961.659 1379.89 C 992.126 1402.03 1023.08 1435.38 1029.08 1474.04 C 1031.72 1491.02 1028.35 1509.55 1017.85 1523.42 C 1003.92 1541.8 980.81 1548.76 958.948 1551.64 C 907.127 1558.85 848.358 1534.6 807.492 1504.21 C 775.174 1480.18 742.604 1440.65 736.92 1399.53 C 734.784 1384.08 736.783 1367.85 746.638 1355.2 C 760.942 1336.85 784.845 1331.72 806.731 1329.41 z" fill="rgb(21,21,21)" transform="translate(0,0)"></path>
<path d="M 807.791 1337.39 C 854.622 1332.83 912.173 1355.11 950.124 1381.55 C 981.318 1403.28 1013.87 1435.16 1020.53 1474.35 C 1023.1 1489.49 1021.43 1505.47 1012.14 1518.2 C 1000.03 1534.8 979.59 1540.86 960.246 1543.85 C 905.281 1548.72 852.602 1528.33 809.206 1495.15 C 779.316 1472.29 748.979 1435.72 744.121 1397.11 C 742.438 1383.73 744.234 1370.16 753.027 1359.41 C 766.456 1342.98 787.958 1339.44 807.791 1337.39 z" fill="rgb(93,148,135)" transform="translate(0,0)"></path>
<path d="M 822.555 1359.27 C 854.708 1355.92 890.377 1366.17 918.035 1382.25 C 946.17 1398.61 978.202 1429.2 986.643 1461.69 C 989.897 1474.21 989.501 1488.04 982.487 1499.26 C 973.936 1512.95 959.913 1518.46 944.947 1521.87 C 910.407 1527.97 870.937 1516.36 842.07 1497.36 C 815.505 1479.87 783.916 1447.51 777.869 1415 C 775.584 1402.72 777.337 1389.82 784.738 1379.52 C 793.801 1366.9 807.899 1361.76 822.555 1359.27 z" fill="rgb(21,21,21)" transform="translate(0,0)"></path>
<path d="M 894.501 1379.2 C 902.859 1382.61 911.153 1386.45 918.818 1391.23 C 920.731 1409.04 916.879 1428.97 910.925 1445.72 C 906.113 1459.26 885.239 1497.29 871.637 1502.65 C 870.075 1503.27 869.038 1502.39 867.569 1501.83 C 857.49 1496.39 848.015 1490.24 838.647 1483.68 C 865.072 1452.3 882.573 1418.2 894.501 1379.2 z" fill="rgb(132,189,173)" transform="translate(0,0)"></path>
<path d="M 855.43 1367.67 C 866.206 1369.97 876.657 1372.82 887.062 1376.46 C 878.719 1413.99 860.242 1446.11 835.773 1475.29 C 834.291 1477.06 834.337 1477.37 832.041 1478.2 C 822.601 1473.92 814.36 1462.45 807.461 1454.85 C 824.521 1426.5 839.009 1396.44 855.43 1367.67 z" fill="rgb(132,189,173)" transform="translate(0,0)"></path>
<path d="M 926.097 1396.28 C 933.199 1399.21 942.93 1407.74 947.615 1413.73 C 955.816 1424.22 955.905 1437.17 954.358 1449.79 C 951.779 1470.83 940.999 1498.72 923.546 1511.84 C 918.441 1515.68 914.95 1515.14 908.879 1514.35 C 898.574 1512.49 888.692 1509.75 878.704 1506.66 C 883.215 1502.18 887.567 1497.54 891.75 1492.76 C 913.204 1467.93 928.525 1429.33 926.097 1396.28 z" fill="rgb(132,189,173)" transform="translate(0,0)"></path>
<path d="M 827.724 1366.36 C 834.033 1365.79 840.346 1366.21 846.662 1366.47 C 833.668 1393.39 819.367 1421.35 803.872 1446.9 C 802.723 1446.9 803.537 1446.96 801.551 1446.11 C 793.577 1435.99 787.603 1425.36 785.599 1412.44 C 783.975 1401.96 785.851 1391.56 792.511 1383.11 C 801.333 1371.92 814.166 1367.93 827.724 1366.36 z" fill="rgb(132,189,173)" transform="translate(0,0)"></path>
<path d="M 961.886 1430.74 C 969.144 1439.03 975.396 1450.07 978.561 1460.63 C 981.918 1471.83 982.085 1484.02 976.049 1494.37 C 969.732 1505.2 959.194 1510.22 947.596 1513.41 C 941.332 1514.97 934.696 1515.59 928.297 1516.48 C 953.831 1491.17 961.416 1465.78 961.886 1430.74 z" fill="rgb(132,189,173)" transform="translate(0,0)"></path>
<path d="M 518.655 1293.84 C 529.159 1303.82 538.074 1317.22 547.688 1328.27 C 571.069 1355.12 594.723 1380.7 620.899 1404.88 C 668.07 1448.97 718.922 1488.95 772.9 1524.38 C 908.649 1611.66 1076.46 1668.58 1238.96 1662.17 C 1225.83 1715.17 1198.1 1770.21 1172.64 1818.47 C 1156.31 1815.74 1140.01 1812.82 1123.76 1809.7 C 1092.9 1805.01 1062 1796.83 1031.6 1789.68 C 848.118 1746.53 695.428 1674.41 548.402 1556.55 C 493.781 1512.77 444.406 1462.64 390.187 1418.2 C 422.62 1387.07 453.75 1353.98 486.889 1323.46 C 497.452 1313.73 507.66 1303.04 518.655 1293.84 z" fill="rgb(191,237,221)" transform="translate(0,0)"></path>
<path d="M 1189.64 655.424 L 1191.08 655.338 C 1245.98 652.519 1309.87 678.003 1351.31 714.172 C 1473.24 820.596 1447.38 1035.7 1261.68 1045.57 C 1201.51 1048.9 1149.14 1026.1 1102.97 989.436 C 997.113 905.356 991.587 716.771 1131.41 665.493 C 1151.02 658.301 1169.11 656.675 1189.64 655.424 z" fill="rgb(191,237,221)" transform="translate(0,0)"></path>
<path d="M 1199.7 693.438 C 1244.88 689.862 1300.59 715.241 1333.26 745.203 C 1366.56 775.776 1386.2 818.423 1387.8 863.597 C 1389.2 901.703 1379.56 936.71 1352.95 964.947 C 1328.62 990.596 1295.21 1005.7 1259.89 1007.02 C 1209.07 1007.32 1171.54 995.55 1132.58 962.509 C 1030.58 876.025 1046.59 703.336 1199.7 693.438 z" fill="rgb(21,21,21)" transform="translate(0,0)"></path>
<path d="M 1193.62 702.39 C 1233.72 697.445 1287.73 719.058 1318.1 743.857 C 1411.73 820.32 1401.35 982.908 1264.24 997.823 C 1218.26 1000.99 1176.27 986.417 1140.57 957.665 C 1105.5 929.576 1083.13 888.628 1078.43 843.944 C 1070.27 766.145 1115.81 709.924 1193.62 702.39 z" fill="rgb(132,189,173)" transform="translate(0,0)"></path>
<path d="M 1233.3 730.747 L 1234.23 731.641 C 1239.27 746.89 1239.91 779.147 1239.86 796.015 C 1250.35 797.707 1255.22 799.39 1264.7 804.073 C 1272.91 788.402 1291.43 760.673 1302.13 746.69 C 1294.68 767.343 1282.91 789.743 1268.94 806.667 C 1273.75 810.841 1276.5 813.753 1280.82 818.391 C 1299.54 812.747 1317.14 807.127 1336.7 805.252 C 1322.05 812.959 1300.36 819.658 1284.1 825.196 C 1287.5 837.591 1288.63 843.859 1286.59 856.572 C 1305.46 861.875 1335.72 873.713 1352.02 885.087 C 1332.94 879.885 1301.93 870.732 1284.55 863.1 C 1279.2 872.142 1277.3 875.288 1268.71 881.839 C 1278.01 893.798 1302.07 932.071 1309.07 945.784 C 1292.4 929.6 1274.59 905.134 1262.48 885.532 C 1254.32 888.987 1248.21 889.495 1239.59 890.186 C 1238.13 901.002 1235.82 912.083 1233.76 922.83 C 1231.04 936.621 1228.26 958.888 1224.35 971.446 C 1222.93 945.875 1227.2 914.644 1231.72 889.501 C 1218.35 885.863 1212.06 881.858 1203.03 871.592 C 1186.9 884.46 1166.48 900.366 1149.14 911.344 C 1162.58 895.161 1182.67 878.497 1199.5 865.732 C 1195.16 854.727 1194.64 847.597 1194.3 835.969 C 1167.14 832.054 1140.34 825.872 1114.2 817.489 C 1139.17 819.802 1172.98 824.685 1197.99 828.353 C 1201.74 817.536 1204.81 811.614 1213.08 803.732 C 1200.13 793.739 1164.94 750.719 1154.97 736.655 C 1173.27 750.019 1202.81 783.241 1218.57 800.445 C 1223.99 797.969 1227.53 797.207 1233.22 795.758 C 1231.48 770.644 1230.54 755.96 1233.3 730.747 z" fill="rgb(21,21,21)" transform="translate(0,0)"></path>
<path d="M 1233.87 803.193 C 1244.04 803.474 1250.59 804.294 1259.79 809.576 C 1280.03 821.21 1286.43 854.333 1269.23 871.096 C 1263.46 876.719 1256.88 879.144 1249.06 880.83 C 1193.5 890.788 1187.72 812.343 1233.87 803.193 z" fill="rgb(17,36,29)" transform="translate(0,0)"></path>
<path d="M 829.503 1056.9 C 832.918 1057.75 844.868 1077.52 848.241 1082.36 C 936.908 1209.57 1083.82 1298.8 1239.74 1307.9 C 1262.79 1309.24 1283.66 1308.05 1306.51 1306.84 C 1300.24 1432.17 1284.64 1530.71 1243.46 1649.81 C 1235.46 1634.99 1228.34 1619.16 1220.17 1604.06 C 1209.14 1583.67 1199.05 1568.4 1185.78 1549.5 C 1176.59 1536.03 1166.71 1523.03 1156.2 1510.57 C 1040.29 1373.55 911.385 1294.02 738.437 1245.3 C 693.247 1232.57 651.094 1223.39 604.091 1219.44 C 613.789 1208.97 640.456 1187.76 651.958 1178.67 C 708.19 1133.94 767.52 1093.25 829.503 1056.9 z" fill="rgb(191,237,221)" transform="translate(0,0)"></path>
<path d="M 520.601 672.934 C 523.238 673.047 527.336 676.172 529.42 677.999 C 590.192 731.252 617.611 817.025 626.503 895.258 C 637.613 992.994 624.945 1094.69 597.58 1188.75 C 595.67 1197.25 590.422 1214.05 584.795 1220.24 C 578.32 1227.37 523.086 1279.86 520.012 1280.15 L 517.635 1276.95 C 431.309 1123.89 396.341 939.572 401.548 764.244 C 401.998 749.081 402.253 731.54 404.242 716.672 C 429.829 705.415 455.79 695.027 482.081 685.527 C 494.749 681.044 507.779 677.326 520.601 672.934 z" fill="rgb(132,189,173)" transform="translate(0,0)"></path>
<path d="M 508.967 793.173 C 550.504 789.093 576.875 835.382 586.104 869.743 C 600.645 923.881 595.579 989.838 568.313 1039.42 C 558.687 1056.92 548.372 1070.44 528.508 1075.99 C 488.472 1080.82 459.344 1022.44 450.65 990.807 C 436.334 938.718 440.823 876.518 465.709 828.153 C 475.244 809.622 489.266 798.718 508.967 793.173 z" fill="rgb(21,21,21)" transform="translate(0,0)"></path>
<path d="M 509.75 800.145 C 545.366 796.023 568.554 838.234 577.086 867.058 C 592.759 920.005 588.163 983.192 562.935 1032.57 C 554.976 1048.14 545.146 1062.6 527.846 1068.06 C 488.56 1069.07 464.886 1015.64 456.612 983.796 C 443.747 934.287 449.533 874.449 473.707 829.084 C 481.633 814.209 493.472 804.455 509.75 800.145 z" fill="rgb(93,148,135)" transform="translate(0,0)"></path>
<path d="M 510.771 835.251 C 538.893 833.525 557.506 861.906 564.002 885.932 C 573.583 921.368 568.86 962.868 552.04 995.536 C 545.163 1008.89 535.268 1016.24 521.198 1020.19 C 461.05 1027.35 449.03 899.778 474.436 863.677 C 485.226 848.345 491.571 840.096 510.771 835.251 z" fill="rgb(21,21,21)" transform="translate(0,0)"></path>
<path d="M 521.011 916.184 C 536.639 914.595 548.004 919.831 561.486 926.804 C 561.147 941.835 560.092 950.816 555.612 965.131 C 537.109 954.068 521.86 954.819 502.459 962.868 C 492.306 968.271 487.261 972.739 480.385 981.646 C 476.298 970.967 474.293 961.392 472.283 950.185 C 487.421 931.835 497.076 921.683 521.011 916.184 z" fill="rgb(132,189,173)" transform="translate(0,0)"></path>
<path d="M 517.947 875.249 C 533.285 874.827 546.772 879.191 557.938 889.876 C 561.246 901.717 561.211 907.325 561.589 919.787 C 556.875 916.619 551.789 914.044 546.446 912.121 C 528.925 905.879 516.248 908.549 500.218 916.131 C 486.641 923.759 480.789 930.192 470.927 942.041 C 469.734 932.506 469.48 921.104 469.632 911.51 C 470.661 909.991 471.705 908.484 472.764 906.987 C 484.428 890.557 497.592 878.698 517.947 875.249 z" fill="rgb(132,189,173)" transform="translate(0,0)"></path>
<path d="M 525.23 963.354 C 536.235 962.747 544.242 966.409 553.792 970.955 C 546.252 991.61 538.843 1012.56 513.422 1013.66 C 511.752 1013.22 510.097 1012.74 508.46 1012.19 C 494.089 1007.3 489.395 998.355 482.965 985.767 C 496.244 973.228 507.054 965.832 525.23 963.354 z" fill="rgb(132,189,173)" transform="translate(0,0)"></path>
<path d="M 512.823 842.13 C 528.046 842.479 537.188 851.723 545.797 863.27 C 548.185 866.472 552.239 871.177 552.337 875.164 C 539.819 878.371 530.927 858.058 497.878 874.732 C 486.221 881.652 478.843 890.302 469.504 899.989 C 475.672 875.005 484.418 848.756 512.823 842.13 z" fill="rgb(132,189,173)" transform="translate(0,0)"></path>
<path d="M 395.816 720.002 C 397.922 722.07 395.374 737.291 395.204 741.137 C 386.968 927.1 421.316 1124.03 514.524 1287.28 C 483.581 1315.01 453.26 1347.14 422.684 1375.68 C 410.656 1386.9 399.318 1399.03 386.845 1409.92 C 385.144 1405.22 383.507 1399.95 381.922 1395.17 C 371.728 1363.82 363.874 1327.19 355.269 1294.97 L 321.25 1171.2 C 294.199 1068.95 269.207 965.499 250.899 861.29 C 249.125 851.195 242.338 821.831 245.146 813.794 C 250.954 797.177 374.308 731.408 395.816 720.002 z" fill="rgb(191,237,221)" transform="translate(0,0)"></path>
<path d="M 710.49 646.58 C 732.349 645.183 768.959 645.149 791.018 646.817 C 786.871 656.359 783.203 666.103 780.028 676.011 C 750.741 771.214 753.326 873.373 787.39 966.973 C 797.72 995.037 811.956 1022.06 825.747 1048.55 C 753.215 1092.24 684.004 1141.21 618.677 1195.08 L 597.809 1212.71 C 602.906 1189.5 612.102 1163.68 617.782 1139.79 C 633.045 1074.23 639.695 1006.96 637.563 939.678 C 634.417 859.283 615.536 773.662 566.784 707.735 C 555.633 692.656 544.447 682.019 530.882 669.497 C 545.165 668.206 578.085 660.582 594.901 657.831 C 633.166 651.731 671.767 647.974 710.49 646.58 z" fill="rgb(191,237,221)" transform="translate(0,0)"></path>
<path d="M 1727.41 1126.75 C 1729.15 1127.29 1728.31 1126.8 1729.73 1128.52 C 1730.72 1136.51 1726.95 1159.94 1725.67 1168.43 C 1713.48 1249.52 1680.51 1330.82 1634.97 1398.85 C 1612.41 1432.55 1587.08 1465.4 1557.47 1493.25 C 1537.08 1512.42 1515.07 1527.7 1492.1 1543.53 C 1426.8 1588.53 1339.88 1634.14 1261.35 1649.79 L 1260.1 1649.9 L 1259.56 1648.81 C 1324.1 1549.59 1392.82 1453.14 1465.52 1359.73 C 1497.94 1318.83 1527.86 1279.64 1565.36 1243.1 C 1614.15 1195.54 1665.27 1155.27 1727.41 1126.75 z" fill="rgb(132,189,173)" transform="translate(0,0)"></path>
<path d="M 1602.07 1268.37 C 1671.25 1267.8 1638.97 1363.92 1620.57 1397.39 C 1596.44 1441.27 1559.85 1494.4 1510.42 1510.26 C 1483.79 1513.31 1467.94 1495 1466.19 1469.95 C 1462.98 1423.92 1485.97 1366.04 1514.38 1330.65 C 1534.4 1305.71 1569.44 1271.96 1602.07 1268.37 z" fill="rgb(21,21,21)" transform="translate(0,0)"></path>
<path d="M 1600.6 1277.26 C 1614.96 1275.45 1630.16 1283.52 1633.75 1298.23 C 1649.67 1363.58 1571.52 1485.36 1509.22 1502.91 C 1489.4 1504.34 1478.63 1495.3 1475.01 1475.98 C 1462.28 1408.05 1531.22 1288.23 1600.6 1277.26 z" fill="rgb(93,148,135)" transform="translate(0,0)"></path>
<path d="M 1592.53 1299.23 C 1597.59 1298.59 1601.98 1298.31 1606.87 1300.01 C 1612.58 1302 1617.12 1305.48 1619.62 1311.08 C 1626.61 1326.77 1619.17 1352.44 1613.25 1367.51 C 1597.21 1408.29 1556.06 1465.71 1515.37 1483.44 C 1510.62 1484.17 1506.29 1485.15 1501.76 1483.11 C 1495.43 1480.24 1491.39 1475.1 1489.17 1468.62 C 1480.13 1442.32 1491 1410.31 1502.45 1386.55 C 1520.64 1348.81 1552.34 1313.42 1592.53 1299.23 z" fill="rgb(21,21,21)" transform="translate(0,0)"></path>
<path d="M 1596.01 1306.18 C 1598.66 1306.07 1601.52 1306.24 1604.08 1307.03 C 1607.37 1308.04 1609.79 1310.48 1611.21 1313.56 C 1617.69 1327.66 1611.89 1349.27 1606.69 1363.04 C 1591.48 1403.31 1551.97 1459.91 1512.33 1477.65 C 1509.8 1477.44 1507 1477.11 1504.73 1475.9 C 1498.92 1472.79 1495.32 1466.55 1493.86 1460.33 C 1487.33 1432.6 1502.44 1396.84 1516.4 1373.61 C 1533.61 1344.97 1562.54 1314.54 1596.01 1306.18 z" fill="rgb(132,189,173)" transform="translate(0,0)"></path>
<path d="M 1579.4 1328.18 C 1581.49 1328.1 1583.65 1327.99 1585.71 1328.37 C 1589.42 1329.07 1592.69 1331.07 1594.57 1334.4 C 1598.31 1341.05 1596.25 1349.95 1594.24 1356.86 C 1585.07 1388.39 1553.91 1445.67 1524.94 1461.4 C 1522.51 1462.02 1520.3 1462.39 1517.89 1461.41 C 1513.88 1459.76 1511.25 1457.35 1509.81 1453.22 C 1503.69 1435.65 1514.2 1408.68 1521.9 1393.09 C 1533.25 1370.1 1553.8 1336.91 1579.4 1328.18 z" fill="rgb(21,21,21)" transform="translate(0,0)"></path>
<path d="M 1582.78 1334.01 C 1584.91 1334.57 1586.81 1334.96 1588.06 1336.96 C 1592.32 1343.75 1588.88 1355.18 1586.72 1362.28 C 1577.48 1392.71 1551.53 1440.1 1522.99 1455.3 C 1521.55 1455.23 1520.57 1454.82 1519.23 1454.33 C 1517.84 1452.64 1516.56 1451.12 1515.94 1448.98 C 1510.63 1430.55 1524.99 1400.06 1533.87 1384.48 C 1544.34 1366.12 1561.13 1339.94 1582.78 1334.01 z" fill="rgb(132,189,173)" transform="translate(0,0)"></path>
<path d="M 990.419 305.383 C 992.407 304.936 991.996 305.129 994.151 305.396 L 994.221 307.152 C 990.578 315.401 985.03 322.552 980.322 330.177 C 894.196 469.681 752.518 561.861 604.677 625.542 C 542.353 652.387 477.937 675.859 415.283 702.786 L 413.167 703.399 L 412.917 702.138 C 416.238 694.838 420.663 688.845 424.285 681.912 C 539.118 462.157 747.946 336.558 990.419 305.383 z" fill="rgb(132,189,173)" transform="translate(0,0)"></path>
<path d="M 763.927 390.389 C 814.457 384.434 852.734 409.677 815.184 459.081 C 779.03 506.648 705.894 545.396 647.343 554.683 C 592.077 565.472 562.986 533.456 601.17 486.164 C 639.17 439.102 703.4 397.753 763.927 390.389 z" fill="rgb(21,21,21)" transform="translate(0,0)"></path>
<path d="M 765.367 398.368 C 809.904 391.436 840.298 413.144 808.401 455.531 C 775.182 499.676 701.554 537.858 647.231 546.844 C 646.519 546.951 645.806 547.048 645.092 547.135 C 587.169 554.204 575.623 529.095 611.544 485.001 C 645.6 443.197 711.281 404.157 765.367 398.368 z" fill="rgb(93,148,135)" transform="translate(0,0)"></path>
<path d="M 756.675 408.29 C 787.406 403.916 807.815 427.917 788.239 452.407 C 760.943 486.555 700.326 519.689 657.405 526.922 C 619.211 529.696 605.468 519.142 630.567 484.59 C 659.153 445.236 708.779 416.104 756.675 408.29 z" fill="rgb(21,21,21)" transform="translate(0,0)"></path>
<path d="M 724.02 423.923 C 737.331 423.436 756.411 458.762 760.199 470.433 C 750.697 477.295 738.519 484.527 728.381 490.862 L 722.311 481.979 C 709.396 465.336 695.396 456.838 676.574 448.23 C 691.694 438.838 707.564 430.708 724.02 423.923 z" fill="rgb(132,189,173)" transform="translate(0,0)"></path>
<path d="M 672.439 452.714 C 688.519 455.46 715.3 479.613 723.965 493.567 C 712.974 499.198 702.681 504.673 691.205 509.294 C 689.597 508.704 681.194 503.262 679.401 502.162 C 665.096 493.382 656.368 486.754 640.306 481.152 C 651.358 470.077 659.803 462.174 672.439 452.714 z" fill="rgb(132,189,173)" transform="translate(0,0)"></path>
<path d="M 759.733 415.379 C 761.057 415.267 762.385 415.199 763.714 415.176 C 768.921 415.125 780.926 416.544 784.124 420.978 C 796.37 437.956 775.411 456.622 764.688 466.129 C 754.242 444.104 750.957 436.733 732.991 420.886 C 742.171 418.314 750.293 416.532 759.733 415.379 z" fill="rgb(132,189,173)" transform="translate(0,0)"></path>
<path d="M 637.544 486.705 C 650.613 489.801 672.842 503.972 684.859 511.263 C 680.117 513.103 674.005 514.92 669.062 516.524 C 666.565 517.173 664.044 517.726 661.505 518.182 C 631.304 523.337 611.4 516.433 637.544 486.705 z" fill="rgb(132,189,173)" transform="translate(0,0)"></path>
<path d="M 853.43 213.861 C 861.419 215.064 979.88 287.637 992.989 296.648 C 906.791 308.065 813.877 333.002 735.111 370.366 C 627.444 422.408 534.955 501.242 466.517 599.308 C 453.346 617.934 441.154 637.233 429.992 657.128 C 420.463 674.031 411.702 691.645 401.622 708.165 C 384.917 718.125 359.585 729.436 340.479 740.213 C 310.244 756.595 281.108 774.927 253.254 795.093 C 254.046 792.686 254.917 790.305 255.866 787.955 C 327.758 610.036 449.772 456.824 607.084 346.93 C 618.511 338.845 635.678 325.642 647.363 318.602 C 690.119 292.843 735.713 266.685 780.905 245.577 C 803.982 234.798 829.944 224.146 853.43 213.861 z" fill="rgb(191,237,221)" transform="translate(0,0)"></path>
<path d="M 1738 1133.86 C 1746.28 1144.86 1756.91 1161.51 1764.95 1173.32 C 1779.85 1195.2 1797.67 1220.98 1810.07 1244.21 C 1801.74 1258 1793.4 1277.67 1785.64 1292.38 C 1766.6 1329.41 1746.22 1365.4 1725.19 1401.32 C 1612.89 1593.21 1438.06 1720.29 1233.22 1802.16 C 1217.03 1808.61 1195.41 1817.13 1178.62 1820.24 C 1203.34 1778.99 1234.24 1708.46 1246.06 1661.75 C 1345.48 1644.45 1477.93 1572.78 1553.53 1507.55 C 1655.2 1419.83 1727.41 1266.39 1738 1133.86 z" fill="rgb(191,237,221)" transform="translate(0,0)"></path>
<path d="M 1157.89 457.858 C 1185.09 460.424 1206.51 463.49 1233.05 470.306 C 1354.82 501.066 1459.39 578.941 1523.75 686.799 C 1581.91 785.881 1621.59 924.647 1591.1 1038.39 C 1567.65 1125.88 1511.26 1208.75 1431.58 1253.84 C 1219.75 1373.71 939.074 1236.12 830.229 1036.54 C 768.317 923.662 753.262 811.204 785.963 688.692 C 790.214 674.123 795.275 660.744 801.016 646.743 C 813.038 647.035 840.431 648.932 851.481 651.514 C 829.251 689.716 818.815 735.15 815.402 778.91 C 800.813 965.951 923.958 1143.66 1091.25 1219.32 C 1140.73 1241.71 1188.28 1256.65 1242.32 1260.34 C 1325.78 1266.58 1408.2 1238.71 1470.75 1183.1 C 1533.48 1128.19 1571.62 1050.45 1576.64 967.236 C 1582.89 844.534 1540.32 724.344 1458.23 632.933 C 1400.63 568.378 1314.54 519.969 1230.55 501.429 C 1212.75 497.5 1195.71 493.828 1177.44 492.81 C 1171.48 481.271 1164.36 469.216 1157.89 457.858 z" fill="rgb(93,148,135)" transform="translate(0,0)"></path>
<path d="M 1604.05 1029.4 C 1608.46 1032.46 1612.94 1035.3 1617.55 1038.06 C 1650.88 1058.06 1681.14 1082.35 1711.62 1106.34 C 1716.36 1110.07 1720.65 1114.62 1724.73 1119.05 C 1600 1182.33 1535.41 1256.2 1450.24 1365.71 C 1399.36 1431.13 1357.75 1491.18 1310.77 1559.49 C 1293.32 1584.42 1276.33 1609.67 1259.8 1635.23 C 1263.31 1620.58 1268.49 1605.71 1272.84 1591.2 C 1277.66 1574.67 1282.12 1558.03 1286.2 1541.3 C 1304.58 1463.97 1315.03 1384.97 1317.38 1305.52 C 1460.93 1284.45 1573.38 1169.24 1604.05 1029.4 z" fill="rgb(191,237,221)" transform="translate(0,0)"></path>
<path d="M 1006.24 305.044 C 1014.16 309.032 1027.16 322.849 1034.1 329.326 C 1075.18 367.692 1107.16 403.219 1140.92 447.928 C 1101.58 448.103 1065.01 450.175 1026.52 460.26 C 947.391 480.996 876.81 525.967 826.408 590.654 C 814.763 605.601 805.888 620.769 796.464 637.141 C 753.384 634.88 710.197 635.754 667.244 639.755 C 629.762 641.458 582.499 651.218 545.594 657.536 C 560.446 650.63 576.794 645.399 591.981 639.056 C 718.806 586.09 838.318 515.368 929.315 410.742 C 946.827 390.473 963.097 369.163 978.034 346.929 C 986.594 334.158 995.93 315.98 1006.24 305.044 z" fill="rgb(191,237,221)" transform="translate(0,0)"></path>
<path d="M 866.212 211.816 C 905.337 213.263 954.241 224.358 993.153 231.534 C 1068.8 245.486 1149.38 261.964 1222.81 285.685 L 1319.81 317.048 C 1345.86 325.695 1387.26 340.124 1413.15 344.442 C 1422.89 357.025 1439.14 372.226 1451.05 383.465 C 1497.32 427.129 1543.59 470.147 1588.57 515.17 C 1618.69 545.316 1648.12 572.272 1675.3 605.636 C 1686.6 619.494 1703.18 635.155 1715.85 648.01 C 1697.24 641.907 1639.78 604.299 1625.2 589.541 C 1614.2 578.41 1596.31 558.287 1582.55 545.132 C 1562.69 526.481 1542.29 508.402 1521.39 490.916 C 1393.99 382.566 1264.65 329.72 1099.94 304.239 C 1081.49 301.241 1062.97 298.742 1044.39 296.743 C 1038.54 296.173 1008.93 294.562 1006.48 293.571 C 990.312 287.048 967.678 272.355 952.246 263.053 C 923.669 245.805 894.991 228.725 866.212 211.816 z" fill="rgb(191,237,221)" transform="translate(0,0)"></path>
<path d="M 1153.12 1032.29 C 1193.3 1050.9 1222.89 1055.47 1266.32 1055.02 C 1269.97 1072.24 1277.6 1093.96 1281.87 1112.96 C 1292.52 1160.48 1297.42 1200.74 1300.29 1248.93 C 1275.81 1250.28 1245.98 1251.13 1221.76 1247.55 C 1175.15 1242.63 1110.42 1219.89 1069.45 1197.07 C 1120.61 1143.19 1136.68 1102.58 1153.12 1032.29 z" fill="rgb(191,237,221)" transform="translate(0,0)"></path>
<path d="M 1059.16 957.914 C 1062.11 959.235 1070.62 971.113 1073.89 974.601 C 1095.42 997.615 1117.41 1012.57 1144.44 1028.36 C 1128.7 1099.96 1112.06 1138.42 1060.98 1193.49 C 1044.39 1183.95 1029.35 1173.38 1013.71 1162.39 C 963.911 1125.03 930.962 1090.54 895.905 1038.78 C 925.761 1021.62 956.142 1005.39 987.004 990.107 C 1011.83 978.109 1034.31 968.897 1059.16 957.914 z" fill="rgb(191,237,221)" transform="translate(0,0)"></path>
<path d="M 1019.09 301.864 C 1083.68 307.415 1151.42 321.131 1214.12 337.743 C 1219.46 339.159 1224.73 340.738 1229.98 342.449 C 1242.62 345.651 1256.58 350.728 1269.01 354.914 C 1313.34 369.842 1356.98 388.174 1397.13 412.344 C 1400.01 414.078 1414.72 422.444 1416.58 424.422 C 1430.15 431.841 1451.17 447.839 1463.74 457.099 C 1503.87 486.671 1542.34 517.814 1577.98 552.746 C 1588.34 562.901 1602.67 576.059 1611.44 587.44 C 1592.6 579.813 1569.6 568.423 1550.77 559.752 C 1518.45 544.964 1486.02 530.412 1453.49 516.097 C 1401.02 493.089 1346.73 471.821 1294.94 447.871 C 1259.29 431.387 1219.7 409.446 1184.97 390.699 L 1102.53 346.52 C 1075.47 331.681 1044.7 317.98 1019.09 301.864 z" fill="rgb(132,189,173)" transform="translate(0,0)"></path>
<path d="M 1400.06 420.495 C 1410.46 428.205 1422.17 434.578 1432.88 441.958 C 1442.96 448.902 1472.96 469.673 1473.95 482.447 C 1474.15 484.95 1473.6 487.225 1471.68 488.978 C 1469.48 490.987 1466.25 491.62 1463.37 491.694 C 1413.49 492.971 1239.06 405.913 1201.76 369.332 C 1198.12 365.759 1193.66 359.641 1194.22 354.21 C 1194.49 351.636 1195.97 349.942 1198.05 348.567 C 1205.58 343.573 1218.5 348.331 1226.71 349.773 C 1280.7 365.598 1330.68 381.243 1379.43 409.746 C 1383.21 411.953 1396.45 419.391 1400.06 420.495 z" fill="rgb(21,21,21)" transform="translate(0,0)"></path>
<path d="M 1265.89 403.036 C 1257.01 398.333 1199.1 363.824 1204.18 354.997 C 1205.63 354.669 1207.57 353.971 1208.87 355.148 C 1224.87 369.61 1241.07 383.114 1261.39 391.361 C 1249.42 380.331 1229.7 367.037 1215.6 355.076 C 1247.87 362.739 1284.52 374.823 1315.89 386.476 C 1312.24 398.275 1307.81 411.635 1304.68 423.432 C 1292.78 416.648 1280.59 410.442 1268.91 403.799 C 1268.96 399.051 1270.34 393.006 1270.82 387.611 L 1270.23 387.032 C 1267.39 393.486 1267.12 396.117 1265.89 403.036 z" fill="rgb(132,189,173)" transform="translate(0,0)"></path>
<path d="M 1319.94 388.174 C 1333.28 394.264 1347.09 400.335 1360.01 407.195 C 1357.91 415.664 1353.91 440.414 1350.6 446.161 C 1337.4 439.108 1322.41 432.028 1308.91 425.294 C 1313.71 412.337 1317.48 401.861 1319.94 388.174 z" fill="rgb(132,189,173)" transform="translate(0,0)"></path>
<path d="M 1362.01 408.237 C 1376.67 417.204 1391.66 424.568 1406.86 434.179 C 1402.2 443.144 1399.69 450.296 1396.2 459.73 C 1395.55 461.682 1395.49 461.355 1394.17 463.09 C 1388.63 463.439 1364.52 451.821 1357.04 448.656 C 1360.85 433.531 1361.12 423.684 1362.01 408.237 z" fill="rgb(132,189,173)" transform="translate(0,0)"></path>
<path d="M 1409.36 435.683 C 1421.07 442.261 1463.01 468.749 1463.7 481.468 L 1462.39 482.934 L 1457.59 483.078 C 1435.48 479.363 1420.32 473.516 1399.5 465.748 C 1403.2 455.317 1406.23 446.341 1409.36 435.683 z" fill="rgb(132,189,173)" transform="translate(0,0)"></path>
<path d="M 1428.51 456.81 C 1434.82 458.737 1449.75 471.269 1453.79 477.104 C 1445.87 475.282 1432.7 463.774 1428.51 456.81 z" fill="rgb(21,21,21)" transform="translate(0,0)"></path>
<path d="M 1229.98 342.449 C 1242.62 345.651 1256.58 350.728 1269.01 354.914 C 1313.34 369.842 1356.98 388.174 1397.13 412.344 C 1400.01 414.078 1414.72 422.444 1416.58 424.422 L 1415.5 425.189 C 1405.64 420.141 1392.14 410.789 1382.73 406.916 C 1384.91 410.867 1397.99 415.156 1400.06 420.495 C 1396.45 419.391 1383.21 411.953 1379.43 409.746 C 1330.68 381.243 1280.7 365.598 1226.71 349.773 C 1237.12 347.311 1289.01 368.077 1302.18 371.109 L 1303.07 370.501 C 1289.03 359.295 1238.22 351.088 1229.98 342.449 z" fill="rgb(93,148,135)" transform="translate(0,0)"></path>
<path d="M 1639.91 611.577 C 1645.33 613.172 1668.15 630.888 1675 634.996 C 1693.97 646.239 1713.84 655.898 1734.4 663.874 C 1736.5 673.331 1739.75 683.967 1742.06 693.735 C 1747.28 716.71 1752.19 739.755 1756.77 762.865 C 1772.65 845.322 1782.4 922.483 1791.7 1005.77 C 1800.43 1083.94 1808.83 1158.59 1812.82 1237.32 C 1810.1 1232.87 1807.42 1228.1 1805.01 1223.48 C 1786.7 1188.38 1763.71 1156.75 1740.88 1124.44 C 1749.54 955.313 1730.26 758.11 1639.91 611.577 z" fill="rgb(191,237,221)" transform="translate(0,0)"></path>
<path d="M 852.952 668.746 C 906.054 676.731 986.974 715.045 1034.08 740.205 C 1017.32 778.391 1016.24 795.689 1014.44 835.544 C 1006.43 833.711 1002 832.926 993.847 832.032 C 942.559 825.137 875.347 829.655 826.035 845.588 C 821.206 782.996 825.903 726.329 852.952 668.746 z" fill="rgb(191,237,221)" transform="translate(0,0)"></path>
<path d="M 922.044 838.418 C 949.34 836.015 987.796 839.763 1014.75 844.129 C 1021.77 881.939 1025.86 899.978 1045.02 934.853 C 1009.68 947.801 959.602 970.599 925.343 988.111 C 909.951 996.134 894.297 1004.1 879.841 1013.71 C 851.742 970.199 833.545 905.782 826.528 854.869 C 859.07 844.789 888.327 840.484 922.044 838.418 z" fill="rgb(191,237,221)" transform="translate(0,0)"></path>
<path d="M 1037.64 321.905 C 1045.69 324.674 1072.64 340.26 1082.45 345.199 C 1149.31 378.859 1214.12 417.143 1281.38 450.109 C 1323.12 470.569 1367.41 488.245 1410.31 506.476 C 1455.5 525.953 1500.41 546.079 1545.02 566.848 C 1566.68 576.879 1586.98 585.726 1608.34 596.587 C 1598.64 605.92 1580.02 619.874 1568.6 629.666 C 1553.68 642.901 1537.74 655.49 1522.44 668.43 C 1513.24 651.425 1487.56 619.925 1474.36 605.397 C 1391.82 514.574 1273.98 454.67 1150.9 448.675 C 1146.56 443.035 1141.9 437.526 1137.63 431.864 C 1107.53 391.962 1072.52 357.551 1037.64 321.905 z" fill="rgb(191,237,221)" transform="translate(0,0)"></path>
<path d="M 1625.94 606.574 C 1635.31 613.986 1658.11 662.619 1664 675.962 C 1685.02 722.535 1701.45 771.051 1713.04 820.819 C 1732.48 906.391 1736.69 1022.27 1732.75 1109.28 C 1727.57 1103.93 1698.67 1024.53 1695.19 1014.12 C 1673.95 950.564 1648.77 886.185 1635.91 820.239 C 1626.98 774.47 1624.52 723.477 1623.59 676.857 C 1623.38 660.088 1622.74 621.817 1625.94 606.574 z" fill="rgb(132,189,173)" transform="translate(0,0)"></path>
<path d="M 1660.07 726.581 C 1664.87 728.061 1667.65 730.002 1670.95 733.817 C 1697.38 764.409 1718.79 874.056 1715.55 916.759 C 1714.67 928.348 1712.53 939.857 1703.36 947.793 C 1702.69 947.812 1702.02 947.877 1701.35 947.849 C 1697.22 947.676 1694.15 944.425 1691.65 941.486 C 1666.04 911.392 1645.79 800.29 1648.46 759.944 C 1649.24 748.158 1650.7 734.736 1660.07 726.581 z" fill="rgb(21,21,21)" transform="translate(0,0)"></path>
<path d="M 1661.9 736.457 C 1688.65 752.412 1721.5 909.832 1701.5 938.748 C 1681.95 924.524 1673.31 877.106 1667.73 853.605 C 1661.38 826.864 1647.22 759.639 1661.9 736.457 z" fill="rgb(132,189,173)" transform="translate(0,0)"></path>
<path d="M 1662.03 750.12 C 1668.4 751.427 1673.48 759.38 1675.46 764.985 C 1688.43 801.6 1712.46 890.934 1699.18 926.659 C 1683.12 917.563 1660.16 800.784 1658.75 780.444 C 1658.15 771.845 1659.73 758.769 1662.03 750.12 z" fill="rgb(21,21,21)" transform="translate(0,0)"></path>
<path d="M 1665.1 763.495 C 1675.83 771.854 1691.91 853.897 1694.21 870.199 C 1696.18 883.566 1697.26 897.05 1697.42 910.561 C 1687.46 896.247 1670.11 815.977 1667 794.545 C 1665.61 784.979 1664.85 773.33 1665.1 763.495 z" fill="rgb(191,237,221)" transform="translate(0,0)"></path>
<path d="M 1613.68 600.78 C 1615.19 602.415 1615.18 604.404 1615.15 606.942 C 1614.8 645.677 1614.37 683.573 1616.6 722.316 C 1618.46 759.575 1623.03 796.648 1630.27 833.244 C 1640.79 884.02 1657.57 933.046 1675.4 981.625 C 1687.38 1014.25 1697.13 1047.52 1711.01 1079.43 C 1714.39 1087.2 1717.39 1095.52 1720.42 1103.45 C 1707.69 1092 1682.81 1073.76 1668.93 1063.21 C 1653.38 1051.71 1622.84 1030.9 1605.97 1021.89 C 1629.46 901.858 1586.3 776.71 1526.2 673.928 C 1554.98 652.661 1586.73 624.742 1613.68 600.78 z" fill="rgb(191,237,221)" transform="translate(0,0)"></path>
<path d="M 1419.89 955.491 C 1452.44 964.195 1532.88 1003.28 1557.93 1024.79 C 1546.41 1074.16 1515.69 1120.12 1482.16 1157.08 C 1475.3 1164.35 1467.37 1171.41 1460 1178.23 C 1445.23 1129.48 1424.36 1085.8 1389.46 1047.81 C 1381.5 1039.15 1370.92 1028.65 1360.72 1022.72 C 1388.54 1003.46 1404.05 985.637 1419.89 955.491 z" fill="rgb(191,237,221)" transform="translate(0,0)"></path>
<path d="M 1353.03 1028.81 C 1354.64 1029.14 1355.34 1029.39 1356.72 1030.35 C 1403.31 1062.88 1438.58 1131.58 1451.93 1184.71 C 1425.78 1204.23 1410.97 1214.64 1379.98 1228 C 1362.91 1235.16 1344.68 1240.07 1326.7 1244.24 C 1324.31 1168.54 1319.03 1122.71 1294.03 1051.67 C 1317.31 1045.91 1332.1 1040.57 1353.03 1028.81 z" fill="rgb(191,237,221)" transform="translate(0,0)"></path>
<path d="M 1128.75 499.426 C 1133.7 498.845 1143.8 499.002 1149.17 498.944 C 1170.49 551.252 1182.58 590.007 1193.16 645.408 C 1155.78 646.884 1140 651.007 1105.83 664.491 C 1099.02 654.411 1090.64 643.418 1083.4 633.503 C 1063.36 607.447 1040.88 583.362 1016.27 561.574 C 1006.41 552.92 995.918 545.375 986.106 536.801 C 1030.07 512.515 1079.22 502.994 1128.75 499.426 z" fill="rgb(191,237,221)" transform="translate(0,0)"></path>
<path d="M 974.955 542.775 C 977.927 543.795 992.185 555.213 995.626 557.792 C 1040.93 591.735 1065.89 624.435 1098.53 669.359 C 1076.72 684.711 1064.51 693.412 1049.03 715.628 C 1036.2 707.814 1024.69 700.971 1011.48 693.872 C 965.947 670.44 916.409 654.857 866.361 644.659 C 893.127 600.045 930.529 568.481 974.955 542.775 z" fill="rgb(191,237,221)" transform="translate(0,0)"></path>
<path d="M 1181.56 500.646 C 1240.93 507.422 1294.17 526.998 1346.43 554.909 C 1340.99 591.941 1336.75 615.387 1323.54 651.257 C 1320.29 660.319 1317.28 667.227 1313.34 675.924 C 1280.02 660.502 1258.04 652.792 1221.29 646.815 C 1220.83 639.662 1218.7 629.315 1217.65 621.99 C 1211.45 578.669 1197.92 541 1181.56 500.646 z" fill="rgb(191,237,221)" transform="translate(0,0)"></path>
<path d="M 1354.25 559.525 C 1412.84 596.548 1447.91 626.916 1488.31 683.236 C 1466.35 698.032 1450.06 707.618 1428.45 724.333 C 1416.51 733.92 1408.58 741.508 1398.03 752.274 C 1371.61 718.81 1355.57 703.378 1320.41 679.85 C 1339.54 640.062 1349.47 603.217 1354.25 559.525 z" fill="rgb(191,237,221)" transform="translate(0,0)"></path>
<path d="M 1110.77 457.421 C 1123.49 456.764 1136.05 456.951 1148.79 457.013 L 1167.77 492.284 C 1141.64 487.804 1093.49 493.09 1067.25 498.408 C 982.33 516.33 907.7 566.553 859.117 638.47 L 856.994 641.519 C 856.295 641.863 855.597 642.207 854.898 642.551 C 839.208 640.092 821.424 638.324 805.968 637.55 C 867.475 524.175 985.206 464.573 1110.77 457.421 z" fill="rgb(93,148,135)" transform="translate(0,0)"></path>
<path d="M 1467.43 853.453 C 1498.05 852.718 1528.55 856.757 1558.87 860.357 C 1567.96 904.798 1569.55 950.449 1563.57 995.415 C 1556.62 990.425 1549.88 986.285 1542.63 981.786 C 1501.19 958.083 1472.24 946.314 1427.74 929.796 C 1436.8 911.334 1435.31 875.533 1434.79 855.243 C 1444.75 853.707 1457.18 853.733 1467.43 853.453 z" fill="rgb(191,237,221)" transform="translate(0,0)"></path>
<path d="M 1502.78 707.364 C 1507.12 711.267 1519.09 735.99 1522.12 742.979 C 1537.16 777.592 1550.46 815.311 1557.16 852.527 C 1528.84 848.306 1502.45 844.447 1473.76 843.989 C 1460.65 843.903 1446.65 844.998 1433.62 846.386 C 1430.25 819.427 1421.88 799.983 1411.37 775.356 C 1415.56 772.168 1420.08 768.134 1424 764.589 C 1448.24 742.665 1475.14 724.729 1502.78 707.364 z" fill="rgb(191,237,221)" transform="translate(0,0)"></path>
<path d="M 1283.55 1053.3 C 1285.02 1053.06 1284.12 1053.07 1286.22 1053.8 C 1305 1094.12 1314.1 1164.45 1316.84 1208.26 C 1317.48 1218.54 1319.02 1234.91 1317.71 1244.94 C 1315.72 1247.2 1313.76 1246.93 1310.14 1247.8 C 1307.71 1245.05 1308.04 1236.57 1307.62 1232.49 C 1302.65 1183.45 1295.54 1133.69 1282.63 1086.07 C 1280.22 1077.2 1276.49 1064.74 1275.38 1055.85 C 1278.08 1053.37 1279.11 1054.01 1283.55 1053.3 z" fill="rgb(93,148,135)" transform="translate(0,0)"></path>
<path d="M 862.695 652.838 C 914.856 660.096 999.546 693.894 1043.4 723.164 L 1037.65 733.648 C 979.546 702.159 921.568 676.113 856.471 662.654 C 858.346 659.461 860.68 655.993 862.695 652.838 z" fill="rgb(93,148,135)" transform="translate(0,0)"></path>
<path d="M 1157.79 499.081 L 1172.06 500.176 C 1197.98 556.24 1204.06 586.887 1214.55 646.461 C 1210.35 646.13 1205.71 646.041 1201.47 645.867 C 1197.95 630.324 1194.33 614.803 1190.74 599.275 C 1182.81 564.905 1170.07 532.079 1157.79 499.081 z" fill="rgb(93,148,135)" transform="translate(0,0)"></path>
<path d="M 1047.94 942.972 C 1050.78 943.911 1053.04 947.946 1054.95 950.614 C 1003 969.464 939.729 1003.92 891.468 1031.47 L 884.212 1019.44 C 906.862 1008.05 929.258 995.387 952.07 984.269 C 983.483 969.272 1015.47 955.496 1047.94 942.972 z" fill="rgb(93,148,135)" transform="translate(0,0)"></path>
<path d="M 1426.13 938.593 C 1430.12 940.343 1434.92 941.601 1439.1 943.136 C 1481.14 958.605 1525.64 978.074 1562.11 1004.31 C 1561.25 1008.11 1560.37 1011.9 1559.46 1015.69 C 1528.58 991.789 1460.04 958.628 1422.03 949.136 C 1423.2 945.794 1424.82 941.945 1426.13 938.593 z" fill="rgb(93,148,135)" transform="translate(0,0)"></path>
<path d="M 1491.82 690.77 C 1494.97 692.539 1497.45 696.988 1499.61 700.128 C 1462.95 723.596 1441.19 739.381 1409.59 767.733 L 1408.81 767.737 C 1406.01 765.915 1404.11 761.564 1402.39 758.485 C 1437.6 727.553 1451.01 715.32 1491.82 690.77 z" fill="rgb(93,148,135)" transform="translate(0,0)"></path>
<path d="M 833.24 178.653 C 824.493 163.474 814.892 148.803 804.484 134.711 C 799.241 127.736 776.943 101.467 776.458 94.8828 C 781.638 88.0848 816.901 82.8877 827.332 80.732 C 843.448 106.049 849.785 140.204 858.486 168.618 C 866.792 172.642 883.206 176.216 892.527 177.979 C 952.049 189.241 1080.98 219.95 1132.7 186.202 C 1129.8 159.376 1111.44 127.004 1108.19 101.228 C 1124.71 100.429 1144.38 103.123 1160.49 106.728 C 1160.67 119.872 1163.83 133.366 1165.36 146.502 C 1166.87 159.387 1167.5 172.102 1168.22 185.045 C 1206.26 247.183 1342.73 293.472 1411.47 310.034 C 1416.28 292.058 1416.56 268.777 1415.81 250.14 C 1415.54 243.377 1408.77 229.135 1413.72 224.758 C 1426.56 227.168 1448.39 238.732 1451.9 251.681 C 1457.15 271.072 1444.06 299.735 1436.21 317.149 L 1442.82 325.612 C 1425.9 323.52 1445.07 303.08 1440.07 292.599 C 1436.65 297.496 1428.1 315.556 1428.41 322.036 C 1428.48 323.521 1430.93 327.959 1431.46 330.83 C 1429.78 329.275 1425.9 326.11 1426.33 323.864 C 1430.97 299.679 1444.85 282.069 1445.86 256.091 C 1439.25 244.937 1434.11 242.001 1422.62 236.591 C 1426.24 262.042 1426.81 296.105 1420.23 320.993 C 1407.19 318.916 1384.22 312.166 1371.14 308.304 C 1302.08 287.929 1202.74 252.408 1158.85 192.038 C 1157.76 190.56 1156.71 189.053 1155.7 187.517 C 1159.79 157.335 1154.79 141.317 1150.83 113.042 C 1139.62 111.646 1129.24 110.846 1118.01 110.018 C 1127.21 136.345 1135.53 160.822 1146.15 186.649 C 1105.77 238.221 946.962 196.58 890.267 186.523 C 878.971 184.519 867.478 181.119 855.688 180.783 C 849.81 170.357 847.624 160.318 844.215 148.941 C 838.279 129.131 833.247 109.103 823.81 90.5569 C 811.204 92.8559 798.622 95.2864 786.066 97.8481 C 792.721 108.071 803.772 117.979 810.072 127.32 C 818.201 139.373 842.759 169.309 845.215 181.913 C 840.063 192.965 663.021 275.259 643.232 285.14 C 619.322 297.078 525.496 298.291 502.271 278.898 L 500.931 277.8 C 483.029 262.929 473.611 246.24 449.934 230.144 C 438.904 238.737 432.79 243.351 420.408 250.094 C 445.354 265.629 486.021 287.556 492.378 319.146 C 498.499 353.552 477.139 388.216 459.565 415.656 C 425.406 468.993 353.852 508.443 290.145 495.331 C 266.097 490.382 240.721 464.457 224.946 446.544 C 221.995 460.718 219.887 466.967 215.219 480.431 L 216.145 481.392 C 229.26 494.746 267.414 512.685 285.835 511.446 L 286.699 510.185 C 284.487 506.624 283.347 505.619 280.384 502.552 L 280.803 501.945 C 283.515 502.529 286.425 502.541 287.639 505.4 C 304.586 545.333 310.965 591.643 298.013 633.51 C 288.747 663.463 273.716 685.883 260.033 713.415 C 244.439 745.452 225.101 783.227 212.387 816.332 C 195.933 811.406 179.346 807.4 163.077 802.203 C 138.039 794.205 115.791 782.962 92.7686 770.492 C 92.9418 781.499 93.282 792.881 93.0306 803.857 C 127.91 821.042 160.31 823.798 198.586 822.74 L 199.761 821.908 L 199.381 818.505 C 203.127 820.13 204.713 821.93 207.937 824.043 C 216.607 840.929 224.384 879.596 228.398 898.508 C 242.108 963.086 258.733 1029.2 237.795 1094.33 C 227.431 1126.56 215.899 1135.41 187.974 1152.41 C 200.026 1163.75 214.568 1172.12 228.364 1181.21 C 300.946 1229.03 331.802 1312.94 349.526 1394.17 C 352.813 1409.23 354.246 1424.93 357.678 1439.8 C 425.049 1485.59 492.68 1538.71 541.098 1605.89 C 562.219 1635.19 577.928 1683.67 579.335 1719.92 C 564.354 1738.18 554.467 1758.42 548.077 1781.21 C 558.641 1786.53 571.032 1792.4 580.925 1798.61 C 581.262 1776.75 592.317 1731.93 608.75 1715.74 C 620.803 1703.87 648.139 1703.32 664.204 1704.12 C 726.051 1707.16 786.256 1739.84 827.242 1785.45 C 842.028 1801.9 863.218 1831.02 860.919 1853.9 C 858.347 1879.51 856.157 1895.86 859.338 1922.09 C 870.427 1924.39 885.802 1928.07 896.661 1929.68 C 888.297 1906.08 883.748 1874 881.162 1848.83 C 893.898 1831.55 920.297 1823.03 940.756 1819.84 C 996.707 1811.11 1050.99 1823.45 1105.4 1835.56 C 1131.6 1841.39 1161.54 1848.69 1187 1857.01 C 1186.38 1883.47 1192.73 1922.84 1203.58 1946.82 C 1214.31 1945.58 1227.67 1944.36 1238.1 1942.66 C 1219.38 1920.57 1204.63 1885.59 1195.11 1857.94 C 1233.12 1837.76 1271.89 1818.6 1312.21 1799.87 C 1364.94 1775.39 1446.8 1727.26 1507.02 1743.5 C 1524.6 1748.24 1558.3 1789.9 1574.16 1805.58 C 1584.33 1799.4 1592.22 1794.67 1602.9 1789.37 C 1542.4 1759.09 1536.64 1722.83 1565.3 1664.2 C 1578.58 1637.03 1595.55 1615.98 1616.95 1594.91 C 1637.32 1573.64 1651.43 1564.61 1680.55 1555.28 C 1693.37 1551.18 1716.54 1545.65 1730.29 1552.05 C 1745.45 1562.18 1766.61 1584.09 1780.02 1597.37 C 1788.88 1589 1793.68 1586.61 1804.44 1580.77 C 1786.49 1573.01 1776.16 1565.61 1761.74 1552.29 C 1755.23 1546.27 1746.13 1540.12 1743.1 1531 C 1732.39 1490.42 1742.2 1439.41 1759.97 1402.84 C 1777.99 1365.77 1796.15 1334.69 1815.77 1299.03 C 1820.1 1291.22 1835.7 1262.46 1839.9 1256.97 C 1845.41 1264.22 1845.27 1264.71 1841.28 1272.89 C 1803.32 1350.55 1731.68 1430.02 1751.75 1522.3 C 1756.34 1543.44 1799.78 1569.82 1817.79 1580.23 C 1811.86 1586.09 1786.71 1604.77 1779.59 1609.29 C 1765.35 1596.48 1750.81 1584.03 1736.89 1570.88 C 1731.57 1565.85 1726.21 1560.87 1719.92 1557.06 C 1670.57 1560.94 1648.95 1573.11 1617.01 1608.77 C 1586.73 1642.58 1556.84 1676.33 1557.97 1725.38 C 1558.51 1749.18 1578.2 1763.43 1595.88 1775.72 C 1603 1780.6 1609.18 1783.35 1615.83 1789.45 C 1615.29 1792.06 1579.03 1813.54 1572.64 1818.01 C 1565.54 1811.03 1558.44 1804.98 1551.42 1797.58 C 1536.65 1782.01 1521.43 1757.25 1500 1751.14 C 1483.04 1746.31 1453.96 1749.47 1437.53 1754.81 C 1396.54 1768.12 1353.82 1789.76 1314.92 1808.48 C 1279.73 1825.41 1240.42 1842.67 1206.79 1861.94 C 1215.57 1886.48 1224.84 1910.5 1240.89 1931.14 C 1244.12 1935.29 1253.92 1942.94 1250.44 1947.86 C 1241.67 1952.32 1209.89 1954.33 1198.75 1955.02 C 1185.11 1931.33 1181.03 1893.65 1176.25 1866.27 C 1158.31 1856 1100.18 1842.95 1078.52 1839.11 C 1015.67 1827.97 946.025 1812.46 889.414 1850.62 C 890.828 1868.87 894.327 1886.53 898.052 1904.35 C 899.659 1912.04 908.388 1934.97 908.351 1937.42 C 901.416 1940.69 863.675 1931.92 853.442 1930.02 C 845.424 1904.43 850.083 1872.23 851.019 1846.88 C 851.735 1827.52 820.014 1790.58 805.661 1777.43 C 761.658 1737.54 706.446 1712.2 646.295 1712.83 C 600.84 1713.3 596.981 1755.35 590.467 1790.81 C 589.615 1795.45 589.38 1805.28 586.452 1808.49 C 577.213 1807.89 547.714 1791 538.217 1786.02 C 544.237 1761.91 555.088 1738.91 568.352 1718.04 C 564.531 1637.64 519.184 1586.61 463.351 1534.51 C 436.942 1509.87 409.808 1486.29 379.844 1466.03 C 374.761 1462.59 360.376 1450.53 355.902 1449.64 C 348.661 1476.85 288.504 1502.82 264.053 1514.19 C 249.408 1492.61 241.683 1483.6 222.355 1466.21 C 232.676 1464.03 244.969 1463.72 255.563 1461.14 C 287.795 1453.27 317.958 1440.01 344.408 1420.24 C 343.81 1416.56 343.186 1412.89 342.533 1409.22 C 337.644 1381.5 332.684 1365.89 324.22 1339.65 C 300.381 1265.74 272.317 1222.22 208.381 1177.45 C 179.898 1196.26 156.706 1201.58 122.421 1201.97 C 109.626 1188.85 99.4833 1167.97 94.9636 1150.23 C 125.6 1154.01 140.933 1159.05 172.999 1148.73 C 221.313 1133.18 234.235 1086.79 237.507 1041.07 C 239.873 1007.99 231.373 969.919 225.732 937.145 C 219.736 902.302 213.301 864.435 201.371 831.023 C 157.603 832.368 123.769 831.041 83.9078 808.825 C 84.05 797.803 82.3848 764.644 85.2067 756.912 C 87.2556 756.236 103.225 765.813 106.755 767.647 C 137.923 783.795 170.998 795.958 205.202 803.85 C 232.449 749.17 260.533 690.345 287.277 635.275 C 300.669 607.697 292.644 551.233 280.038 522.601 C 253.85 513.836 221.223 506.523 204.908 481.78 C 208.792 465.722 217.077 445.274 223.175 429.879 C 251.935 469.224 292.619 498.338 343.189 486.111 C 385.973 475.766 421.176 452.384 447.038 416.927 C 465.71 391.329 488.174 351.217 481.485 318.674 C 476.135 292.65 428.227 265.187 406.364 251.768 C 419.905 239.452 432.269 234.044 448.876 217.682 C 459.651 226.102 469.958 234.531 480.119 243.806 C 488.996 251.908 499.442 265.868 509.018 272.253 C 512.681 274.695 531.795 279.548 536.507 280.618 C 560.197 285.998 598.421 285.865 621.943 279.655 C 648.44 272.66 686.559 253.841 712.288 241.125 C 749.531 222.72 799.227 200.775 833.24 178.653 z" fill="rgb(191,237,221)" transform="translate(0,0)"></path>
<path d="M 345.675 1428.89 C 347.827 1432.17 346.821 1437.16 348.505 1440.96 C 349.116 1440.93 349.733 1440.96 350.338 1440.88 C 351.011 1440.78 351.661 1440.56 352.323 1440.41 C 333.396 1473.05 299.125 1488.17 266.509 1503.53 L 260.264 1495 C 253.903 1487.22 247.415 1479.76 240.527 1472.44 C 271.686 1467.74 322.901 1451.38 345.675 1428.89 z" fill="rgb(21,21,21)" transform="translate(0,0)"></path>
<path d="M 182.279 1155.04 C 185.617 1156.13 199.413 1167.36 200.969 1170.5 L 200.083 1172.68 C 190.219 1181.54 136.916 1198.4 126.192 1192.66 C 117.144 1181.03 112.462 1172.82 105.516 1159.69 C 134.187 1165.59 154.932 1164.08 182.279 1155.04 z" fill="rgb(21,21,21)" transform="translate(0,0)"></path>
<path d="M 857.233 187.197 C 899.31 194.849 940.597 204.009 983.011 210.764 C 1031.35 218.463 1061.21 224.595 1109.89 213.936 L 1110.42 215.189 L 1113.33 214.987 C 1115.78 218.725 1115.08 217.178 1115.45 221.864 C 1112.8 223.82 1112.37 223.435 1108.88 224.026 L 1108.66 224.929 L 1109.67 225.531 C 1123.11 221.717 1137.92 217.765 1147.55 207.111 C 1155.56 219.621 1177.64 241.454 1190.65 247.817 C 1190.52 245.642 1190.85 246.712 1188.82 244.807 C 1188.76 241.705 1188.46 243.169 1189.96 240.294 C 1193.5 239.734 1191.71 239.803 1195.78 241.397 L 1197.53 240.674 C 1247.01 269.841 1278.86 286.086 1334.14 304.615 C 1348.23 309.236 1362.44 313.463 1376.77 317.291 C 1380.97 318.455 1394.99 322.001 1398.36 323.592 L 1398.2 324.927 C 1403.77 327.226 1407.13 326.469 1412.35 329.013 C 1412.72 333.144 1413.28 331.482 1411.65 334.485 C 1406.08 335.827 1399.28 329.841 1395.41 332.618 C 1340 318.571 1275.39 292.839 1219.25 276.013 C 1135 249.639 1046.72 232.473 960.013 217.161 C 942.588 214.803 869.26 200.845 856.431 205.708 C 792.478 229.952 729.178 260.205 670.312 295.373 C 472.226 413.715 317.961 595.455 238.215 812.407 C 234.158 823.445 244.694 865.086 246.022 878.695 C 270.827 1016.14 306.997 1150.79 343.551 1285.68 C 354.33 1325.46 367.152 1385.65 384.406 1424.1 C 386.262 1428.23 408.023 1445.61 413.246 1450.44 C 430.899 1466.77 498.807 1523.99 508.326 1539.58 L 507.872 1541.19 C 510.82 1544.55 515.215 1547.93 516.08 1551.57 C 514.73 1554.93 515.731 1553.53 512.885 1555.87 C 506.267 1554.94 505.579 1548.29 500.168 1547.49 C 498.333 1546.25 480.706 1528.96 477.751 1526.18 C 463.305 1512.86 448.633 1499.8 433.743 1486.98 C 411.009 1467.62 386.28 1452.56 363.374 1434.3 C 355.422 1379.18 337.082 1325.44 323.852 1271.74 C 315.596 1238.22 308.521 1204.22 300.129 1170.5 L 270.903 1052.55 C 261.439 1014.79 250.423 974.627 243.975 936.051 C 237.712 898.583 223.312 857.464 219.056 821.1 C 217.986 811.955 256.414 735.293 261.649 724.289 C 346.907 545.084 482.081 397.514 650.049 292.41 C 680.554 273.324 719.328 255.898 752.187 239.705 C 774.216 228.821 796.158 217.761 818.011 206.528 C 828.786 200.955 846.524 190.559 857.233 187.197 z" fill="url(#Gradient2)" transform="translate(0,0)"></path>
<path d="M 1109.67 225.531 C 1123.11 221.717 1137.92 217.765 1147.55 207.111 C 1155.56 219.621 1177.64 241.454 1190.65 247.817 C 1191.61 248.851 1200.22 253.418 1202.06 254.44 C 1180.62 251.746 1169.56 246.599 1149.59 241.666 C 1132.97 237.56 1112.28 233.981 1095.08 230.488 C 1099.94 228.802 1104.8 227.15 1109.67 225.531 z" fill="rgb(21,21,21)" transform="translate(0,0)"></path>
<path d="M 1431.46 330.83 C 1430.93 327.959 1428.48 323.521 1428.41 322.036 C 1428.1 315.556 1436.65 297.496 1440.07 292.599 C 1445.07 303.08 1425.9 323.52 1442.82 325.612 C 1452.03 334.131 1460.44 343.884 1469.91 352.204 C 1515.26 392.086 1557.89 429.823 1609.52 461.436 C 1628.11 427.365 1626.5 423.433 1629.7 388.329 C 1642.4 394.12 1655.98 407.874 1662.64 419.936 C 1658.59 431.302 1644.01 460.401 1637.32 470.616 C 1658.17 522.32 1683.1 561.072 1719.58 603.539 C 1730.7 616.49 1744.64 632.927 1757.99 643.265 C 1769.72 636.24 1801.1 616.755 1814.56 617.473 C 1828.78 618.232 1839.03 640.2 1843.04 653.156 C 1819.91 651.67 1794.91 650.373 1774.8 664.514 C 1774.33 682.515 1782.46 727.353 1785.62 746.919 C 1789.71 772.906 1794.15 798.836 1798.94 824.701 C 1805.1 857.342 1809.33 882.425 1831.8 908.688 L 1842.33 911.415 C 1849.56 909.52 1858.33 906.792 1864.98 904.059 C 1896.34 891.164 1924.26 871.015 1934.72 918.795 C 1935.58 922.733 1936.04 926.697 1936.37 930.907 C 1903.69 920.207 1885.91 938.669 1858.19 943.3 C 1845.23 934.084 1833.05 922.938 1823.59 910.149 C 1816.95 901.164 1813.2 893.807 1804.98 886.107 C 1795.13 842.016 1787.38 800.29 1778.96 755.455 C 1773.42 725.904 1767.16 683.653 1757.41 656.067 C 1755.01 649.269 1724.66 623.959 1716.39 615.094 C 1682.64 578.895 1642.41 516.756 1625.82 470.58 C 1633.24 453.737 1645.67 437.752 1654.31 421.095 C 1649.01 414.801 1642.7 406.888 1637.01 401.151 C 1636.91 430.232 1631.06 442.196 1618.38 468.68 C 1638.23 525.312 1677.15 587.055 1720.12 629.531 C 1730.28 639.575 1743.29 646.163 1753.58 654.94 C 1760.71 698.436 1770.06 741.234 1778.64 784.544 C 1793.32 858.679 1806.04 933.998 1813.89 1009.2 C 1819.21 1060.29 1821.86 1112.09 1825.72 1163.32 C 1827.09 1183.21 1828.59 1203.09 1830.21 1222.96 C 1832.12 1245.34 1835.9 1249.05 1823.65 1270.23 C 1796.35 1317.4 1771.79 1366.84 1746.62 1414.94 C 1737.2 1432.95 1695.65 1495.02 1683.47 1507.2 L 1681.53 1506.74 C 1660.21 1525.07 1653.74 1543.83 1635.08 1563.73 C 1633.54 1562.13 1632.9 1561.52 1631.17 1560.21 L 1629.69 1559.11 C 1628.47 1555.05 1629.37 1555.42 1631.46 1550.31 C 1641.01 1540.06 1652.68 1522.13 1664.04 1513.83 C 1668.88 1510.29 1669.93 1513.27 1669.33 1504.34 C 1669.32 1504.21 1674.57 1496.82 1675.03 1496.18 L 1674.51 1494.41 C 1676.94 1490.14 1680.37 1485.66 1683.34 1481.65 C 1732.55 1415.27 1770.56 1340.94 1807.35 1267.2 C 1810.98 1259.93 1815.14 1250.28 1819.67 1243.85 C 1819.03 1202.92 1816.16 1172.34 1812.43 1131.65 C 1808.72 1086.91 1804.02 1042.27 1798.33 997.744 C 1794.94 969.474 1792.71 940.827 1789.02 912.609 C 1780.78 844.668 1768.97 777.207 1753.64 710.507 C 1751.63 701.386 1745.55 666.803 1741.57 661.36 C 1735.19 652.627 1715.23 636.687 1706.05 626.793 C 1695.05 614.313 1681.63 602.659 1670.95 590.011 C 1635.78 548.326 1595.37 513.067 1556.94 474.365 L 1562.4 472.231 C 1567.78 460.17 1569.54 466.846 1578.88 463.564 C 1605.5 484.822 1624.24 532.402 1651.94 557.142 C 1647.14 546.834 1637.35 532.06 1631.22 521.666 C 1620.73 503.89 1617.13 494.911 1610.9 475.665 C 1596.33 468.03 1583.69 457.967 1570.18 448.713 C 1525.65 418.226 1485.22 383.131 1446.48 345.694 C 1441.41 340.791 1436.07 336.19 1431.46 330.83 z" fill="url(#Gradient1)" transform="translate(0,0)"></path>
<path d="M 1908.27 897.215 L 1912.96 897.284 C 1918.95 900.799 1923.82 912.559 1927.09 919.133 C 1902.96 918.434 1883.82 925.551 1861.21 933.104 C 1855.6 934.774 1848.13 924.294 1842.95 920.342 L 1842.01 919.638 C 1870.55 913.483 1884.93 902.617 1908.27 897.215 z" fill="rgb(21,21,21)" transform="translate(0,0)"></path>
<path d="M 1810.87 625.15 C 1822.69 625.968 1826.14 635.152 1832.97 644.023 C 1813.72 641.816 1800.37 645.226 1781.85 649.786 C 1776.51 651.042 1771.31 652.729 1766.14 651.33 C 1763.75 649.247 1763.52 649.39 1762.39 646.52 C 1774.67 641.34 1801.03 628.041 1810.87 625.15 z" fill="rgb(21,21,21)" transform="translate(0,0)"></path>
<path d="M 1631.46 1550.31 C 1629.37 1555.42 1628.47 1555.05 1629.69 1559.11 L 1631.17 1560.21 C 1632.9 1561.52 1633.54 1562.13 1635.08 1563.73 C 1615 1587.47 1592.65 1608.82 1569.57 1629.56 C 1568.4 1630.62 1567.71 1632.26 1567.08 1633.67 C 1564.71 1636.46 1535.61 1659.15 1531.11 1662.75 C 1458.28 1721.08 1375.97 1761.79 1292.57 1801.9 L 1234.3 1830.04 C 1219.86 1837.04 1203.57 1844.54 1190.08 1853.01 C 1172.68 1845.93 1159.76 1843.45 1142.61 1838.44 C 1096.28 1824.92 1047.54 1819.71 1001.19 1808.34 C 952.113 1796.3 899.62 1777.4 852.22 1760.04 C 829.207 1751.62 805.939 1743.9 783.107 1735.48 C 773.533 1731.94 752.69 1721.51 743.315 1716.58 C 720.878 1704.79 697.981 1689 676.225 1675.61 C 651.651 1660.49 625.075 1645.72 601.351 1629.48 L 601.902 1628.14 C 594.327 1622.87 579.176 1615.48 573.855 1610.75 L 573.851 1608.6 C 582.643 1605.94 600.254 1624.1 607.56 1621.56 C 619.065 1625.58 645.66 1641.57 656.437 1648.47 C 786.974 1732.02 929.537 1781.79 1081.71 1812.19 C 1108.67 1817.58 1135.8 1822.14 1163.05 1825.86 C 1166.67 1826.39 1180.49 1828.88 1182.8 1828.63 C 1202.78 1826.21 1223.86 1817.12 1242.39 1809.64 C 1349.22 1766.49 1448.86 1709.66 1538.9 1637.7 C 1546.17 1631.9 1555.26 1622.49 1562.84 1617.72 C 1574.41 1614.49 1621.64 1561.61 1631.46 1550.31 z" fill="rgb(132,189,173)" transform="translate(0,0)"></path>
<path d="M 550.325 1603.26 C 570.474 1619.06 594.856 1633.32 616.735 1646.56 L 680.649 1685.74 C 691.396 1692.27 702.78 1698.43 713.055 1705.54 C 674.316 1694.33 613.927 1683.74 589.284 1725.41 C 582.784 1675.1 577.622 1647.62 549.839 1604.25 L 550.325 1603.26 z" fill="rgb(191,237,221)" transform="translate(0,0)"></path>
<path d="M 575.728 1632.07 C 586.901 1637.13 597.888 1645.25 608.337 1651.7 C 627.915 1663.95 647.712 1675.84 667.718 1687.38 L 657.25 1687.06 C 634.044 1686.41 616.738 1689.22 595.512 1698.73 C 592.973 1685.84 590.042 1673.1 585.805 1660.65 C 582.585 1651.19 577.924 1641.81 575.728 1632.07 z" fill="rgb(21,21,21)" transform="translate(0,0)"></path>
<path d="M 1857.91 943.617 L 1860.51 945.349 C 1859.42 951.869 1851.81 966.92 1848.96 973.83 C 1831.62 1015.9 1833.43 1057.22 1836.14 1102.01 C 1838.63 1143.12 1841.05 1187.46 1847.32 1228.76 C 1875.85 1223.02 1908.04 1217.42 1936.29 1227.96 C 1939.96 1244.47 1942.15 1255.17 1943.05 1272.37 C 1923.24 1267.43 1903.13 1263.81 1882.84 1261.53 C 1870.85 1260.27 1849.58 1260.81 1840.02 1255.05 C 1838.72 1251.68 1838.26 1249.99 1840.51 1247.28 C 1857.03 1252.83 1867.57 1251.52 1884.67 1253.19 C 1901.05 1254.69 1917.31 1257.21 1933.37 1260.75 C 1932.97 1252.01 1931.18 1243.03 1929.7 1234.38 C 1899.42 1228.27 1868.85 1232.19 1839.09 1239.53 C 1831.07 1172.07 1825.61 1097.05 1826.62 1029.08 C 1826.85 1013.59 1843.58 949.476 1857.91 943.617 z" fill="rgb(191,237,221)" transform="translate(0,0)"></path>
<path d="M 1398.36 323.592 C 1404.62 324.948 1417.33 327.022 1421.56 330.744 C 1431.53 339.52 1441.25 349.874 1450.89 359.119 C 1468.55 376.02 1486.69 392.41 1505.28 408.267 C 1518.62 419.486 1530.99 429.241 1545 439.417 C 1552.78 445.066 1573.09 457.842 1578.88 463.564 C 1569.54 466.846 1567.78 460.17 1562.4 472.231 L 1556.94 474.365 C 1525.49 441.703 1487.99 411.241 1455.95 378.66 C 1441.86 364.333 1429.12 354.036 1416.54 337.577 C 1408.68 336.142 1403 334.93 1395.41 332.618 C 1399.28 329.841 1406.08 335.827 1411.65 334.485 C 1413.28 331.482 1412.72 333.144 1412.35 329.013 C 1407.13 326.469 1403.77 327.226 1398.2 324.927 L 1398.36 323.592 z" fill="rgb(191,237,221)" transform="translate(0,0)"></path>
<path d="M 500.168 1547.49 C 505.579 1548.29 506.267 1554.94 512.885 1555.87 C 515.731 1553.53 514.73 1554.93 516.08 1551.57 C 515.215 1547.93 510.82 1544.55 507.872 1541.19 L 508.326 1539.58 C 523.464 1554.89 536.427 1571.05 550.91 1586 C 562.976 1598.45 591.691 1613.27 607.56 1621.56 C 600.254 1624.1 582.643 1605.94 573.851 1608.6 L 573.855 1610.75 C 579.176 1615.48 594.327 1622.87 601.902 1628.14 L 601.351 1629.48 C 583.029 1619.62 568.202 1608.09 551.351 1598.5 L 550.113 1599.5 L 550.325 1603.26 L 549.839 1604.25 C 534.341 1587.94 517.085 1565.68 500.168 1547.49 z" fill="rgb(191,237,221)" transform="translate(0,0)"></path>
<path d="M 1150.43 194.337 C 1166.39 216.198 1175 224.672 1197.53 240.674 L 1195.78 241.397 C 1191.71 239.803 1193.5 239.734 1189.96 240.294 C 1188.46 243.169 1188.76 241.705 1188.82 244.807 C 1190.85 246.712 1190.52 245.642 1190.65 247.817 C 1177.64 241.454 1155.56 219.621 1147.55 207.111 C 1137.92 217.765 1123.11 221.717 1109.67 225.531 L 1108.66 224.929 L 1108.88 224.026 C 1112.37 223.435 1112.8 223.82 1115.45 221.864 C 1115.08 217.178 1115.78 218.725 1113.33 214.987 L 1110.42 215.189 L 1109.89 213.936 C 1126.05 209.031 1137.73 206.278 1150.43 194.337 z" fill="rgb(191,237,221)" transform="translate(0,0)"></path>
<path d="M 1635.08 1563.73 C 1653.74 1543.83 1660.21 1525.07 1681.53 1506.74 L 1683.47 1507.2 C 1661.91 1538.34 1598.4 1611.64 1567.08 1633.67 C 1567.71 1632.26 1568.4 1630.62 1569.57 1629.56 C 1592.65 1608.82 1615 1587.47 1635.08 1563.73 z" fill="rgb(93,148,135)" transform="translate(0,0)"></path>
<path d="M 254.297 1016.79 C 258.16 1022.46 275.546 1102.83 278.756 1115.58 L 307.94 1230.93 C 311.661 1246.25 317.164 1264.74 319.663 1279.84 C 313.473 1268.93 307.121 1256.17 301.096 1244.93 C 278.326 1207.37 239.645 1177.5 202.057 1155.47 C 248.857 1128.39 256.093 1065.25 254.297 1016.79 z" fill="rgb(191,237,221)" transform="translate(0,0)"></path>
<path d="M 260.271 1074.72 C 264.072 1085.43 265.995 1104.03 269.393 1116.18 C 279.652 1152.86 288.574 1191.37 299.749 1227.68 C 293.944 1219.89 287.725 1212.42 281.118 1205.3 C 265.069 1186.74 239.218 1169.87 219.009 1155.44 C 244.385 1133.68 253.601 1106.19 260.271 1074.72 z" fill="rgb(21,21,21)" transform="translate(0,0)"></path>
<path d="M 500.427 287.863 C 509.415 289.33 526.129 296.092 537.07 298.441 C 570.087 305.527 600.972 300.647 633.561 295.136 C 598.533 315.23 549.144 353.866 518.828 379.7 C 504.69 391.76 490.917 404.243 477.528 417.13 C 467.732 426.513 454.954 439.513 444.585 447.803 C 471.198 413.774 498.131 376.893 500.71 331.911 C 501.54 317.446 500.117 302.534 500.427 287.863 z" fill="rgb(191,237,221)" transform="translate(0,0)"></path>
<path d="M 510.585 301.225 C 549.726 314.046 551.279 312.952 592.722 311.866 C 574.694 322.791 562.365 331.939 545.395 344.542 C 530.851 355.942 513.772 372.435 498.219 381.325 C 512.942 351.385 514.078 334.759 510.585 301.225 z" fill="rgb(21,21,21)" transform="translate(0,0)"></path>
<path d="M 431.874 460.138 L 432.208 460.367 C 431.407 462.454 395.075 502.466 390.237 508.23 C 357.236 547.545 332.653 585.388 305.933 629.089 C 307.413 623.752 308.318 619.178 309.381 613.783 C 315.145 569.424 310.167 545.682 294.94 504.638 C 347.343 510.986 390.452 489.166 431.874 460.138 z" fill="rgb(191,237,221)" transform="translate(0,0)"></path>
<path d="M 382.962 499.041 L 383.785 500.429 C 381.919 504.437 369.837 518.062 365.882 522.6 C 347.662 543.506 336.06 563.623 322.589 587.496 L 321.492 587.088 L 321.181 583.25 C 320.859 558.822 317.091 539.466 311.546 516.073 C 342.147 512.907 354.079 511.696 382.962 499.041 z" fill="rgb(21,21,21)" transform="translate(0,0)"></path>
<path d="M 790.29 1743.88 C 800.432 1745.26 812.993 1751.52 822.807 1755.09 C 850.067 1765.19 877.384 1775.14 904.758 1784.94 C 931.201 1794.16 958.506 1800.55 984.917 1809.59 C 971.187 1809.86 957.551 1810.33 943.928 1812.19 C 943.12 1812.22 942.312 1812.26 941.508 1812.35 C 912.601 1815.58 887.966 1826.58 870.3 1849.89 C 861.351 1802.49 827.83 1771.1 790.29 1743.88 z" fill="rgb(191,237,221)" transform="translate(0,0)"></path>
<path d="M 832.033 1767.67 C 842.203 1769.43 854.063 1775.73 863.929 1779.29 C 887.951 1787.97 912.225 1796.55 936.676 1803.94 C 930.363 1805.11 924.105 1806.75 917.859 1808.23 C 902.747 1812.02 888.294 1817.84 874.245 1824.5 C 864.45 1803.36 849.296 1783.26 832.033 1767.67 z" fill="rgb(21,21,21)" transform="translate(0,0)"></path>
<path d="M 1573.92 1636.15 L 1574.36 1636.74 C 1570.41 1642.51 1566.23 1648.17 1562.51 1654.09 C 1549.44 1674.87 1540.18 1703.3 1541.87 1728.03 C 1542.63 1739.07 1545.46 1749.85 1547.94 1760.6 C 1538.79 1754.8 1532 1746.05 1522.37 1741.18 C 1495.52 1727.61 1462.89 1731.9 1435.35 1740.84 C 1425.7 1744.44 1416.13 1747.9 1406.24 1750.79 C 1418.02 1741.86 1432.17 1735.5 1445.08 1728.33 C 1455.7 1722.44 1465.97 1715.74 1476.25 1709.28 C 1510.9 1687.51 1542.24 1661.94 1573.92 1636.15 z" fill="rgb(191,237,221)" transform="translate(0,0)"></path>
<path d="M 1545.93 1669.09 L 1546.21 1669.5 C 1546.16 1671.79 1546.45 1671.09 1545.48 1672.91 C 1535.01 1692.72 1531.5 1711.66 1530.43 1733.97 C 1509.98 1724.52 1491.82 1723.73 1469.76 1725.25 C 1465.46 1725.75 1461.18 1726.41 1456.89 1727.02 C 1467.53 1720.99 1478.56 1715.74 1489.09 1709.51 C 1509.32 1697.54 1527.65 1683.8 1545.93 1669.09 z" fill="rgb(21,21,21)" transform="translate(0,0)"></path>
<path d="M 1738.57 1437.76 C 1739.65 1444.63 1734.08 1459.28 1732.99 1467.01 C 1729.28 1493.31 1731.59 1521.05 1738.01 1546.71 C 1708.89 1537.1 1684.27 1544.32 1657.25 1556.95 L 1646.43 1561.71 C 1679.16 1521.52 1710.57 1481.49 1738.57 1437.76 z" fill="rgb(191,237,221)" transform="translate(0,0)"></path>
<path d="M 1723.51 1472.69 C 1725.91 1482.59 1723.41 1496.6 1723.26 1506.98 C 1723.14 1515.36 1723.68 1523.61 1724.36 1531.95 C 1706.32 1532.28 1688.43 1533.69 1672.07 1541.85 L 1671.68 1540.84 C 1691.86 1521.82 1710.87 1497.38 1723.51 1472.69 z" fill="rgb(21,21,21)" transform="translate(0,0)"></path>
<path d="M 1806.13 897.871 C 1807.62 899.613 1812.45 907.199 1814.03 909.469 C 1823.47 923.072 1831.54 934.287 1845.02 944.27 C 1833.8 972.253 1830.57 985.608 1824.27 1015.33 L 1823.14 1017.96 C 1821.91 1016.16 1819.76 1001.46 1818.86 997.4 C 1823.75 979.75 1829.23 964.465 1835 947.148 C 1817.3 931.882 1808.12 921.19 1806.13 897.871 z" fill="rgb(191,237,221)" transform="translate(0,0)"></path>
<path d="M 492.531 286.807 C 494.501 289.712 494.758 304.899 492.767 307.298 C 488.593 298.28 486.623 295.553 492.531 286.807 z" fill="rgb(132,189,173)" transform="translate(0,0)"></path>
<path d="M 1596.4 475.478 C 1606.29 477.87 1608.4 480.948 1609.7 490.603 C 1604.82 487.377 1600.07 480.298 1596.4 475.478 z" fill="rgb(47,93,87)" transform="translate(0,0)"></path>
<metadata><recraft-signature>{"signed_by": "recraft", "signature_b64": "fyim3RKNLA2h6lBaqgWsm2/EJldX1WnDBXP4JvlQhtBfA4yRkos2IzwP/5LKcWCDvstmqNnkXiqrNX/uNkwAAw==", "signing_algo": "Ed25519", "generation_timestamp": 1783732123, "identifier": "f2a8e052-7d39-498d-8827-673144935861"}</recraft-signature></metadata></svg>