<svg xmlns="http://www.w3.org/2000/svg" height="1024" preserveAspectRatio="none" style="display: block;" version="1.1" viewBox="0 0 2048 2048" width="1024">
<path d="M 0 0 L 2048 0 L 2048 2048 L 0 2048 L 0 0 z" fill="rgb(254,255,254)" transform="translate(0,0)"></path>
<path d="M 992.994 79.6116 C 1514.46 62.5769 1950.99 471.527 1967.97 992.995 C 1984.95 1514.46 1575.96 1950.95 1054.49 1967.88 C 533.093 1984.81 96.6828 1575.88 79.703 1054.49 C 62.7232 533.095 471.603 96.6439 992.994 79.6116 z" fill="rgb(39,39,39)" transform="translate(0,0)"></path>
<path d="M 998.473 155.426 C 1048.27 152.504 1102.35 157.543 1151.68 164.525 C 1452.14 207.046 1713.35 417.169 1827.64 697.28 C 1861.56 780.87 1882.16 869.263 1888.69 959.237 C 1900.22 1125.34 1872.03 1277.18 1792.03 1424.02 C 1753.36 1494.98 1725.57 1537.14 1671.6 1599 C 1545.36 1741.52 1376.1 1839 1189.47 1876.68 C 1143.58 1885.81 1098.75 1889.49 1052.26 1892.63 L 1057.96 1872.39 C 1080.39 1872.18 1100.09 1869.41 1122.05 1867.07 C 1245.94 1853.82 1366.4 1807.8 1472.14 1742.77 C 1553.23 1692.89 1626.11 1625.87 1686.07 1552.07 C 1716.9 1513.44 1744.18 1472.09 1767.56 1428.54 C 1840.87 1294.4 1867.61 1176.78 1873.06 1025.55 C 1832.69 1037.32 1822.14 1045.43 1801.52 1079.66 C 1783.86 1045.2 1769.58 1038.59 1734.3 1025.58 C 1734.27 1055.7 1733.72 1091.46 1730.21 1121.31 C 1714.97 1251 1664.1 1380.87 1579.87 1481.33 C 1444.76 1642.48 1275.93 1722.53 1068.41 1740.2 C 1066.33 1729.57 1064.56 1715.81 1063.65 1705.13 C 1174.4 1651.26 1290.97 1554.54 1359.76 1452.04 C 1367.25 1450.3 1375.96 1448.79 1383.58 1447.27 C 1370.74 1471.18 1346.42 1500.82 1328.84 1521.95 C 1254.67 1611.15 1173.65 1665.14 1074.48 1722.18 C 1118.82 1717.24 1169.09 1709.95 1212.17 1698.45 C 1322.68 1668.95 1432.04 1609.63 1512.07 1527.4 C 1490.78 1502.81 1455.93 1458.02 1440.3 1429.37 C 1445.27 1427.25 1450.67 1425.47 1455.79 1423.66 C 1463.11 1433.25 1470.57 1444.89 1477.99 1454.95 C 1493.19 1475.46 1508.84 1495.62 1524.94 1515.43 C 1547.12 1489.12 1566.47 1469.38 1587.37 1440.41 C 1677.07 1317.47 1714.29 1176.14 1717.13 1025.41 C 1720.01 872.391 1673.33 725.739 1584.24 601.242 C 1568.04 578.599 1543.62 544.98 1523.74 525.567 C 1417.1 421.452 1275.2 351.187 1127.33 331.668 C 1106.47 328.945 1079.63 326.141 1058.89 326.09 C 1079.76 333.521 1110.91 349.664 1130.74 360.686 C 1236.62 418.425 1325.21 503.338 1387.37 606.686 C 1379.3 605.129 1370.97 604.06 1362.82 602.909 C 1316.48 528.606 1257.35 468.93 1186.26 418.314 C 1141.09 385.952 1073.15 349.401 1020.12 332.201 C 1009.94 334.926 993.248 341.592 983.111 345.518 C 894.803 379.72 813.725 441.355 748.61 509.266 C 724.685 534.219 701.402 564.241 680.363 591.748 C 680.322 582.201 680.518 570.747 678.883 561.505 C 682.711 557.018 686.353 552.14 690.035 547.5 C 711.682 520.22 735.383 493.882 760.429 469.673 C 814.137 417.756 875.211 375.016 942.461 342.531 C 954.343 336.791 967.04 331.301 978.473 324.822 C 966.142 327.161 947 328.97 933.876 330.742 C 906.512 334.273 879.301 338.901 852.308 344.614 C 721.679 374.058 603.211 442.826 512.86 541.656 C 383.927 680.762 322.063 867.268 330.243 1055.41 C 332.116 1105.53 337.214 1156.05 348.699 1204.92 C 410.246 1466.82 628.915 1670.45 894.724 1712.61 C 919.279 1716.5 951.799 1722.74 976.758 1721.77 C 960.977 1715.91 940.945 1705.02 925.952 1696.83 C 845.654 1652.96 770.559 1593.13 711.276 1523.37 C 703.805 1514.58 692.244 1499.9 686.612 1490.32 C 692.719 1488.42 698.407 1487.41 704.669 1486.18 C 767.537 1570.03 868.71 1649.45 962.383 1694.43 C 977.886 1701.88 992.693 1710.64 1008.66 1717.28 C 1009.83 1726.27 1010.69 1733.83 1011.29 1742.85 C 986.905 1741.74 963.632 1741.4 939.329 1738.6 C 776.899 1721.08 625.303 1648.68 509.578 1533.36 C 425.294 1450.52 360.319 1328.74 331.924 1214.35 C 316.766 1153.28 311.56 1088.74 311.024 1025.94 C 278.207 1035.71 261.842 1052.43 244.871 1080.87 C 243.79 1078.55 242.664 1076.25 241.494 1073.97 C 223.589 1039.21 206.619 1035.87 173.122 1025.27 C 175.408 1074.5 178.849 1121.9 187.438 1170.53 C 216.156 1332.42 291.484 1482.4 404.188 1602.11 C 559.073 1765.1 772.117 1866.66 997.916 1872.22 C 995.99 1879.71 994.171 1884.73 991.449 1892.01 C 944.236 1891.86 891.484 1882.69 845.404 1873.23 C 488.067 1799.94 203.124 1494.16 160.59 1130.12 C 130.69 874.21 209.511 633.872 382.595 441.347 C 423.912 396.154 469.826 355.391 519.594 319.717 C 668.144 212.186 816.442 164.96 998.473 155.426 z" fill="rgb(191,230,217)" transform="translate(0,0)"></path>
<path d="M 1023.98 174.969 C 1233.75 173.6 1436.24 251.854 1590.58 393.94 C 1727.11 517.717 1820.38 681.991 1856.69 862.662 C 1867.45 918.544 1870.1 964.419 1872.81 1020.66 C 1851.01 1017.15 1831.93 1009.08 1817.2 992.297 C 1810.55 984.158 1806.97 977.852 1801.57 968.879 C 1786.59 1000.05 1766.99 1011.61 1734.48 1020.58 C 1736.06 873.51 1692.72 729.461 1610.24 607.683 C 1590.83 578.643 1559.94 538.43 1535.26 513.74 C 1424.3 403.095 1279.73 332.432 1124.26 312.844 C 1090.71 308.801 1059.53 308.734 1025.93 308.702 C 1032.78 296.757 1057.87 253.162 1061.01 242.42 C 1049.25 221.938 1036.72 193.759 1023.98 174.969 z" fill="rgb(39,39,39)" transform="translate(0,0)"></path>
<path d="M 1567.77 444.332 C 1586.31 442.529 1602.81 456.056 1604.68 474.587 C 1606.55 493.117 1593.09 509.671 1574.56 511.611 C 1555.94 513.561 1539.28 500.008 1537.4 481.381 C 1535.52 462.754 1549.13 446.144 1567.77 444.332 z" fill="rgb(191,230,217)" transform="translate(0,0)"></path>
<path d="M 1342.44 267.831 C 1347.08 273.367 1342.48 290.157 1348.25 296.632 C 1355.65 304.935 1368.3 305.778 1378.43 306.966 C 1367.87 310.175 1359.25 310.189 1349.43 315.951 C 1346.04 328.123 1345.09 345.402 1344.64 358.096 L 1343.23 358.354 C 1339.18 320.404 1346.36 312.898 1303.81 307.923 C 1338.6 300.948 1338.17 304.423 1342.44 267.831 z" fill="rgb(191,230,217)" transform="translate(0,0)"></path>
<path d="M 1730.53 656.803 C 1732.16 659.858 1733.6 673.912 1733.21 677.757 C 1731.23 697.556 1751.2 698.165 1767.23 699.292 C 1736.63 706.03 1734.57 706.884 1732.98 739.246 C 1732.98 740.666 1732.7 741.934 1732.48 743.36 C 1728.59 736.962 1730.71 718.16 1724.42 710.145 C 1718.09 702.074 1709.68 701.415 1700.27 700.059 C 1710.68 699.161 1715.6 698.314 1725.33 694.85 C 1728.54 685.931 1729.51 666.951 1730.53 656.803 z" fill="rgb(191,230,217)" transform="translate(0,0)"></path>
<path d="M 996.594 175.429 C 1003.43 174.87 1013.16 175.015 1020.21 174.913 C 1009.66 197.892 995.369 219.201 984.846 243.503 C 989.694 255.211 1013.56 298.729 1020.94 308.654 C 1014.63 308.5 1008.31 308.416 1002 308.405 C 607.587 309.389 309.406 632.2 310.944 1021.48 C 277.483 1010.89 263.151 997.617 244.982 968.295 L 241.162 976.037 C 226.864 1003.85 202.596 1015.29 173.519 1021.68 C 175.385 968.732 179.997 914.16 190.113 862.095 C 218.702 717 285.399 582.129 383.355 471.338 C 414.051 437.134 444.567 405.277 479.58 375.279 C 599.602 272.903 746.049 206.429 902.125 183.481 C 934.389 178.793 964.155 177.185 996.594 175.429 z" fill="rgb(39,39,39)" transform="translate(0,0)"></path>
<path d="M 467.047 444.685 C 484.562 440.621 502.041 451.577 506.016 469.112 C 509.992 486.647 498.947 504.07 481.392 507.956 C 463.963 511.815 446.691 500.866 442.744 483.457 C 438.797 466.047 449.658 448.72 467.047 444.685 z" fill="rgb(191,230,217)" transform="translate(0,0)"></path>
<path d="M 306.341 651.676 C 308.907 653.943 311.619 680.332 312.279 685.482 C 321.84 686.001 332.417 687.687 341.416 690.995 C 302.784 695.255 313.565 696.5 308.148 731.385 L 307.982 732.414 C 305.478 728.897 302.929 703.821 301.523 696.969 C 291.824 692.632 281.222 691.515 270.75 690.097 C 280.977 687.803 291.309 686.009 301.711 684.722 C 303.598 675.023 304.795 661.887 306.341 651.676 z" fill="rgb(191,230,217)" transform="translate(0,0)"></path>
<path d="M 692.436 276.647 C 694.226 281.985 695.614 298.406 696.272 304.766 C 705.906 305.859 716.991 308.113 726.648 309.84 C 718.579 312.433 706.349 314.238 697.296 316.433 C 695.414 324.623 694.757 338.082 693.174 347.505 L 692.438 347.506 C 690.861 346.064 688.744 322.125 688.258 318.008 C 679.498 315.498 667.608 313.647 658.442 311.96 C 669.092 309.715 677.847 307.846 688.327 304.784 C 689.064 295.092 689.991 286.075 692.436 276.647 z" fill="rgb(191,230,217)" transform="translate(0,0)"></path>
<path d="M 1292.34 617.327 C 1519.21 614.581 1705.21 796.532 1707.46 1023.41 C 1709.72 1250.28 1527.36 1435.89 1300.48 1437.64 C 1074.3 1439.39 889.391 1257.72 887.147 1031.55 C 884.903 805.371 1066.17 620.065 1292.34 617.327 z" fill="rgb(191,230,217)" transform="translate(0,0)"></path>
<path d="M 1275.31 636.424 C 1491.7 624.175 1676.97 789.857 1688.87 1006.27 C 1700.78 1222.69 1534.8 1407.69 1318.37 1419.25 C 1102.42 1430.79 917.926 1265.26 906.047 1049.34 C 894.169 833.407 1059.4 648.647 1275.31 636.424 z" fill="rgb(39,39,39)" transform="translate(0,0)"></path>
<path d="M 1325.9 647.767 C 1337.67 656.942 1348.27 676.623 1355.67 689.576 C 1378.33 729.255 1391.59 769.257 1396.03 814.63 C 1437.8 770.803 1498.79 755.605 1556.62 749.639 C 1558.43 822.934 1542.95 875.209 1495.9 932.605 C 1548.28 926.351 1616.91 957.182 1654.65 992.612 C 1659.3 996.978 1664.05 1001.54 1668.67 1005.97 C 1656.6 1014.9 1645.01 1026.77 1632.89 1036.08 C 1593.37 1066.47 1551.02 1085.11 1501.15 1088.59 C 1544.01 1116.02 1575 1179.11 1584.91 1227.7 C 1586.65 1236.24 1588.39 1244.95 1590.09 1253.51 C 1530.59 1257.67 1470.28 1248.33 1418.24 1217.69 C 1424.7 1292.86 1412.01 1325.3 1382 1391.85 C 1337.36 1363.87 1288.5 1310.11 1268.07 1261.69 C 1266.66 1258.24 1265.41 1254.64 1264.14 1251.13 C 1263.37 1252.61 1262.57 1254.08 1261.74 1255.52 C 1237.75 1297.42 1197.89 1330.66 1151.9 1345.23 C 1139.68 1349.1 1127.47 1352.47 1115.1 1355.83 C 1111.81 1340.56 1108.5 1324.54 1107.45 1308.98 C 1104.47 1264.66 1115.12 1215.88 1134.84 1176.08 C 1058.15 1200.98 1024.08 1190.02 951.911 1166.59 C 979.479 1105.74 1006.23 1074.6 1063.56 1041.48 C 1012.82 1018.12 964.651 961.943 937.646 913.369 C 943.407 910.778 949.195 908.247 955.008 905.776 C 1005.77 884.516 1071.25 879.042 1122.7 900.272 C 1084.46 846.869 1083.16 778.998 1092.65 716.715 C 1163.41 742.725 1190.17 755.486 1241.8 812.919 C 1245.93 751.398 1284.16 691.454 1325.9 647.767 z" fill="rgb(254,255,254)" transform="translate(0,0)"></path>
<path d="M 1323.84 665.49 C 1325.61 666.426 1327.4 668.022 1328.54 669.697 C 1369.58 729.824 1387.7 790.018 1380.07 863.281 C 1428.05 797.888 1468.01 775.452 1546.91 760.462 C 1542.79 817.202 1524.54 871.052 1489.04 916.081 C 1478.47 929.475 1465.46 942.208 1453.45 954.397 C 1462.69 952.488 1472.59 950.402 1481.93 949.492 C 1543.32 943.509 1609.52 968.35 1656.73 1006.86 C 1602.37 1046 1562.19 1067.48 1493.17 1071.35 C 1480.36 1072.07 1466.47 1071.15 1453.51 1070.83 C 1521.15 1107.82 1557.16 1176.75 1579.96 1246.95 C 1566.3 1244.21 1549.46 1243.12 1535.21 1240.76 C 1497.37 1234.49 1458.96 1223.53 1426.41 1202.75 C 1413.88 1194.75 1402.82 1185.31 1391.4 1175.91 C 1394.22 1184.88 1397.46 1195.74 1399.57 1204.85 C 1402.96 1219.02 1404.48 1233.57 1404.11 1248.14 C 1403.65 1276.05 1391.47 1352.76 1376.22 1377.25 C 1365.04 1364.94 1351.97 1353.37 1340.81 1341.01 C 1311.67 1308.75 1286.14 1272.55 1273.28 1230.78 L 1268.87 1215.71 C 1265.21 1223.48 1261.14 1231.06 1256.69 1238.41 C 1232.66 1277.92 1199.3 1308.3 1158.08 1328.86 C 1146.01 1334.88 1137.68 1339.45 1124.38 1342.75 C 1121.85 1330.29 1121.87 1310.5 1122.15 1297.42 C 1123.5 1234.66 1141.55 1190.07 1174.03 1137.89 C 1124.1 1173.16 1057.48 1180.95 998.937 1168.55 C 987.007 1166.03 975.252 1163.83 963.894 1159.2 C 990.745 1115.97 1032.12 1076.94 1078.21 1054.41 C 1089.85 1048.72 1101.77 1044.11 1113.84 1039.42 C 1041.53 1020.21 991.154 980.298 950.409 918.221 C 1030.56 893.889 1081.44 892.019 1158.78 929.785 C 1150.55 916.355 1141.23 904.61 1133.87 890.196 C 1106.19 836.015 1098.52 789.197 1099 729.813 C 1165.84 752.667 1213.72 796.203 1253.22 853.197 C 1253.03 795.104 1270.98 742.727 1302.76 694.209 C 1308.35 685.678 1317.17 672.835 1323.84 665.49 z" fill="rgb(23,22,23)" transform="translate(0,0)"></path>
<path d="M 1294.28 936.144 C 1344.38 932.264 1388.22 969.559 1392.42 1019.64 C 1396.62 1069.72 1359.61 1113.79 1309.55 1118.31 C 1259.05 1122.87 1214.49 1085.45 1210.25 1034.91 C 1206.01 984.383 1243.72 940.06 1294.28 936.144 z" fill="rgb(254,255,254)" transform="translate(0,0)"></path>
<path d="M 1296.93 954.382 C 1337.82 951.697 1373.13 982.693 1375.77 1023.59 C 1378.41 1064.48 1347.37 1099.75 1306.48 1102.34 C 1265.65 1104.93 1230.44 1073.95 1227.81 1033.13 C 1225.18 992.304 1256.11 957.063 1296.93 954.382 z" fill="rgb(23,22,23)" transform="translate(0,0)"></path>
<path d="M 1294.62 962.599 C 1331.01 958.593 1363.77 984.798 1367.86 1021.18 C 1371.95 1057.56 1345.82 1090.38 1309.45 1094.56 C 1272.96 1098.74 1240.01 1072.51 1235.9 1036.01 C 1231.8 999.514 1258.11 966.619 1294.62 962.599 z" fill="rgb(254,255,254)" transform="translate(0,0)"></path>
<path d="M 1298.03 972.328 C 1328.74 970.582 1355.13 993.896 1357.18 1024.59 C 1359.23 1055.28 1336.18 1081.9 1305.51 1084.25 C 1274.4 1086.64 1247.33 1063.19 1245.25 1032.07 C 1243.17 1000.94 1266.89 974.098 1298.03 972.328 z" fill="rgb(39,39,39)" transform="translate(0,0)"></path>
<path d="M 1323.92 677.534 C 1332.12 682.078 1356.34 737.82 1360.91 751.017 C 1373.83 787.303 1379.91 841.19 1366.66 878.138 C 1361.8 891.682 1345.54 919.617 1338.58 934.195 L 1326.97 930.231 C 1331.58 891.404 1343.22 873.077 1340.84 827.479 C 1337.47 842.822 1335.81 860.444 1332.91 876.032 C 1330.09 891.184 1326.58 905.793 1323.05 920.783 L 1320.97 929.314 C 1313.31 928.225 1307.77 928.024 1299.98 927.764 C 1299.26 912.012 1299.02 896.241 1299.27 880.474 C 1299.37 874.448 1301.58 841.274 1300.68 838.195 L 1299.37 839.305 C 1293.48 852.294 1293.91 911.169 1293.93 928.613 C 1289.8 928.901 1285.73 929.491 1281.63 930.02 C 1276.95 911.34 1264.6 879.043 1262.88 864.219 C 1255.52 801.018 1286.04 726.937 1323.92 677.534 z" fill="rgb(254,255,254)" transform="translate(0,0)"></path>
<path d="M 1031.45 909.419 C 1035.98 909.141 1040.52 909.016 1045.05 909.045 C 1107.34 909.848 1168.16 937.313 1211.44 981.734 C 1205.94 993.467 1204.39 998.825 1201.44 1011.55 C 1185.91 1007.68 1134.87 993.469 1122.41 993.353 L 1121.79 994.275 C 1131.19 1002.9 1167.37 1010.43 1181.04 1013.63 C 1186.64 1015.25 1195.5 1016.81 1201.45 1018.04 C 1201.21 1022.83 1201.17 1028.14 1201.04 1032.97 C 1180.17 1032.9 1157.77 1035.03 1137.16 1032.99 C 1057.08 1025.06 1009.74 980.898 961.575 923.226 C 987.836 913.682 1003.88 911.642 1031.45 909.419 z" fill="rgb(254,255,254)" transform="translate(0,0)"></path>
<path d="M 1345.3 1116.88 L 1347.37 1117.04 C 1353.1 1121.71 1363.93 1139.29 1368.07 1146.43 C 1411.84 1221.95 1394.87 1286.5 1375.52 1364.1 C 1330.31 1325.39 1289.56 1268.3 1276.29 1209.81 C 1272.52 1193.22 1280.6 1176.75 1282.54 1159.61 C 1283.69 1149.46 1282.69 1135.28 1284.56 1126.49 C 1287.46 1125.35 1289.58 1126.04 1292.71 1126.51 C 1294.44 1130.96 1294.64 1145.13 1295.18 1151.14 C 1297.21 1173.72 1300.89 1209.51 1310.72 1229.22 L 1311.47 1230.72 C 1306.95 1192.83 1301.56 1166 1300.04 1127.04 C 1311.13 1126.2 1319.41 1125.28 1330.17 1122.62 C 1335.27 1143.42 1348.17 1180.47 1355.18 1200.49 C 1356.91 1179.64 1342.85 1141.89 1335.74 1120.89 L 1345.3 1116.88 z" fill="rgb(254,255,254)" transform="translate(0,0)"></path>
<path d="M 1227.09 1094.94 C 1228.79 1095.95 1235.93 1104.58 1237.62 1106.56 C 1223.06 1126.91 1195.44 1166.98 1186.21 1189.56 C 1203.76 1173.1 1228.75 1130.88 1242.87 1109.41 C 1251.76 1114.58 1255.93 1118.17 1265.83 1121.53 C 1258.45 1146.77 1249.92 1169.68 1245.29 1195.7 C 1255.04 1179.49 1266.92 1128.37 1271.98 1123.01 L 1273.59 1123.06 C 1280.43 1136.86 1268.31 1186.56 1263.21 1202.75 C 1262.53 1204.68 1261.8 1206.6 1261.03 1208.5 C 1236.66 1268.34 1188.7 1308.47 1130.3 1333.1 C 1129.01 1308.03 1129.71 1287.07 1133.3 1262.13 C 1141.54 1204.94 1179.24 1129.02 1227.09 1094.94 z" fill="rgb(254,255,254)" transform="translate(0,0)"></path>
<path d="M 1106.55 741.029 C 1119.98 746.612 1133.02 753.088 1145.59 760.414 C 1192.47 787.665 1231.6 829.043 1254.85 878.395 C 1262.07 893.718 1267.77 914.778 1272.13 931.273 C 1267.42 932.765 1261.9 935.192 1257.25 937.088 C 1240.15 908.421 1225.72 890.806 1205.65 864.086 C 1215.36 891.931 1239.79 912.907 1252.8 937.473 C 1252.36 940.151 1251.93 939.617 1248.96 941.831 C 1241.46 946.733 1237.51 949.71 1230.68 955.502 C 1216.1 932.669 1198.89 908.625 1179.87 889.294 C 1187.62 905.439 1215.44 942.62 1227.08 959.12 C 1223.35 963.887 1219.94 968.784 1216.43 973.714 C 1208.33 965.991 1199.2 958.219 1190.95 950.399 C 1128.91 891.606 1108.82 823.579 1106.55 741.029 z" fill="rgb(254,255,254)" transform="translate(0,0)"></path>
<path d="M 1536.91 770.373 L 1537.84 771.947 C 1537.23 787.612 1529.42 818.165 1524.55 833.12 C 1508.83 881.455 1479.7 923.722 1437.75 952.913 C 1423.54 962.798 1405.55 972.108 1390.03 979.942 C 1385.65 972.51 1382.49 968.04 1377.31 961.086 C 1398.59 943.827 1417.1 923.421 1432.21 900.572 L 1433.11 898.678 L 1432.75 897.799 C 1427.78 900.61 1404.82 925.416 1398.45 931.877 C 1390.01 940.377 1381.27 948.574 1372.25 956.451 C 1367.13 950.546 1364.12 947.958 1357.83 943.551 C 1382.96 849.259 1438.76 787.588 1536.91 770.373 z" fill="rgb(254,255,254)" transform="translate(0,0)"></path>
<path d="M 1486.63 957.397 C 1541.06 951.757 1598.82 975.309 1642.52 1006.48 C 1607.53 1030.79 1585.42 1045.03 1542.47 1055.71 C 1502.25 1066.45 1462.01 1064.74 1421.5 1057.13 C 1415.12 1055.93 1399.93 1056.34 1398.81 1049.79 C 1400.98 1044.5 1401.99 1045.17 1406.61 1045.64 C 1438.86 1052.68 1454.67 1056.81 1487.42 1051.47 C 1483.13 1050.75 1478.45 1050.42 1474.09 1050.13 C 1449.58 1048.49 1425.69 1043.45 1401.69 1038.27 L 1401.79 1022.23 C 1428.9 1015.99 1457.46 1017.72 1487.72 1008.81 C 1462.38 1006.25 1427.68 1012.8 1401.42 1015.31 C 1400 1005.97 1397.69 998.204 1394.96 989.191 C 1427.92 971.57 1448.13 961.662 1486.63 957.397 z" fill="rgb(254,255,254)" transform="translate(0,0)"></path>
<path d="M 1396.27 1059.92 C 1411.8 1063.78 1423.77 1066.77 1438.52 1073.59 C 1508.5 1105.94 1543.95 1168.98 1569.27 1238.16 C 1498.09 1227.45 1443.22 1217.3 1389.78 1162.3 C 1381.27 1152.08 1368.01 1128.58 1359.53 1116.8 C 1358.36 1115.18 1357.98 1111.86 1357.96 1109.77 L 1359.58 1108.45 C 1370.25 1110.57 1396.87 1147.44 1416.78 1157.54 L 1418.23 1158.27 C 1402.32 1139.27 1383.94 1121.49 1366.27 1104.05 C 1373.54 1096.77 1378.39 1091.1 1384.91 1083.27 C 1401.09 1096.05 1441.66 1128.32 1458.65 1135.83 C 1437.73 1114.84 1411.53 1096.26 1387.28 1079.44 C 1391.16 1072.07 1393.25 1067.65 1396.27 1059.92 z" fill="rgb(254,255,254)" transform="translate(0,0)"></path>
<path d="M 1200.91 1042.46 L 1202.31 1043.2 C 1203.78 1048.88 1205.02 1055.61 1206.22 1061.42 C 1190.19 1067.87 1171.51 1080.24 1155.69 1088.23 C 1143 1094.65 1127.63 1100.84 1115.67 1108 C 1145.69 1101.59 1178.24 1079.57 1207.21 1065.58 L 1215.56 1080.42 C 1192.11 1118.67 1152.09 1146.17 1109.25 1158.42 C 1071.78 1170.3 1012.99 1165.96 975.469 1156.2 C 980.729 1146.31 990.895 1134.84 998.642 1126.06 C 1030.64 1089.8 1080.22 1054.61 1128.68 1045.95 C 1135.23 1044.79 1151.66 1044.81 1158.87 1044.56 C 1172.89 1043.94 1186.9 1043.23 1200.91 1042.46 z" fill="rgb(254,255,254)" transform="translate(0,0)"></path>
<path d="M 999.606 99.4376 C 1002.07 99.3128 1004.53 99.2284 1007 99.1843 C 1203.83 96.0732 1396.5 155.967 1556.88 270.12 C 1596.54 298.637 1633.96 330.155 1668.81 364.396 C 1843.12 533.193 1943.17 764.366 1946.92 1006.98 C 1952.23 1253.35 1857.68 1491.39 1684.76 1666.95 C 1513.1 1844.36 1277.56 1945.67 1030.71 1948.26 C 1035.82 1936.26 1041.26 1922.78 1045.18 1910.42 C 1083.25 1908.67 1124.99 1905.28 1162.33 1899.27 C 1323.04 1873.02 1473.43 1803.06 1597.03 1697.05 C 1776.69 1543.75 1888.42 1325.62 1907.85 1090.26 C 1924.13 858.171 1848.83 628.944 1698.1 451.724 C 1547.16 275.808 1334.88 159.706 1102.78 141.237 C 1095.01 140.618 1087.24 140.001 1079.46 139.411 C 1077.38 139.097 1073.95 138.996 1071.74 138.873 C 842.501 126.673 617.599 204.723 445.201 356.309 C 402.807 394.334 349.001 450.568 314.627 495.888 C 210.224 633.961 149.166 799.922 139.193 972.735 C 124.822 1209.36 206.798 1441.73 366.461 1616.95 C 525.925 1792.95 748.941 1898.15 986.171 1909.28 C 980.803 1922.36 976.013 1933.87 969.074 1946.17 C 807.881 1937.37 651.998 1885.5 517.663 1795.98 C 462.638 1759.74 410.576 1717.65 364.54 1670.4 C 206.074 1510.58 112.322 1297.8 101.331 1073.01 C 87.9109 825.529 175.178 583.145 343.273 401.017 C 468.12 263.028 631.996 166.291 813.131 123.655 C 877.594 108.747 934.069 102.445 999.606 99.4376 z" fill="rgb(191,230,217)" transform="translate(0,0)"></path>
<path d="M 918.248 436.543 C 999.555 429.741 1071.08 489.899 1078.32 571.168 C 1085.55 652.437 1025.77 724.283 944.541 731.947 C 862.7 739.669 790.196 679.342 782.908 597.461 C 775.62 515.581 836.33 443.397 918.248 436.543 z" fill="rgb(191,230,217)" transform="translate(0,0)"></path>
<path d="M 991.343 492.155 C 1006.82 491.038 1019.85 493.083 1032.6 502.846 C 1085.71 543.511 1083.83 662.265 1005.7 672.808 C 910.144 676.746 898.515 513.399 991.343 492.155 z" fill="rgb(39,39,39)" transform="translate(0,0)"></path>
<path d="M 600.522 749.419 C 603.852 753.098 611.015 756.326 610.321 760.414 C 609.017 767.756 608.014 774.99 606.814 782.389 C 585.144 915.959 604.59 1059.77 665.406 1181 C 680.012 1210.11 698.821 1234.64 719.826 1259.29 C 738.357 1281.47 758.17 1302.55 779.164 1322.41 C 805.028 1346.8 833.561 1370.97 860.615 1394.29 C 965.083 1484.38 1045.97 1603.8 1056.56 1744.38 C 1060.68 1806.2 1050.55 1868.14 1026.95 1925.42 C 1024.45 1931.44 1020.12 1942.83 1016.42 1948.02 C 1015.56 1949.24 1014.16 1948.88 1012.25 1948.99 C 1003.11 1948.9 992.773 1948.09 983.555 1947.58 C 1015.67 1876.74 1029.55 1824.13 1024.26 1745 C 1015.7 1616.78 942.658 1509.63 850.009 1425.16 C 793.924 1374.03 731.4 1328.02 685.852 1266.46 C 600.582 1149.61 570.798 1004.39 583.407 861.788 C 586.584 825.862 594.624 785.646 600.522 749.419 z" fill="rgb(191,230,217)" transform="translate(0,0)"></path>
<path d="M 412.503 1229.29 C 418.432 1230.97 425.47 1233.99 431.312 1236.31 C 431.937 1235.94 434.271 1235.01 435.037 1234.69 C 449.495 1235.27 465.431 1238.59 479.744 1239.08 C 508.392 1239.93 536.995 1238.58 565.476 1242.42 C 622.268 1250.08 670.06 1283.96 711.553 1321.41 C 717.159 1326.47 740.048 1345 741.655 1350.31 L 741.57 1353.13 C 744.654 1353.87 745.245 1353.72 747.57 1355.89 L 746.784 1356.87 C 737.181 1358.26 722.065 1356.85 711.899 1356.66 C 654.853 1355.65 596.731 1355.8 543.783 1331.48 C 516.155 1318.78 494.594 1303.18 470.319 1285.38 C 447.96 1268.99 428.649 1252.01 412.503 1229.29 z" fill="rgb(191,230,217)" transform="translate(0,0)"></path>
<path d="M 435.037 1234.69 C 449.495 1235.27 465.431 1238.59 479.744 1239.08 C 508.392 1239.93 536.995 1238.58 565.476 1242.42 C 622.268 1250.08 670.06 1283.96 711.553 1321.41 C 717.159 1326.47 740.048 1345 741.655 1350.31 C 725.191 1346.82 690.252 1333.34 672.435 1327.54 C 635.558 1315.54 594.86 1303.34 558.674 1289.91 C 516.458 1273.84 475.18 1255.4 435.037 1234.69 z" fill="rgb(191,230,217)" transform="translate(0,0)"></path>
<path d="M 435.037 1234.69 C 475.18 1255.4 516.458 1273.84 558.674 1289.91 C 594.86 1303.34 635.558 1315.54 672.435 1327.54 C 690.252 1333.34 725.191 1346.82 741.655 1350.31 L 741.57 1353.13 C 730.095 1350.51 719.746 1347.56 708.59 1343.69 C 635.46 1318.32 559.288 1299.03 489.435 1265.18 C 469.981 1255.76 450.77 1245.77 431.312 1236.31 C 431.937 1235.94 434.271 1235.01 435.037 1234.69 z" fill="rgb(23,22,23)" transform="translate(0,0)"></path>
<path d="M 798.543 952.116 C 811.694 987.531 818.779 1018.19 824.635 1055.3 C 837.104 1134.31 816.058 1206.21 762.136 1265.01 C 759.652 1267.71 755.347 1272.98 751.7 1273.38 C 748.703 1270.54 748.99 1267.69 748.725 1263.34 C 747.846 1264.64 747.694 1264.77 747.369 1266.36 L 745.598 1265.03 C 742.163 1259.42 738.979 1249.23 736.861 1243.07 C 708.872 1166.99 735.564 1095.18 769.394 1026.74 C 778.319 1008.69 785.393 986.667 794.363 969.093 L 795.318 969.403 L 795.102 974.8 L 796.938 974.129 C 797.407 966.855 797.792 959.345 798.543 952.116 z" fill="rgb(191,230,217)" transform="translate(0,0)"></path>
<path d="M 745.598 1265.03 C 742.163 1259.42 738.979 1249.23 736.861 1243.07 C 708.872 1166.99 735.564 1095.18 769.394 1026.74 C 778.319 1008.69 785.393 986.667 794.363 969.093 L 795.318 969.403 L 795.102 974.8 L 796.938 974.129 C 795.669 1030.25 781.521 1099.61 769.422 1154.75 C 761.504 1190.84 751.381 1226.22 748.725 1263.34 C 747.846 1264.64 747.694 1264.77 747.369 1266.36 L 745.598 1265.03 z" fill="rgb(191,230,217)" transform="translate(0,0)"></path>
<path d="M 795.102 974.8 L 796.938 974.129 C 795.669 1030.25 781.521 1099.61 769.422 1154.75 C 761.504 1190.84 751.381 1226.22 748.725 1263.34 C 747.846 1264.64 747.694 1264.77 747.369 1266.36 L 745.598 1265.03 C 746.62 1225.66 758.844 1185.52 767.021 1147.15 C 778.303 1094.21 792.353 1028.77 795.102 974.8 z" fill="rgb(23,22,23)" transform="translate(0,0)"></path>
<path d="M 637.701 1073.72 C 635.16 1069.98 635.786 1059.65 635.712 1055.03 C 634.515 980.181 657.405 910.683 724.843 870.569 C 749.352 855.991 776.558 843.418 801.035 828.382 C 807.551 824.379 815.84 819.387 822.804 816.264 L 823.459 816.921 L 821.049 819.951 L 822.23 821.019 C 823.534 825.976 817.886 840.721 816.232 846.241 C 798.815 904.37 770.967 965.488 723.019 1004.67 C 685.625 1035.23 659.461 1041.1 638.615 1088.8 C 638.91 1081.67 639.334 1080.07 641.116 1073.3 L 637.701 1073.72 z" fill="rgb(191,230,217)" transform="translate(0,0)"></path>
<path d="M 637.701 1073.72 C 635.16 1069.98 635.786 1059.65 635.712 1055.03 C 634.515 980.181 657.405 910.683 724.843 870.569 C 749.352 855.991 776.558 843.418 801.035 828.382 C 807.551 824.379 815.84 819.387 822.804 816.264 L 823.459 816.921 L 821.049 819.951 L 822.23 821.019 C 746.951 906.654 676.926 961.292 641.116 1073.3 L 637.701 1073.72 z" fill="rgb(191,230,217)" transform="translate(0,0)"></path>
<path d="M 821.049 819.951 L 822.23 821.019 C 746.951 906.654 676.926 961.292 641.116 1073.3 L 637.701 1073.72 C 639.702 1064.36 644.738 1052.04 648.235 1042.99 C 679.37 962.415 742.865 901.499 801.134 840.195 C 807.566 833.429 813.997 826.033 821.049 819.951 z" fill="rgb(23,22,23)" transform="translate(0,0)"></path>
<path d="M 347.21 1081.59 C 348.274 1079.82 347.607 1080.24 350.769 1079.56 C 417.349 1065.35 475.964 1058.41 536.996 1096.77 C 564.113 1113.82 601.443 1144.37 616.658 1175.14 C 616.721 1175.49 616.784 1175.84 616.847 1176.2 L 613.443 1178.1 C 617.182 1180.43 619.493 1181.41 621.976 1184.9 C 619.193 1184.87 610.819 1181.36 607.946 1180.14 C 549.053 1155.15 484.971 1171.29 425.454 1146.17 C 388.376 1130.53 369.67 1112.02 341.962 1084.61 L 342.257 1083.53 L 346.248 1084.08 L 347.21 1081.59 z" fill="rgb(191,230,217)" transform="translate(0,0)"></path>
<path d="M 613.443 1178.1 C 617.182 1180.43 619.493 1181.41 621.976 1184.9 C 619.193 1184.87 610.819 1181.36 607.946 1180.14 C 549.053 1155.15 484.971 1171.29 425.454 1146.17 C 388.376 1130.53 369.67 1112.02 341.962 1084.61 L 342.257 1083.53 L 346.248 1084.08 C 374.373 1092.01 410.468 1095.99 441.513 1104.29 C 480.395 1114.88 518.16 1129.22 554.277 1147.09 C 574.36 1157.05 593.612 1168.14 613.443 1178.1 z" fill="rgb(191,230,217)" transform="translate(0,0)"></path>
<path d="M 347.21 1081.59 C 363 1085.44 380.517 1087.63 396.585 1090.45 C 414.94 1093.83 433.14 1098 451.133 1102.96 C 478.748 1110.76 506.254 1121.62 532.64 1132.87 C 561.581 1145.21 588.564 1162.72 616.847 1176.2 L 613.443 1178.1 C 593.612 1168.14 574.36 1157.05 554.277 1147.09 C 518.16 1129.22 480.395 1114.88 441.513 1104.29 C 410.468 1095.99 374.373 1092.01 346.248 1084.08 L 347.21 1081.59 z" fill="rgb(23,22,23)" transform="translate(0,0)"></path>
<path d="M 363.075 831.276 C 372.617 835.373 385 844.46 394.015 850.045 C 449.716 884.559 496.995 930.181 537.32 981.597 C 554.61 1003.64 572.649 1027.55 581.343 1054.5 C 579.668 1053.62 580.205 1054.04 578.939 1052.93 C 566.559 1042.07 550.829 1028.81 536.727 1020.64 C 514.413 1007.7 489.969 997.768 467.487 984.865 C 422.485 959.037 399.483 919.628 379.593 873.244 C 373.496 859.024 367.05 846.672 363.075 831.276 z" fill="rgb(191,230,217)" transform="translate(0,0)"></path>
<path d="M 658.448 462.82 C 660.035 465.181 663.744 505.187 664.878 511.362 C 675.383 568.58 677.864 626.409 649.114 679.286 C 638.097 699.549 625.743 719.718 614.139 739.958 C 611.79 744.639 610.394 746.784 607.401 751.11 C 606.105 720.394 609.331 694.872 613.091 664.375 C 621.437 596.688 635.115 527.055 658.448 462.82 z" fill="rgb(191,230,217)" transform="translate(0,0)"></path>
<path d="M 742.543 1419.41 C 766.993 1416.47 809.577 1421.36 833.561 1428.34 C 790.571 1440.48 749.003 1462.47 705.407 1474.1 C 682.525 1480.21 660.462 1483.46 637.18 1487.1 C 611.416 1490.26 585.858 1494.92 560.635 1501.06 C 606.751 1453.12 676.872 1425.09 742.543 1419.41 z" fill="rgb(191,230,217)" transform="translate(0,0)"></path>
<path d="M 881.261 1181.64 C 883.362 1183.5 892.286 1221.42 894.006 1227.48 C 909.256 1281.26 926.253 1335.04 939.683 1389.28 C 944.844 1410.13 954.463 1447.53 954.738 1468.68 L 953.865 1468.96 L 951.115 1465.24 C 925.036 1424.93 891.17 1385.61 878.378 1338.08 C 865.975 1291.99 869.33 1228.25 881.261 1181.64 z" fill="rgb(191,230,217)" transform="translate(0,0)"></path>
<path d="M 473.403 630.525 C 517.269 659.218 568.444 686.679 580.134 742.396 C 582.897 755.562 585.974 788.713 582.403 801.383 C 581.351 802.004 582.067 801.671 580.113 801.987 L 578.22 799.537 C 581.139 809.826 581.179 814.767 581.558 825.293 C 574.172 814.283 570.052 808.504 560.351 799.084 C 548.748 787.816 533.356 776.028 523.375 763.614 C 501.255 736.101 495.802 696.924 486.59 663.755 C 485.781 660.842 481.152 645.122 481.336 643.573 L 483.703 644.501 L 485.117 643.827 C 479.807 638.716 477.89 636.413 473.403 630.525 z" fill="rgb(191,230,217)" transform="translate(0,0)"></path>
<path d="M 473.403 630.525 C 517.269 659.218 568.444 686.679 580.134 742.396 C 582.897 755.562 585.974 788.713 582.403 801.383 C 581.351 802.004 582.067 801.671 580.113 801.987 L 578.22 799.537 C 557.452 741.421 524.636 690.58 483.703 644.501 L 485.117 643.827 C 479.807 638.716 477.89 636.413 473.403 630.525 z" fill="rgb(191,230,217)" transform="translate(0,0)"></path>
<path d="M 485.117 643.827 C 521.561 680.152 569.656 751.555 582.403 801.383 C 581.351 802.004 582.067 801.671 580.113 801.987 L 578.22 799.537 C 557.452 741.421 524.636 690.58 483.703 644.501 L 485.117 643.827 z" fill="rgb(23,22,23)" transform="translate(0,0)"></path>
<path d="M 709.701 1383.42 C 753.343 1379.67 789.801 1397.24 824.509 1421.88 C 748.067 1406.37 685.346 1416.47 616.939 1453.11 C 601.473 1461.95 586.747 1471.99 573.607 1484.08 C 564.401 1492.55 557.441 1501.41 547.18 1508.93 C 551.286 1499.28 574.639 1465.9 581.531 1457.79 C 617.407 1415.58 652.902 1388.72 709.701 1383.42 z" fill="rgb(191,230,217)" transform="translate(0,0)"></path>
<path d="M 887.823 1191.75 C 893.944 1196.69 903.37 1216.72 908.502 1224.09 C 969.88 1312.21 989.391 1360.99 965.404 1469.23 L 960.781 1483.53 C 952.41 1405.69 930.047 1337.33 908.077 1262.31 C 901.483 1239.79 893.272 1214.34 887.823 1191.75 z" fill="rgb(191,230,217)" transform="translate(0,0)"></path>
<path d="M 362.988 828.259 C 401.962 832.582 465.281 855.256 495.647 879.219 C 536.599 911.536 570.281 978.376 575.962 1031.33 C 570.621 1020.64 562.101 1008.35 555.181 998.422 C 517.134 944.254 469.791 897.257 415.346 859.608 C 405.599 852.948 395.793 846.776 385.82 840.51 C 380.779 837.342 365.357 831.789 362.988 828.259 z" fill="rgb(191,230,217)" transform="translate(0,0)"></path>
<path d="M 659.467 449.701 C 660.233 452.156 659.844 455.261 658.876 457.603 C 647.114 486.085 638.231 514.383 630.896 544.402 C 614.587 609.887 605.228 676.909 602.973 744.357 C 600.915 738.022 599.093 730.963 597.292 724.495 C 590.27 702.718 584.082 681.9 581.694 658.992 C 575.397 598.58 601.531 542.32 631.634 491.735 C 639.611 478.33 649.697 461.727 659.467 449.701 z" fill="rgb(191,230,217)" transform="translate(0,0)"></path>
<path d="M 1101.3 1440.7 C 1102.22 1444.87 1099.87 1465.26 1099.37 1470.31 C 1093.16 1532.48 1080.26 1606.19 1058.67 1664.95 L 1056.07 1653.54 L 1054.38 1646.73 C 1031.93 1555.79 1054.81 1517.72 1101.3 1440.7 z" fill="rgb(191,230,217)" transform="translate(0,0)"></path>
<path d="M 1105.53 1433.44 C 1116.22 1443.39 1126.46 1486.26 1128.43 1501.75 C 1137.01 1569.3 1115.27 1596.54 1076.9 1646.33 C 1073.39 1650.73 1069.72 1654.6 1065.9 1658.73 C 1079.72 1610.32 1091.94 1560.91 1098.64 1511 C 1102.2 1484.46 1103.54 1459.86 1105.53 1433.44 z" fill="rgb(191,230,217)" transform="translate(0,0)"></path>
<path d="M 732.598 706.77 C 733.586 712.167 726.601 728.745 724.336 734.378 C 712.039 764.962 695.429 795.487 674.532 821.026 C 663.331 834.715 649.208 846.307 636.943 859.019 C 626.698 869.675 617.512 880.914 607.868 891.907 C 607.775 891.303 607.683 890.7 607.59 890.096 C 618.191 830.625 666.298 782.986 704.852 739.998 C 717.662 725.715 722.996 716.919 732.598 706.77 z" fill="rgb(191,230,217)" transform="translate(0,0)"></path>
<path d="M 1569.19 1540.01 C 1587.36 1537.12 1604.45 1549.46 1607.42 1567.62 C 1610.38 1585.78 1598.11 1602.93 1579.96 1605.96 C 1561.7 1609.02 1544.44 1596.66 1541.46 1578.39 C 1538.48 1560.13 1550.91 1542.92 1569.19 1540.01 z" fill="rgb(191,230,217)" transform="translate(0,0)"></path>
<path d="M 472.508 1537.84 C 490.026 1535.92 505.842 1548.42 508.018 1565.91 C 510.194 1583.39 497.924 1599.39 480.469 1601.82 C 468.951 1603.42 457.464 1598.69 450.406 1589.45 C 443.349 1580.21 441.815 1567.89 446.393 1557.2 C 450.97 1546.51 460.949 1539.11 472.508 1537.84 z" fill="rgb(191,230,217)" transform="translate(0,0)"></path>
<path d="M 721.869 714.152 L 722.26 715.095 C 715.285 725.274 693.626 748.219 684.197 758.115 C 648.16 795.94 628.99 821.841 607.704 869.932 L 606.95 869.53 C 605.767 776.393 652.226 756.838 721.869 714.152 z" fill="rgb(191,230,217)" transform="translate(0,0)"></path>
<path d="M 1515.08 523.678 C 1518.52 525.38 1527.26 534.032 1530.3 536.943 C 1509.58 555.627 1494.08 574.78 1477.4 597.072 C 1472.42 603.724 1458.4 628.948 1454.78 631.356 L 1436.5 623.647 C 1450.53 594.604 1491.46 546.321 1515.08 523.678 z" fill="rgb(191,230,217)" transform="translate(0,0)"></path>
<path d="M 1010.16 1756.45 L 1011.42 1757.57 C 1019.63 1779.5 1007.71 1838.03 1001.94 1861.21 L 996.981 1850.58 C 991.619 1838.02 986.634 1826.02 983.165 1812.74 C 987.824 1799.99 1003.6 1769.08 1010.16 1756.45 z" fill="rgb(191,230,217)" transform="translate(0,0)"></path>
<path d="M 1730.84 1307.56 C 1732.55 1311.33 1736.3 1337.24 1737.5 1343.36 C 1748.69 1345.61 1759.84 1348.05 1770.95 1350.67 C 1759.45 1353.43 1749.1 1354.26 1737.35 1355.52 C 1735.17 1365.77 1735.3 1387.44 1731.53 1394.84 C 1730.06 1381.61 1727.69 1368.59 1726.83 1355.28 C 1715.44 1354.74 1702.82 1352.67 1691.47 1350.98 C 1701.77 1348.1 1715.39 1345.94 1726.39 1343.3 C 1728.78 1331.97 1729.48 1319.22 1730.84 1307.56 z" fill="rgb(191,230,217)" transform="translate(0,0)"></path>
<path d="M 1325.32 1698.75 C 1327.53 1701.23 1330.29 1711.98 1330.33 1715.66 C 1330.45 1728.82 1351.23 1732.41 1362.17 1735.26 C 1331.79 1738.61 1331.4 1740.68 1328.59 1770.31 C 1323.35 1765.26 1326.93 1751.74 1322.75 1746.43 C 1316.13 1738.04 1301.81 1736.72 1291.82 1735.07 C 1320.77 1729.98 1322.84 1727.31 1325.32 1698.75 z" fill="rgb(191,230,217)" transform="translate(0,0)"></path>
<path d="M 306.875 1308.52 C 309.961 1313.43 311.364 1332.89 312.22 1339.81 C 322.596 1340.41 336.693 1342.4 347.3 1343.6 C 340.592 1345.31 317.038 1348.57 314.721 1350.07 C 310.68 1355.77 311.371 1369.09 310.041 1377.25 L 309.821 1378.55 L 308.401 1378.38 C 306.43 1370.08 305.555 1359.79 304.576 1351.17 C 293.217 1347.22 282.732 1346.98 270.907 1343.63 C 280.952 1341.39 292.491 1340.77 302.844 1339.89 C 303.449 1331.85 304.704 1315.83 306.875 1308.52 z" fill="rgb(191,230,217)" transform="translate(0,0)"></path>
<path d="M 699.407 1700.6 L 700.487 1701.61 C 703.118 1709.98 703.071 1726.42 703.292 1735.71 C 713.081 1736.76 722.754 1738.38 732.476 1739.91 C 724.362 1742.23 711.916 1744.08 703.307 1745.57 C 702.089 1754.82 702.414 1763.72 701.512 1773 L 700.105 1773.41 C 697.846 1765.83 698.097 1749.14 691.653 1745.33 C 687.275 1742.74 669.623 1740.96 663.697 1740.13 C 673.993 1737.84 684.459 1736.38 694.991 1735.79 C 694.831 1722.45 696.093 1713.42 699.407 1700.6 z" fill="rgb(191,230,217)" transform="translate(0,0)"></path>
<path d="M 610.71 1362.63 C 617.058 1363.27 624.267 1364.55 630.897 1365.31 C 634.705 1371.69 647.03 1390.35 646.222 1396.34 L 643.573 1398.19 L 633.618 1404.24 C 627.051 1391.1 617.946 1375.89 610.71 1362.63 z" fill="rgb(191,230,217)" transform="translate(0,0)"></path>
<metadata><recraft-signature>{"signed_by": "recraft", "signature_b64": "dVohhcvFaMBptCmmGQ9kGVD2sN/3zRpsJt7QFGf84O1uxa7it2LOqrqYvafUl9kOOF1HK8UirkWubuPA5uQCBw==", "signing_algo": "Ed25519", "generation_timestamp": 1783732026, "identifier": "cc9a9c5e-bca8-4fb0-a3a8-988a87300ae9"}</recraft-signature></metadata></svg>